<svg width="24" height="24" viewBox="0 0 24 24" fill="none" xmlns="http://www.w3.org/2000/svg">
<g clip-path="url(#clip0_2374_5261)">
<path d="M5.8339 23.8154H3.39697L5.8339 16.0247H8.27082L5.8339 23.8154Z" fill="#ED2144"/>
<path d="M18.1664 23.8154H20.6033L18.1664 16.0247H15.7295L18.1664 23.8154Z" fill="#ED2144"/>
<path d="M22.523 1.43994H1.47688C0.77534 1.43994 0.18457 2.03071 0.18457 2.73225V15.5446C0.18457 16.2461 0.77534 16.8369 1.47688 16.8369H22.523C23.2246 16.8369 23.8153 16.2461 23.8153 15.5446V2.73225C23.8153 2.03071 23.2246 1.43994 22.523 1.43994Z" fill="#EFF3F5"/>
<path d="M1.47688 16.8369H22.523C23.2246 16.8369 23.8153 16.2461 23.8153 15.5446V15.2861C23.8153 15.9877 23.2246 16.5784 22.523 16.5784L1.47688 16.6154C0.77534 16.6154 0.18457 16.0246 0.18457 15.3231V15.5815C0.18457 16.2831 0.77534 16.8369 1.47688 16.8369Z" fill="#DCE0E2"/>
<path d="M13.4401 0.18457H10.5601V1.43995H13.4401V0.18457Z" fill="#ED2144"/>
<path d="M20.529 15.0276H3.43359V3.4707H4.50436V13.9569H20.529V15.0276Z" fill="#666481"/>
<path d="M20.2335 6.01855L18.0181 8.19702L16.5781 6.75702L11.815 11.3724L9.15655 8.78779L5.53809 12.1478V12.7016L9.15655 9.34163L11.815 11.9632L16.5781 7.34779L18.0181 8.82471L20.5289 6.31394L20.2335 6.01855Z" fill="#3E9B50"/>
<path d="M20.2704 9.78462L18.4981 11.4831L16.4304 9.41539L14.3258 11.4831L8.52886 5.76001L5.53809 8.71386V9.30463L8.52886 6.35078L14.3258 12.1108L16.4304 10.0431L18.4981 12.1108L20.5658 10.08L20.2704 9.78462Z" fill="#F04663"/>
<path d="M19.015 3.28613L16.3935 5.87075L15.3596 4.87383L12.1104 8.08613L9.89501 5.94459L5.53809 10.2646V10.8923L9.89501 6.53536L12.1104 8.71383L15.3596 5.46459L16.3935 6.46152L19.3104 3.58152L19.015 3.28613Z" fill="#7494F3"/>
</g>
<defs>
<clipPath id="clip0_2374_5261">
<rect width="24" height="24" fill="white"/>
</clipPath>
</defs>
</svg>
