<svg width="1448" height="130" viewBox="0 0 1448 130" fill="none" xmlns="http://www.w3.org/2000/svg">
<path d="M302 35.7481L301.561 34.8495L301.542 34.8587L301.524 34.8685L302 35.7481ZM614.863 17.7754L614.603 18.741L614.605 18.7413L614.863 17.7754ZM668.84 107.14L667.906 107.496L667.97 107.664L668.088 107.799L668.84 107.14ZM1096.65 48.2291L1096.76 47.2344L1096.74 47.2328L1096.72 47.2316L1096.65 48.2291ZM72.5 17.7754L72.7638 16.8108L72.7455 16.8058L72.727 16.8015L72.5 17.7754ZM1.04777 26.6081C0.555185 26.8579 0.358339 27.4596 0.608099 27.9522C0.85786 28.4448 1.45965 28.6417 1.95223 28.3919L1.04777 26.6081ZM3.55391 27.6092C4.05336 27.3735 4.26715 26.7775 4.03142 26.2781C3.7957 25.7786 3.19972 25.5648 2.70027 25.8006L3.55391 27.6092ZM9.49732 22.9332C8.98107 23.1294 8.72162 23.707 8.91784 24.2232C9.11405 24.7395 9.69162 24.9989 10.2079 24.8027L9.49732 22.9332ZM20.5076 21.4035C21.0389 21.2526 21.3473 20.6997 21.1965 20.1684C21.0456 19.6371 20.4927 19.3287 19.9614 19.4795L20.5076 21.4035ZM34.293 16.2503C33.7483 16.3412 33.3804 16.8566 33.4714 17.4013C33.5624 17.946 34.0777 18.3139 34.6225 18.2229L34.293 16.2503ZM38.2019 17.6792C38.7491 17.6044 39.132 17.1002 39.0572 16.553C38.9824 16.0058 38.4782 15.6228 37.931 15.6976L38.2019 17.6792ZM45.2437 14.9279C44.6929 14.9682 44.279 15.4474 44.3193 15.9982C44.3595 16.549 44.8387 16.9629 45.3895 16.9226L45.2437 14.9279ZM56.216 16.694C56.7679 16.7125 57.2304 16.2801 57.2489 15.7281C57.2674 15.1761 56.835 14.7137 56.283 14.6951L56.216 16.694ZM70.9221 16.4037C70.3814 16.2913 69.8519 16.6386 69.7395 17.1793C69.6271 17.72 69.9744 18.2495 70.5151 18.3619L70.9221 16.4037ZM74.0741 19.2397C74.6073 19.3838 75.1563 19.0685 75.3005 18.5353C75.4446 18.0022 75.1292 17.4532 74.5961 17.309L74.0741 19.2397ZM82.1097 19.2956C81.5751 19.1572 81.0295 19.4785 80.8911 20.0132C80.7527 20.5478 81.074 21.0934 81.6087 21.2318L82.1097 19.2956ZM92.9486 24.0798C93.4851 24.2107 94.0262 23.8818 94.1571 23.3453C94.2879 22.8087 93.9591 22.2676 93.4225 22.1368L92.9486 24.0798ZM108.563 25.6945C108.024 25.5726 107.489 25.9104 107.367 26.4491C107.245 26.9877 107.583 27.5233 108.121 27.6452L108.563 25.6945ZM111.942 28.5019C112.481 28.6217 113.016 28.2817 113.135 27.7425C113.255 27.2034 112.915 26.6693 112.376 26.5495L111.942 28.5019ZM119.971 28.2049C119.431 28.0894 118.9 28.4337 118.784 28.9737C118.669 29.5138 119.013 30.0452 119.553 30.1607L119.971 28.2049ZM130.983 32.5331C131.525 32.642 132.052 32.2915 132.161 31.7501C132.27 31.2087 131.919 30.6814 131.378 30.5724L130.983 32.5331ZM146.65 33.5169C146.106 33.4168 145.585 33.776 145.485 34.3192C145.385 34.8624 145.744 35.3838 146.287 35.4838L146.65 33.5169ZM150.129 36.1828C150.673 36.2804 151.192 35.919 151.29 35.3754C151.388 34.8318 151.026 34.312 150.483 34.2143L150.129 36.1828ZM158.138 35.5552C157.593 35.4623 157.077 35.8284 156.984 36.3728C156.891 36.9172 157.257 37.4338 157.801 37.5267L158.138 35.5552ZM169.337 39.4115C169.883 39.4966 170.394 39.1233 170.479 38.5776C170.564 38.0319 170.191 37.5205 169.645 37.4354L169.337 39.4115ZM185.028 39.6742C184.481 39.6005 183.977 39.9845 183.904 40.5318C183.83 41.0792 184.214 41.5826 184.761 41.6563L185.028 39.6742ZM188.628 42.1657C189.176 42.2362 189.677 41.8494 189.748 41.3016C189.818 40.7538 189.431 40.2526 188.884 40.182L188.628 42.1657ZM196.598 41.1289C196.05 41.0649 195.553 41.4579 195.489 42.0064C195.426 42.555 195.818 43.0515 196.367 43.1154L196.598 41.1289ZM207.991 44.3532C208.541 44.406 209.029 44.0031 209.082 43.4534C209.135 42.9036 208.732 42.4151 208.182 42.3623L207.991 44.3532ZM223.67 43.608C223.119 43.5728 222.643 43.9912 222.608 44.5424C222.573 45.0935 222.991 45.5688 223.543 45.6039L223.67 43.608ZM227.439 45.8343C227.991 45.8644 228.462 45.4417 228.492 44.8902C228.522 44.3387 228.1 43.8673 227.548 43.8373L227.439 45.8343ZM235.304 44.1827C234.752 44.1638 234.289 44.596 234.27 45.1479C234.251 45.6999 234.683 46.1626 235.235 46.1815L235.304 44.1827ZM246.942 46.378C247.494 46.3769 247.941 45.9283 247.94 45.3761C247.939 44.8238 247.49 44.3769 246.938 44.378L246.942 46.378ZM262.413 43.8827C261.862 43.9191 261.445 44.3953 261.481 44.9464C261.518 45.4975 261.994 45.9147 262.545 45.8784L262.413 43.8827ZM266.475 45.5799C267.025 45.5324 267.433 45.0479 267.385 44.4976C267.338 43.9474 266.853 43.5398 266.303 43.5873L266.475 45.5799ZM273.986 42.7473C273.439 42.8208 273.055 43.3241 273.128 43.8715C273.202 44.4188 273.705 44.803 274.252 44.7295L273.986 42.7473ZM285.837 42.6341C286.375 42.5077 286.708 41.9694 286.582 41.4318C286.455 40.8942 285.917 40.5608 285.379 40.6871L285.837 42.6341ZM299.862 35.7238C299.366 35.9667 299.161 36.5657 299.404 37.0617C299.647 37.5577 300.246 37.7629 300.742 37.52L299.862 35.7238ZM304.227 35.7817C304.725 35.543 304.935 34.9457 304.697 34.4477C304.458 33.9496 303.861 33.7394 303.363 33.9781L304.227 35.7817ZM310.634 30.6226C310.13 30.8468 309.902 31.4377 310.126 31.9424C310.35 32.4472 310.941 32.6747 311.446 32.4505L310.634 30.6226ZM322.446 27.8389C322.96 27.6358 323.211 27.0549 323.008 26.5413C322.805 26.0276 322.224 25.7759 321.711 25.9789L322.446 27.8389ZM336.746 20.4861C336.223 20.6623 335.942 21.2295 336.118 21.7529C336.294 22.2763 336.861 22.5578 337.385 22.3816L336.746 20.4861ZM341.162 21.1359C341.688 20.9661 341.976 20.4025 341.806 19.8769C341.637 19.3514 341.073 19.0629 340.547 19.2327L341.162 21.1359ZM348.192 16.8647C347.663 17.0218 347.361 17.5784 347.518 18.1079C347.675 18.6373 348.232 18.9392 348.761 18.7821L348.192 16.8647ZM360.26 15.5847C360.795 15.4457 361.116 14.8998 360.977 14.3653C360.838 13.8307 360.292 13.51 359.757 13.649L360.26 15.5847ZM375.327 9.95935C374.787 10.0754 374.444 10.6071 374.56 11.1471C374.676 11.687 375.207 12.0307 375.747 11.9147L375.327 9.95935ZM379.643 11.0986C380.184 10.9881 380.533 10.4598 380.423 9.91872C380.312 9.3776 379.784 9.02852 379.243 9.13902L379.643 11.0986ZM387.095 7.61673C386.552 7.7165 386.193 8.23773 386.292 8.78093C386.392 9.32413 386.913 9.68359 387.457 9.58382L387.095 7.61673ZM399.23 7.59507C399.776 7.51075 400.15 6.99992 400.065 6.45411C399.981 5.90831 399.47 5.5342 398.924 5.61852L399.23 7.59507ZM414.777 3.46091C414.229 3.52575 413.837 4.02292 413.902 4.57139C413.966 5.11986 414.464 5.51192 415.012 5.44708L414.777 3.46091ZM418.966 4.99678C419.515 4.93663 419.912 4.44282 419.852 3.89382C419.791 3.34482 419.298 2.94853 418.749 3.00868L418.966 4.99678ZM426.707 2.20415C426.157 2.25514 425.753 2.74228 425.804 3.2922C425.855 3.84213 426.342 4.2466 426.892 4.19561L426.707 2.20415ZM438.8 3.23693C439.351 3.19918 439.767 2.72192 439.729 2.17093C439.691 1.61993 439.214 1.20386 438.663 1.2416L438.8 3.23693ZM454.62 0.394967C454.068 0.415893 453.638 0.880251 453.659 1.43214C453.68 1.98403 454.144 2.41446 454.696 2.39353L454.62 0.394967ZM458.688 2.257C459.24 2.24016 459.673 1.779 459.657 1.22697C459.64 0.67494 459.179 0.241087 458.627 0.25793L458.688 2.257ZM466.61 0.0723854C466.057 0.0812397 465.617 0.536075 465.626 1.08829C465.635 1.6405 466.089 2.08098 466.642 2.07213L466.61 0.0723854ZM478.596 2.00745C479.148 2.01026 479.598 1.56484 479.601 1.01256C479.604 0.460281 479.158 0.0102893 478.606 0.00747418L478.596 2.00745ZM494.596 0.307937C494.044 0.29009 493.582 0.723104 493.564 1.2751C493.546 1.8271 493.979 2.28905 494.531 2.30689L494.596 0.307937ZM498.499 2.44838C499.051 2.4699 499.516 2.03996 499.537 1.4881C499.559 0.93623 499.129 0.471414 498.577 0.449901L498.499 2.44838ZM506.568 0.814411C506.016 0.785609 505.546 1.20937 505.517 1.7609C505.488 2.31243 505.912 2.78289 506.464 2.81169L506.568 0.814411ZM518.379 3.55089C518.93 3.59045 519.408 3.17597 519.448 2.6251C519.487 2.07424 519.073 1.59559 518.522 1.55603L518.379 3.55089ZM534.476 2.90998C533.926 2.85616 533.437 3.25811 533.383 3.80776C533.329 4.35742 533.731 4.84664 534.281 4.90046L534.476 2.90998ZM538.222 5.29925C538.772 5.35662 539.263 4.95783 539.321 4.40853C539.378 3.85924 538.979 3.36744 538.43 3.31007L538.222 5.29925ZM546.377 4.19239C545.829 4.12787 545.332 4.52021 545.267 5.06871C545.203 5.61721 545.595 6.11417 546.144 6.17869L546.377 4.19239ZM558.012 7.69441C558.559 7.76985 559.064 7.38749 559.14 6.84039C559.215 6.29328 558.833 5.7886 558.285 5.71315L558.012 7.69441ZM574.076 8.11234C573.531 8.0217 573.016 8.38986 572.925 8.93466C572.835 9.47945 573.203 9.99458 573.748 10.0852L574.076 8.11234ZM577.704 10.7584C578.248 10.8531 578.766 10.4887 578.86 9.94462C578.955 9.40051 578.591 8.88268 578.047 8.78801L577.704 10.7584ZM585.914 10.2187C585.372 10.1157 584.849 10.472 584.745 11.0146C584.642 11.5572 584.999 12.0806 585.541 12.1836L585.914 10.2187ZM597.234 14.5555C597.774 14.6724 598.307 14.3295 598.423 13.7897C598.54 13.25 598.198 12.7177 597.658 12.6008L597.234 14.5555ZM613.241 16.3094C612.707 16.1693 612.16 16.4887 612.02 17.0229C611.88 17.5571 612.199 18.1038 612.733 18.2439L613.241 16.3094ZM616.758 19.3207C617.291 19.4648 617.84 19.1494 617.984 18.6163C618.128 18.0831 617.813 17.5341 617.28 17.39L616.758 19.3207ZM625.727 19.7131C625.195 19.5642 624.643 19.8747 624.494 20.4066C624.346 20.9384 624.656 21.4902 625.188 21.6391L625.727 19.7131ZM637.293 25.1171C637.823 25.2734 638.379 24.9707 638.535 24.441C638.691 23.9113 638.389 23.3552 637.859 23.1989L637.293 25.1171ZM654.395 28.2721C653.869 28.1042 653.306 28.3945 653.138 28.9206C652.97 29.4468 653.261 30.0094 653.787 30.1774L654.395 28.2721ZM657.745 31.4537C658.27 31.6247 658.834 31.3377 659.005 30.8126C659.176 30.2875 658.889 29.7231 658.364 29.552L657.745 31.4537ZM666.54 32.2737C666.017 32.0958 665.449 32.3754 665.271 32.8982C665.093 33.4211 665.373 33.9892 665.896 34.1671L666.54 32.2737ZM677.901 38.3954C678.42 38.5846 678.994 38.3175 679.183 37.7986C679.373 37.2798 679.106 36.7058 678.587 36.5165L677.901 38.3954ZM694.632 42.6825C694.12 42.4749 693.537 42.7216 693.329 43.2333C693.122 43.7451 693.368 44.3283 693.88 44.5359L694.632 42.6825ZM697.655 46.0882C698.164 46.3008 698.75 46.06 698.963 45.5502C699.175 45.0405 698.934 44.4549 698.425 44.2424L697.655 46.0882ZM706.523 47.7286C706.018 47.5042 705.427 47.7313 705.203 48.236C704.978 48.7406 705.205 49.3316 705.71 49.556L706.523 47.7286ZM717.247 54.9606C717.742 55.2054 718.342 55.0026 718.587 54.5075C718.832 54.0124 718.629 53.4127 718.134 53.1678L717.247 54.9606ZM733.257 61.313C732.782 61.0321 732.169 61.1899 731.888 61.6655C731.607 62.141 731.765 62.7542 732.24 63.0351L733.257 61.313ZM735.76 65.1676C736.229 65.4594 736.845 65.3157 737.137 64.8467C737.429 64.3778 737.285 63.7611 736.816 63.4694L735.76 65.1676ZM744.083 68.2733C743.632 67.9551 743.008 68.063 742.69 68.5143C742.371 68.9657 742.479 69.5896 742.931 69.9079L744.083 68.2733ZM752.777 77.7074C753.187 78.0778 753.819 78.0459 754.189 77.6363C754.56 77.2266 754.528 76.5943 754.118 76.2239L752.777 77.7074ZM765.302 89.5419C765.029 89.0616 764.419 88.8933 763.939 89.166C763.458 89.4387 763.29 90.0491 763.563 90.5293L765.302 89.5419ZM765.349 94.2176C765.554 94.7305 766.135 94.9803 766.648 94.7756C767.161 94.5708 767.411 93.989 767.206 93.4761L765.349 94.2176ZM768.954 102.212C768.959 101.66 768.515 101.208 767.963 101.203C767.411 101.198 766.959 101.642 766.954 102.194L768.954 102.212ZM762.829 113.348C762.485 113.78 762.557 114.409 762.989 114.753C763.422 115.097 764.051 115.025 764.395 114.592L762.829 113.348ZM750.223 124.721C750.73 124.504 750.965 123.916 750.747 123.408C750.53 122.901 749.942 122.666 749.434 122.883L750.223 124.721ZM745.502 124.387C744.979 124.565 744.699 125.133 744.877 125.656C745.054 126.178 745.622 126.459 746.145 126.281L745.502 124.387ZM737.76 128.508C738.302 128.4 738.653 127.874 738.546 127.332C738.438 126.79 737.912 126.439 737.37 126.546L737.76 128.508ZM724.79 127.959C724.238 127.977 723.804 128.438 723.822 128.99C723.839 129.542 724.301 129.976 724.853 129.958L724.79 127.959ZM707.6 128.739C708.144 128.834 708.662 128.47 708.757 127.926C708.852 127.382 708.488 126.864 707.944 126.769L707.6 128.739ZM703.807 125.934C703.269 125.81 702.732 126.146 702.608 126.685C702.485 127.223 702.821 127.759 703.359 127.883L703.807 125.934ZM695.036 125.484C695.557 125.667 696.128 125.392 696.31 124.871C696.493 124.35 696.218 123.779 695.697 123.596L695.036 125.484ZM684.21 118.36C683.731 118.084 683.12 118.249 682.844 118.727C682.568 119.206 682.732 119.817 683.211 120.093L684.21 118.36ZM669.564 109.417C669.944 109.818 670.577 109.835 670.978 109.455C671.378 109.075 671.395 108.442 671.015 108.041L669.564 109.417ZM669.133 104.841C668.985 104.308 668.434 103.997 667.901 104.145C667.369 104.293 667.058 104.844 667.206 105.376L669.133 104.841ZM666.744 96.8213C666.645 97.3647 667.005 97.8853 667.549 97.9842C668.092 98.083 668.613 97.7227 668.712 97.1793L666.744 96.8213ZM674.247 87.0012C674.625 86.598 674.604 85.9652 674.201 85.5877C673.798 85.2103 673.165 85.2311 672.787 85.6343L674.247 87.0012ZM686.243 75.7943C685.758 76.0569 685.577 76.6637 685.839 77.1495C686.102 77.6354 686.708 77.8163 687.194 77.5537L686.243 75.7943ZM690.928 75.6489C691.426 75.4089 691.635 74.8111 691.395 74.3137C691.155 73.8163 690.557 73.6075 690.059 73.8475L690.928 75.6489ZM697.624 70.5298C697.111 70.7351 696.862 71.3171 697.068 71.8298C697.273 72.3426 697.855 72.5918 698.368 72.3865L697.624 70.5298ZM709.924 68.2659C710.45 68.098 710.741 67.5354 710.573 67.0092C710.405 66.4831 709.842 66.1927 709.316 66.3606L709.924 68.2659ZM725.169 61.8912C724.633 62.0252 724.307 62.5681 724.441 63.1039C724.575 63.6397 725.118 63.9655 725.654 63.8315L725.169 61.8912ZM729.714 62.8444C730.252 62.7173 730.584 62.1785 730.457 61.6411C730.33 61.1036 729.791 60.7709 729.254 60.898L729.714 62.8444ZM737.241 59.104C736.701 59.2192 736.357 59.7505 736.472 60.2907C736.587 60.8308 737.119 61.1752 737.659 61.06L737.241 59.104ZM749.75 58.6603C750.293 58.5601 750.652 58.0385 750.552 57.4954C750.451 56.9523 749.93 56.5933 749.387 56.6936L749.75 58.6603ZM765.669 53.9453C765.123 54.0295 764.749 54.5402 764.833 55.0861C764.918 55.6319 765.428 56.0062 765.974 55.922L765.669 53.9453ZM770.103 55.2991C770.649 55.2185 771.027 54.7102 770.946 54.1638C770.865 53.6175 770.357 53.2399 769.811 53.3205L770.103 55.2991ZM777.907 52.1752C777.36 52.2494 776.976 52.7532 777.05 53.3004C777.125 53.8477 777.628 54.2312 778.176 54.157L777.907 52.1752ZM790.431 52.5966C790.979 52.5311 791.37 52.0334 791.305 51.485C791.239 50.9366 790.742 50.5452 790.193 50.6107L790.431 52.5966ZM806.582 48.8084C806.033 48.8639 805.633 49.3543 805.688 49.9038C805.743 50.4533 806.234 50.8538 806.783 50.7983L806.582 48.8084ZM810.87 50.3943C811.419 50.3411 811.822 49.8524 811.769 49.3026C811.716 48.7529 811.227 48.3504 810.677 48.4036L810.87 50.3943ZM818.935 47.6379C818.385 47.6867 817.978 48.1722 818.027 48.7224C818.076 49.2725 818.562 49.6789 819.112 49.63L818.935 47.6379ZM831.387 48.6088C831.938 48.5659 832.349 48.0848 832.306 47.5342C832.263 46.9836 831.782 46.5719 831.232 46.6148L831.387 48.6088ZM847.668 45.447C847.117 45.4826 846.699 45.9582 846.735 46.5094C846.77 47.0605 847.246 47.4784 847.797 47.4429L847.668 45.447ZM851.943 47.1818C852.494 47.1479 852.914 46.6736 852.88 46.1224C852.846 45.5711 852.372 45.1517 851.82 45.1856L851.943 47.1818ZM859.998 44.7078C859.446 44.7384 859.024 45.2102 859.055 45.7617C859.085 46.3131 859.557 46.7353 860.108 46.7047L859.998 44.7078ZM872.463 46.0724C873.015 46.0465 873.441 45.5782 873.415 45.0266C873.389 44.4749 872.921 44.0487 872.369 44.0746L872.463 46.0724ZM888.848 43.3883C888.296 43.4084 887.865 43.8722 887.885 44.4241C887.905 44.976 888.369 45.4071 888.921 45.387L888.848 43.3883ZM893.01 45.2431C893.562 45.2244 893.994 44.7617 893.976 44.2098C893.957 43.6578 893.494 43.2255 892.942 43.2443L893.01 45.2431ZM901.175 42.9851C900.623 43.0012 900.188 43.4617 900.204 44.0137C900.221 44.5658 900.681 45.0003 901.233 44.9843L901.175 42.9851ZM913.575 44.6701C914.127 44.658 914.565 44.2006 914.553 43.6484C914.541 43.0962 914.083 42.6585 913.531 42.6706L913.575 44.6701ZM930.016 42.3841C929.464 42.3912 929.022 42.8447 929.029 43.3969C929.036 43.9491 929.489 44.391 930.042 44.3839L930.016 42.3841ZM934.151 44.3355C934.703 44.3296 935.146 43.8771 935.14 43.3248C935.134 42.7726 934.681 42.3297 934.129 42.3356L934.151 44.3355ZM942.379 42.2652C941.827 42.2687 941.382 42.7193 941.385 43.2716C941.389 43.8239 941.84 44.2687 942.392 44.2652L942.379 42.2652ZM954.731 44.226C955.283 44.226 955.731 43.7782 955.731 43.2259C955.731 42.6737 955.283 42.226 954.731 42.226L954.731 44.226ZM971.213 42.2941C970.661 42.2896 970.209 42.7336 970.205 43.2858C970.2 43.8381 970.644 44.2895 971.197 44.294L971.213 42.2941ZM975.312 44.3322C975.864 44.3379 976.316 43.8948 976.322 43.3426C976.327 42.7903 975.884 42.338 975.332 42.3323L975.312 44.3322ZM983.574 42.4339C983.022 42.426 982.568 42.8672 982.56 43.4194C982.552 43.9717 982.993 44.4258 983.546 44.4337L983.574 42.4339ZM995.89 44.6481C996.442 44.6594 996.899 44.2209 996.91 43.6687C996.921 43.1166 996.483 42.6598 995.931 42.6486L995.89 44.6481ZM1012.41 43.0507C1011.86 43.035 1011.4 43.4698 1011.38 44.0219C1011.36 44.5739 1011.8 45.0342 1012.35 45.0499L1012.41 43.0507ZM1016.46 45.1708C1017.01 45.1876 1017.48 44.7537 1017.49 44.2017C1017.51 43.6496 1017.08 43.1885 1016.52 43.1717L1016.46 45.1708ZM1024.76 43.4388C1024.21 43.4198 1023.74 43.8518 1023.72 44.4038C1023.7 44.9557 1024.14 45.4186 1024.69 45.4376L1024.76 43.4388ZM1037.03 45.9001C1037.58 45.9225 1038.04 45.4933 1038.07 44.9415C1038.09 44.3896 1037.66 43.9241 1037.11 43.9018L1037.03 45.9001ZM1053.58 44.6372C1053.03 44.6103 1052.56 45.0356 1052.53 45.5873C1052.5 46.1389 1052.93 46.6079 1053.48 46.6348L1053.58 44.6372ZM1057.58 46.8391C1058.13 46.8671 1058.6 46.4428 1058.63 45.8912C1058.65 45.3396 1058.23 44.8697 1057.68 44.8416L1057.58 46.8391ZM1065.92 45.2788C1065.37 45.2484 1064.9 45.6707 1064.87 46.2222C1064.84 46.7736 1065.26 47.2453 1065.81 47.2757L1065.92 45.2788ZM1078.11 47.9937C1078.66 48.0277 1079.13 47.6084 1079.17 47.0571C1079.2 46.5059 1078.78 46.0315 1078.23 45.9975L1078.11 47.9937ZM1094.69 47.0863C1094.14 47.0473 1093.66 47.4623 1093.62 48.0132C1093.58 48.5641 1093.99 49.0423 1094.55 49.0813L1094.69 47.0863ZM1098.5 49.4262C1099.05 49.4833 1099.54 49.0843 1099.59 48.535C1099.65 47.9857 1099.25 47.4941 1098.7 47.4369L1098.5 49.4262ZM1106.49 48.2468C1105.94 48.1896 1105.45 48.5886 1105.39 49.138C1105.33 49.6873 1105.73 50.1789 1106.28 50.2361L1106.49 48.2468ZM1117.96 51.4509C1118.51 51.508 1119 51.109 1119.06 50.5597C1119.11 50.0104 1118.72 49.5188 1118.17 49.4616L1117.96 51.4509ZM1133.74 51.0814C1133.19 51.0242 1132.7 51.4232 1132.64 51.9725C1132.58 52.5219 1132.98 53.0135 1133.53 53.0706L1133.74 51.0814ZM1137.42 53.4756C1137.97 53.5327 1138.46 53.1337 1138.52 52.5844C1138.58 52.0351 1138.18 51.5435 1137.63 51.4863L1137.42 53.4756ZM1145.42 52.2962C1144.87 52.2391 1144.37 52.638 1144.32 53.1874C1144.26 53.7367 1144.66 54.2283 1145.21 54.2855L1145.42 52.2962ZM1156.89 55.5003C1157.44 55.5574 1157.93 55.1584 1157.99 54.6091C1158.04 54.0598 1157.64 53.5682 1157.09 53.511L1156.89 55.5003ZM1172.67 55.1308C1172.12 55.0736 1171.62 55.4726 1171.57 56.0219C1171.51 56.5713 1171.91 57.0629 1172.46 57.12L1172.67 55.1308ZM1176.35 57.525C1176.9 57.5821 1177.39 57.1831 1177.45 56.6338C1177.51 56.0845 1177.11 55.5929 1176.56 55.5357L1176.35 57.525ZM1184.34 56.3456C1183.79 56.2885 1183.3 56.6875 1183.25 57.2368C1183.19 57.7861 1183.59 58.2777 1184.14 58.3349L1184.34 56.3456ZM1195.81 59.5497C1196.36 59.6068 1196.86 59.2078 1196.91 58.6585C1196.97 58.1092 1196.57 57.6176 1196.02 57.5604L1195.81 59.5497ZM1211.59 59.1802C1211.04 59.123 1210.55 59.522 1210.49 60.0714C1210.44 60.6207 1210.84 61.1123 1211.39 61.1695L1211.59 59.1802ZM1215.28 61.5744C1215.83 61.6315 1216.32 61.2326 1216.38 60.6832C1216.43 60.1339 1216.03 59.6423 1215.49 59.5851L1215.28 61.5744ZM1223.27 60.395C1222.72 60.3379 1222.23 60.7369 1222.17 61.2862C1222.12 61.8355 1222.51 62.3271 1223.06 62.3843L1223.27 60.395ZM1234.74 63.5991C1235.29 63.6562 1235.78 63.2573 1235.84 62.7079C1235.9 62.1586 1235.5 61.667 1234.95 61.6098L1234.74 63.5991ZM1250.52 63.2296C1249.97 63.1725 1249.48 63.5714 1249.42 64.1208C1249.36 64.6701 1249.76 65.1617 1250.31 65.2189L1250.52 63.2296ZM1254.21 65.6238C1254.76 65.6809 1255.25 65.282 1255.3 64.7326C1255.36 64.1833 1254.96 63.6917 1254.41 63.6345L1254.21 65.6238ZM1262.2 64.4444C1261.65 64.3873 1261.16 64.7863 1261.1 65.3356C1261.04 65.8849 1261.44 66.3765 1261.99 66.4337L1262.2 64.4444ZM1273.67 67.6485C1274.22 67.7057 1274.71 67.3067 1274.77 66.7573C1274.82 66.208 1274.43 65.7164 1273.88 65.6592L1273.67 67.6485ZM1289.45 67.279C1288.9 67.2219 1288.41 67.6208 1288.35 68.1702C1288.29 68.7195 1288.69 69.2111 1289.24 69.2683L1289.45 67.279ZM1293.13 69.6732C1293.68 69.7304 1294.17 69.3314 1294.23 68.782C1294.29 68.2327 1293.89 67.7411 1293.34 67.6839L1293.13 69.6732ZM1301.13 68.4938C1300.58 68.4367 1300.08 68.8357 1300.03 69.385C1299.97 69.9343 1300.37 70.4259 1300.92 70.4831L1301.13 68.4938ZM1312.6 71.6979C1313.15 71.7551 1313.64 71.3561 1313.69 70.8067C1313.75 70.2574 1313.35 69.7658 1312.8 69.7086L1312.6 71.6979ZM1328.37 71.3284C1327.83 71.2713 1327.33 71.6703 1327.28 72.2196C1327.22 72.7689 1327.62 73.2605 1328.17 73.3177L1328.37 71.3284ZM1332.06 73.7226C1332.61 73.7798 1333.1 73.3808 1333.16 72.8315C1333.22 72.2821 1332.82 71.7905 1332.27 71.7334L1332.06 73.7226ZM1340.05 72.5432C1339.5 72.4861 1339.01 72.8851 1338.95 73.4344C1338.9 73.9837 1339.3 74.4754 1339.85 74.5325L1340.05 72.5432ZM1351.52 75.7473C1352.07 75.8045 1352.57 75.4055 1352.62 74.8562C1352.68 74.3068 1352.28 73.8152 1351.73 73.7581L1351.52 75.7473ZM1367.3 75.3778C1366.75 75.3207 1366.26 75.7197 1366.2 76.269C1366.15 76.8183 1366.55 77.3099 1367.1 77.3671L1367.3 75.3778ZM1370.99 77.772C1371.54 77.8292 1372.03 77.4302 1372.09 76.8809C1372.14 76.3315 1371.74 75.8399 1371.19 75.7828L1370.99 77.772ZM1378.98 76.5926C1378.43 76.5355 1377.94 76.9345 1377.88 77.4838C1377.83 78.0331 1378.22 78.5248 1378.77 78.5819L1378.98 76.5926ZM1390.45 79.7967C1391 79.8539 1391.49 79.4549 1391.55 78.9056C1391.61 78.3562 1391.21 77.8646 1390.66 77.8075L1390.45 79.7967ZM1406.23 79.4272C1405.68 79.3701 1405.19 79.7691 1405.13 80.3184C1405.07 80.8677 1405.47 81.3594 1406.02 81.4165L1406.23 79.4272ZM1409.92 81.8214C1410.46 81.8786 1410.96 81.4796 1411.01 80.9303C1411.07 80.3809 1410.67 79.8893 1410.12 79.8322L1409.92 81.8214ZM1417.91 80.6421C1417.36 80.5849 1416.87 80.9839 1416.81 81.5332C1416.75 82.0825 1417.15 82.5742 1417.7 82.6313L1417.91 80.6421ZM1429.38 83.8461C1429.93 83.9033 1430.42 83.5043 1430.48 82.955C1430.53 82.4056 1430.14 81.914 1429.59 81.8569L1429.38 83.8461ZM1445.16 83.4766C1444.61 83.4195 1444.12 83.8185 1444.06 84.3678C1444 84.9171 1444.4 85.4088 1444.95 85.4659L1445.16 83.4766ZM1.95223 28.3919C2.4513 28.1389 2.98573 27.8774 3.55391 27.6092L2.70027 25.8006C2.11618 26.0762 1.56476 26.346 1.04777 26.6081L1.95223 28.3919ZM10.2079 24.8027C13.2462 23.6479 16.7139 22.4804 20.5076 21.4035L19.9614 19.4795C16.1112 20.5725 12.5886 21.7583 9.49732 22.9332L10.2079 24.8027ZM34.6225 18.2229C35.8016 18.026 36.9954 17.8441 38.2019 17.6792L37.931 15.6976C36.7044 15.8653 35.4911 16.0502 34.293 16.2503L34.6225 18.2229ZM45.3895 16.9226C48.9431 16.6628 52.5671 16.5716 56.216 16.694L56.283 14.6951C52.5569 14.5701 48.8616 14.6634 45.2437 14.9279L45.3895 16.9226ZM70.5151 18.3619C71.1021 18.4839 71.6881 18.6129 72.273 18.7493L72.727 16.8015C72.1263 16.6615 71.5245 16.5289 70.9221 16.4037L70.5151 18.3619ZM72.2362 18.74C72.8414 18.9055 73.4541 19.0721 74.0741 19.2397L74.5961 17.309C73.978 17.1419 73.3671 16.9758 72.7638 16.8108L72.2362 18.74ZM81.6087 21.2318C85.2083 22.1632 88.9969 23.116 92.9486 24.0798L93.4225 22.1368C89.4797 21.1751 85.7001 20.2246 82.1097 19.2956L81.6087 21.2318ZM108.121 27.6452C109.384 27.931 110.658 28.2166 111.942 28.5019L112.376 26.5495C111.094 26.2648 109.823 25.9797 108.563 25.6945L108.121 27.6452ZM119.553 30.1607C123.294 30.9603 127.108 31.753 130.983 32.5331L131.378 30.5724C127.511 29.794 123.704 29.0029 119.971 28.2049L119.553 30.1607ZM146.287 35.4838C147.564 35.7189 148.845 35.9519 150.129 36.1828L150.483 34.2143C149.201 33.984 147.923 33.7514 146.65 33.5169L146.287 35.4838ZM157.801 37.5267C161.627 38.1792 165.476 38.8091 169.337 39.4115L169.645 37.4354C165.794 36.8345 161.954 36.2062 158.138 35.5552L157.801 37.5267ZM184.761 41.6563C186.051 41.8299 187.34 41.9998 188.628 42.1657L188.884 40.182C187.599 40.0166 186.314 39.8473 185.028 39.6742L184.761 41.6563ZM196.367 43.1154C200.263 43.5693 204.142 43.9836 207.991 44.3532L208.182 42.3623C204.348 41.9941 200.482 41.5813 196.598 41.1289L196.367 43.1154ZM223.543 45.6039C224.847 45.687 226.147 45.7639 227.439 45.8343L227.548 43.8373C226.262 43.7672 224.969 43.6907 223.67 43.608L223.543 45.6039ZM235.235 46.1815C239.216 46.3176 243.124 46.3853 246.942 46.378L246.938 44.378C243.146 44.3852 239.262 44.318 235.304 44.1827L235.235 46.1815ZM262.545 45.8784C263.871 45.791 265.182 45.6916 266.475 45.5799L266.303 43.5873C265.024 43.6978 263.727 43.7962 262.413 43.8827L262.545 45.8784ZM274.252 44.7295C278.331 44.1818 282.204 43.488 285.837 42.6341L285.379 40.6871C281.819 41.5241 278.01 42.2069 273.986 42.7473L274.252 44.7295ZM300.742 37.52C301.333 37.2308 301.911 36.9334 302.476 36.6277L301.524 34.8685C300.984 35.161 300.43 35.446 299.862 35.7238L300.742 37.52ZM302.439 36.6467C303.034 36.3562 303.63 36.0678 304.227 35.7817L303.363 33.9781C302.761 34.2664 302.16 34.5568 301.561 34.8495L302.439 36.6467ZM311.446 32.4505C315.076 30.8383 318.745 29.302 322.446 27.8389L321.711 25.9789C317.984 27.452 314.291 28.9989 310.634 30.6226L311.446 32.4505ZM337.385 22.3816C338.641 21.9587 339.9 21.5435 341.162 21.1359L340.547 19.2327C339.278 19.6428 338.01 20.0606 336.746 20.4861L337.385 22.3816ZM348.761 18.7821C352.573 17.6509 356.408 16.586 360.26 15.5847L359.757 13.649C355.883 14.6558 352.027 15.7268 348.192 16.8647L348.761 18.7821ZM375.747 11.9147C377.045 11.636 378.343 11.364 379.643 11.0986L379.243 9.13902C377.936 9.40581 376.631 9.67922 375.327 9.95935L375.747 11.9147ZM387.457 9.58382C391.375 8.86414 395.301 8.20211 399.23 7.59507L398.924 5.61852C394.977 6.22837 391.032 6.89354 387.095 7.61673L387.457 9.58382ZM415.012 5.44708C416.331 5.29123 417.649 5.14116 418.966 4.99678L418.749 3.00868C417.425 3.15367 416.101 3.30438 414.777 3.46091L415.012 5.44708ZM426.892 4.19561C430.87 3.82674 434.841 3.50811 438.8 3.23693L438.663 1.2416C434.689 1.51385 430.702 1.83377 426.707 2.20415L426.892 4.19561ZM454.696 2.39353C456.029 2.343 457.359 2.29753 458.688 2.257L458.627 0.25793C457.293 0.298604 455.958 0.344247 454.62 0.394967L454.696 2.39353ZM466.642 2.07213C470.653 2.00781 474.639 1.98728 478.596 2.00745L478.606 0.00747418C474.636 -0.0127634 470.635 0.00783896 466.61 0.0723854L466.642 2.07213ZM494.531 2.30689C495.858 2.3498 497.181 2.397 498.499 2.44838L498.577 0.449901C497.254 0.398347 495.927 0.350984 494.596 0.307937L494.531 2.30689ZM506.464 2.81169C510.485 3.0217 514.459 3.26934 518.379 3.55089L518.522 1.55603C514.59 1.27356 510.603 1.02511 506.568 0.814411L506.464 2.81169ZM534.281 4.90046C535.603 5.02989 536.916 5.16287 538.222 5.29925L538.43 3.31007C537.12 3.17324 535.802 3.03983 534.476 2.90998L534.281 4.90046ZM546.144 6.17869C550.189 6.65463 554.149 7.1616 558.012 7.69441L558.285 5.71315C554.409 5.17855 550.436 4.66989 546.377 4.19239L546.144 6.17869ZM573.748 10.0852C575.082 10.3071 576.4 10.5316 577.704 10.7584L578.047 8.78801C576.738 8.56037 575.415 8.33506 574.076 8.11234L573.748 10.0852ZM585.541 12.1836C589.622 12.9585 593.525 13.7524 597.234 14.5555L597.658 12.6008C593.931 11.7939 590.011 10.9967 585.914 10.2187L585.541 12.1836ZM612.733 18.2439C613.366 18.4099 613.989 18.5756 614.603 18.741L615.123 16.8098C614.505 16.6433 613.878 16.4764 613.241 16.3094L612.733 18.2439ZM614.605 18.7413C615.325 18.9344 616.043 19.1276 616.758 19.3207L617.28 17.39C616.563 17.1965 615.844 17.003 615.122 16.8095L614.605 18.7413ZM625.188 21.6391C629.33 22.7984 633.365 23.958 637.293 25.1171L637.859 23.1989C633.922 22.037 629.878 20.8749 625.727 19.7131L625.188 21.6391ZM653.787 30.1774C655.12 30.603 656.439 31.0284 657.745 31.4537L658.364 29.552C657.055 29.1256 655.732 28.6989 654.395 28.2721L653.787 30.1774ZM665.896 34.1671C670.047 35.5796 674.047 36.9894 677.901 38.3954L678.587 36.5165C674.719 35.1053 670.704 33.6907 666.54 32.2737L665.896 34.1671ZM693.88 44.5359C695.158 45.0541 696.416 45.5716 697.655 46.0882L698.425 44.2424C697.18 43.7231 695.915 43.2032 694.632 42.6825L693.88 44.5359ZM705.71 49.556C709.788 51.3699 713.631 53.1721 717.247 54.9606L718.134 53.1678C714.492 51.3666 710.624 49.5527 706.523 47.7286L705.71 49.556ZM732.24 63.0351C733.449 63.749 734.622 64.4599 735.76 65.1676L736.816 63.4694C735.665 62.7533 734.479 62.0345 733.257 61.313L732.24 63.0351ZM742.931 69.9079C746.699 72.5649 749.968 75.168 752.777 77.7074L754.118 76.2239C751.242 73.6233 747.908 70.9704 744.083 68.2733L742.931 69.9079ZM763.563 90.5293C764.276 91.7862 764.869 93.0161 765.349 94.2176L767.206 93.4761C766.691 92.1841 766.057 90.8722 765.302 89.5419L763.563 90.5293ZM766.954 102.194C766.917 106.316 765.444 110.057 762.829 113.348L764.395 114.592C767.253 110.996 768.912 106.833 768.954 102.212L766.954 102.194ZM749.434 122.883C748.173 123.424 746.86 123.926 745.502 124.387L746.145 126.281C747.55 125.804 748.911 125.284 750.223 124.721L749.434 122.883ZM737.37 126.546C733.371 127.341 729.139 127.822 724.79 127.959L724.853 129.958C729.308 129.818 733.648 129.325 737.76 128.508L737.37 126.546ZM707.944 126.769C706.561 126.527 705.181 126.249 703.807 125.934L703.359 127.883C704.768 128.207 706.183 128.492 707.6 128.739L707.944 126.769ZM695.697 123.596C691.72 122.203 687.861 120.465 684.21 118.36L683.211 120.093C686.977 122.264 690.95 124.053 695.036 125.484L695.697 123.596ZM671.015 108.041C670.532 107.531 670.057 107.011 669.592 106.48L668.088 107.799C668.571 108.35 669.063 108.889 669.564 109.417L671.015 108.041ZM669.774 106.783C669.524 106.128 669.31 105.48 669.133 104.841L667.206 105.376C667.401 106.078 667.634 106.785 667.906 107.496L669.774 106.783ZM668.712 97.1793C669.357 93.6334 671.213 90.2424 674.247 87.0012L672.787 85.6343C669.556 89.0861 667.473 92.8129 666.744 96.8213L668.712 97.1793ZM687.194 77.5537C688.387 76.9093 689.632 76.2743 690.928 75.6489L690.059 73.8475C688.737 74.4854 687.465 75.1343 686.243 75.7943L687.194 77.5537ZM698.368 72.3865C701.94 70.956 705.798 69.5826 709.924 68.2659L709.316 66.3606C705.151 67.6898 701.247 69.079 697.624 70.5298L698.368 72.3865ZM725.654 63.8315C726.988 63.498 728.342 63.1689 729.714 62.8444L729.254 60.898C727.873 61.2245 726.512 61.5556 725.169 61.8912L725.654 63.8315ZM737.659 61.06C741.559 60.2276 745.592 59.4279 749.75 58.6603L749.387 56.6936C745.213 57.4642 741.161 58.2675 737.241 59.104L737.659 61.06ZM765.974 55.922C767.34 55.7114 768.716 55.5038 770.103 55.2991L769.811 53.3205C768.42 53.5258 767.039 53.7341 765.669 53.9453L765.974 55.922ZM778.176 54.157C782.184 53.6136 786.271 53.0935 790.431 52.5966L790.193 50.6107C786.023 51.1088 781.926 51.6302 777.907 52.1752L778.176 54.157ZM806.783 50.7983C808.139 50.6614 809.501 50.5268 810.87 50.3943L810.677 48.4036C809.306 48.5363 807.941 48.6713 806.582 48.8084L806.783 50.7983ZM819.112 49.63C823.154 49.2711 827.247 48.9308 831.387 48.6088L831.232 46.6148C827.085 46.9373 822.985 47.2783 818.935 47.6379L819.112 49.63ZM847.797 47.4429C849.175 47.354 850.557 47.2669 851.943 47.1818L851.82 45.1856C850.432 45.2708 849.048 45.358 847.668 45.447L847.797 47.4429ZM860.108 46.7047C864.195 46.4781 868.314 46.2673 872.463 46.0724L872.369 44.0746C868.215 44.2698 864.09 44.4808 859.998 44.7078L860.108 46.7047ZM888.921 45.387C890.281 45.3374 891.644 45.2895 893.01 45.2431L892.942 43.2443C891.575 43.2907 890.21 43.3387 888.848 43.3883L888.921 45.387ZM901.233 44.9843C905.328 44.8654 909.443 44.7607 913.575 44.6701L913.531 42.6706C909.394 42.7613 905.274 42.8661 901.175 42.9851L901.233 44.9843ZM930.042 44.3839C931.41 44.3663 932.779 44.3501 934.151 44.3355L934.129 42.3356C932.757 42.3503 931.385 42.3664 930.016 42.3841L930.042 44.3839ZM942.392 44.2652C946.496 44.2391 950.609 44.226 954.731 44.226L954.731 42.226C950.605 42.226 946.487 42.2391 942.379 42.2652L942.392 44.2652ZM971.197 44.294C972.568 44.3054 973.94 44.3181 975.312 44.3322L975.332 42.3323C973.959 42.3182 972.586 42.3054 971.213 42.2941L971.197 44.294ZM983.546 44.4337C987.661 44.4927 991.776 44.5643 995.89 44.6481L995.931 42.6486C991.813 42.5646 987.693 42.493 983.574 42.4339L983.546 44.4337ZM1012.35 45.0499C1013.72 45.0888 1015.09 45.1291 1016.46 45.1708L1016.52 43.1717C1015.15 43.13 1013.78 43.0897 1012.41 43.0507L1012.35 45.0499ZM1024.69 45.4376C1028.81 45.5796 1032.92 45.7338 1037.03 45.9001L1037.11 43.9018C1033 43.7353 1028.88 43.5809 1024.76 43.4388L1024.69 45.4376ZM1053.48 46.6348C1054.85 46.7016 1056.21 46.7696 1057.58 46.8391L1057.68 44.8416C1056.31 44.7722 1054.95 44.704 1053.58 44.6372L1053.48 46.6348ZM1065.81 47.2757C1069.93 47.5029 1074.03 47.7422 1078.11 47.9937L1078.23 45.9975C1074.15 45.7458 1070.05 45.5061 1065.92 45.2788L1065.81 47.2757ZM1094.55 49.0813C1095.22 49.1293 1095.9 49.1778 1096.58 49.2265L1096.72 47.2316C1096.05 47.1828 1095.37 47.1344 1094.69 47.0863L1094.55 49.0813ZM1096.55 49.2237L1098.5 49.4262L1098.7 47.4369L1096.76 47.2344L1096.55 49.2237ZM1106.28 50.2361L1117.96 51.4509L1118.17 49.4616L1106.49 48.2468L1106.28 50.2361ZM1133.53 53.0706L1137.42 53.4756L1137.63 51.4863L1133.74 51.0814L1133.53 53.0706ZM1145.21 54.2855L1156.89 55.5003L1157.09 53.511L1145.42 52.2962L1145.21 54.2855ZM1172.46 57.12L1176.35 57.525L1176.56 55.5357L1172.67 55.1308L1172.46 57.12ZM1184.14 58.3349L1195.81 59.5497L1196.02 57.5604L1184.34 56.3456L1184.14 58.3349ZM1211.39 61.1695L1215.28 61.5744L1215.49 59.5851L1211.59 59.1802L1211.39 61.1695ZM1223.06 62.3843L1234.74 63.5991L1234.95 61.6098L1223.27 60.395L1223.06 62.3843ZM1250.31 65.2189L1254.21 65.6238L1254.41 63.6345L1250.52 63.2296L1250.31 65.2189ZM1261.99 66.4337L1273.67 67.6485L1273.88 65.6592L1262.2 64.4444L1261.99 66.4337ZM1289.24 69.2683L1293.13 69.6732L1293.34 67.6839L1289.45 67.279L1289.24 69.2683ZM1300.92 70.4831L1312.6 71.6979L1312.8 69.7086L1301.13 68.4938L1300.92 70.4831ZM1328.17 73.3177L1332.06 73.7226L1332.27 71.7334L1328.37 71.3284L1328.17 73.3177ZM1339.85 74.5325L1351.52 75.7473L1351.73 73.7581L1340.05 72.5432L1339.85 74.5325ZM1367.1 77.3671L1370.99 77.772L1371.19 75.7828L1367.3 75.3778L1367.1 77.3671ZM1378.77 78.5819L1390.45 79.7967L1390.66 77.8075L1378.98 76.5926L1378.77 78.5819ZM1406.02 81.4165L1409.92 81.8214L1410.12 79.8322L1406.23 79.4272L1406.02 81.4165ZM1417.7 82.6313L1429.38 83.8461L1429.59 81.8569L1417.91 80.6421L1417.7 82.6313ZM1444.95 85.4659L1446.9 85.6684L1447.1 83.6791L1445.16 83.4766L1444.95 85.4659Z" fill="#FBFBFD"/>
</svg>
