<svg width="32" height="32" viewBox="0 0 32 32" fill="none" xmlns="http://www.w3.org/2000/svg">
<path d="M30.9126 4.86398V25.152C30.9126 25.856 30.3366 26.432 29.6326 26.432H1.92062C1.21662 26.432 0.640625 25.856 0.640625 25.152V4.86398C0.640625 4.15998 1.21662 3.58398 1.92062 3.58398H29.6326C30.3366 3.58398 30.9126 4.15998 30.9126 4.86398Z" fill="#FCDAE0"/>
<path d="M19.5833 24.704C19.4553 24 19.0073 23.808 19.0073 23.808L17.6633 22.912C16.7033 22.272 13.5673 20.416 13.5673 20.416C12.7993 21.952 12.1593 22.08 11.4553 22.336C10.3033 21.952 9.53529 21.376 9.34329 20.416C9.34329 20.416 6.20729 22.272 5.24729 22.912L3.90329 23.808C3.90329 23.808 3.58329 24 3.39129 24.512L2.87929 27.648C2.81529 28.032 3.13529 28.416 3.51929 28.416H11.5193H19.5193C19.9033 28.416 20.2233 28.096 20.1593 27.648L19.5833 24.704Z" fill="#444445"/>
<path d="M19.4553 28.416H3.51929C3.13529 28.416 2.81529 28.032 2.87929 27.648L3.39129 24.512C3.58329 23.936 3.90329 23.808 3.90329 23.808L5.24729 22.912C6.20729 22.272 9.34329 20.416 9.34329 20.416C9.53529 21.312 10.3033 21.952 11.4553 22.336C12.1593 22.08 12.8633 21.952 13.5673 20.416C13.5673 20.416 16.7033 22.272 17.6633 22.912L19.0073 23.808C19.0073 23.808 19.3913 24 19.5833 24.704L20.0313 27.712C20.1593 28.032 19.8393 28.416 19.4553 28.416Z" fill="#C7C7C7"/>
<path d="M12.033 24.064H10.881L10.625 28.416H12.353L12.033 24.064Z" fill="#E9715F"/>
<path d="M13.3745 19.7121L9.66253 19.3281L8.89453 21.8241L11.4545 22.3361L14.0145 21.8241L13.3745 19.7121Z" fill="#F5B948"/>
<path d="M13.569 20.416C13.569 20.416 12.673 21.76 11.457 22.336C11.457 22.336 12.481 22.592 13.889 23.744C13.889 23.744 14.913 21.952 13.569 20.416Z" fill="#FCDAE0"/>
<path d="M20.0953 27.648C20.1593 28.032 19.8393 28.416 19.4553 28.416H12.0313L13.8873 23.744C13.8873 23.744 14.9113 21.952 13.5673 20.416C13.7593 20.544 16.7673 22.336 17.6633 22.912L19.0073 23.808C19.0073 23.808 19.4553 24 19.5833 24.704L20.0953 27.648ZM10.8793 28.416H3.51929C3.13529 28.416 2.81529 28.032 2.87929 27.648L3.32729 24.704C3.45529 24 3.90329 23.808 3.90329 23.808L5.24729 22.912C6.14329 22.336 9.15129 20.544 9.34329 20.416C7.99929 21.952 9.02329 23.744 9.02329 23.744L10.8793 28.416Z" fill="#444445"/>
<path d="M9.34564 20.416C9.34564 20.416 10.2416 21.76 11.4576 22.336C11.4576 22.336 10.4336 22.592 9.02564 23.744C9.02564 23.744 8.00164 21.952 9.34564 20.416Z" fill="#FCDAE0"/>
<path d="M14.144 15.0402L14.08 16.8962L13.888 18.3042C13.888 18.3042 13.376 21.0562 11.584 21.1202H11.52C9.21603 20.9922 9.02403 16.9602 9.02403 16.8962L8.83203 15.8722V14.7842C8.83203 14.7842 9.60003 13.6322 9.66403 13.6962C9.79203 13.7602 11.456 12.9282 11.456 12.9282L13.76 13.5682L14.144 15.0402Z" fill="#FFCA67"/>
<path d="M8.96037 16.8962C8.96037 16.8962 8.64037 16.5122 8.38437 16.7042C8.38437 16.7042 8.12837 16.9602 8.51237 17.7282C8.51237 17.7282 8.83237 19.0082 9.15237 18.5602L9.21637 17.4721L8.96037 16.8962ZM14.0804 16.8962C14.0804 16.8962 14.4004 16.5122 14.6564 16.7042C14.6564 16.7042 14.9124 16.9602 14.5284 17.7282C14.5284 17.7282 14.2084 19.0082 13.8884 18.5602L13.8244 17.4721L14.0804 16.8962Z" fill="#FFCA67"/>
<path d="M14.2716 17.6638C14.2716 17.5998 14.2076 17.5998 14.2076 17.5358C14.2076 17.4718 14.2076 17.4718 14.2076 17.4078C14.2076 17.3438 14.2076 17.2798 14.1436 17.2798C14.0796 17.2798 14.0156 17.3438 14.0156 17.3438V17.4078C13.8876 17.5358 13.8236 17.7278 13.7596 17.8558C13.7596 17.9198 13.7596 17.9198 13.6956 17.9838C13.6956 18.0478 13.6956 18.0478 13.7596 18.1118C13.8236 18.1118 13.8236 18.1758 13.8876 18.1118C13.9516 18.1118 13.9516 18.0478 14.0156 18.0478C14.0796 17.9838 14.2076 17.9198 14.2716 17.8558L14.3356 17.7918C14.3356 17.7278 14.3356 17.7278 14.2716 17.6638ZM8.83158 17.5358C8.83158 17.4718 8.76758 17.2798 8.89558 17.2798C8.95958 17.2798 9.21558 17.7918 9.27958 17.8558C9.34358 18.0478 9.21558 18.1758 9.02358 18.0478C8.51158 17.6638 8.76758 17.8558 8.83158 17.5358Z" fill="#F5B948"/>
<path d="M14.0787 14.1442C14.0787 14.1442 14.9747 12.9922 13.2467 12.3522V12.6722C13.2467 12.6722 12.8627 12.0322 11.5187 12.0322L11.6467 12.2882C11.6467 12.2882 10.5587 11.7762 9.27869 12.9282C9.27869 12.9282 8.51069 13.2482 8.70269 14.5922C8.70269 14.5922 8.57469 16.1282 9.02269 16.9602C9.02269 16.9602 8.70269 14.1442 9.98269 14.0162C9.98269 14.0162 11.3267 14.1442 11.6467 13.8882C11.6467 13.8882 12.0947 13.7602 12.2227 14.0162C12.2227 14.0162 12.8627 14.2082 13.0547 13.9522C13.0547 13.9522 14.2067 13.9522 14.1427 17.0242C14.0787 16.8962 14.7827 14.9122 14.0787 14.1442Z" fill="#444445"/>
<path d="M18.5581 23.4878C18.4941 24.7678 17.9181 27.1358 17.3421 28.4158C17.4061 27.5838 17.5981 26.7518 17.7901 25.9198C17.9821 25.0878 18.1741 24.2558 18.5581 23.4878ZM4.41406 23.4878C4.47806 24.3198 4.67006 25.1518 4.86206 25.9838C5.05406 26.8158 5.31006 27.5838 5.63006 28.4158C5.56606 27.5838 5.37406 26.7518 5.18206 25.9198C4.92606 25.0878 4.73406 24.2558 4.41406 23.4878Z" fill="#221F1F"/>
<path d="M12.5432 22.7839L12.0312 24.0639H10.8792L10.3672 22.7839L11.4552 22.3359L12.5432 22.7839Z" fill="#D75548"/>
<path d="M21.4398 7.29639H19.8398V13.8244H21.4398V7.29639Z" fill="#E9715F"/>
<path d="M24.1273 4.99219H22.5273V13.7602H24.1273V4.99219Z" fill="#83BD57"/>
<path d="M26.7523 10.4961H25.1523V13.7601H26.7523V10.4961Z" fill="#9A7EAA"/>
<path d="M28.5447 15.7443H17.4727V6.65625H18.1127V15.1042H28.5447V15.7443Z" fill="#C7C7C7"/>
<path d="M27.5853 24.0642C26.2413 25.4082 24.1293 25.4082 22.7853 24.0642C21.4413 22.7202 21.4413 20.6082 22.7853 19.2642L25.1533 21.6962L27.5853 19.2642C28.8653 20.6082 28.8653 22.7202 27.5853 24.0642Z" fill="#59B1E3"/>
<path d="M27.5867 18.4963L25.1547 20.9283L22.7227 18.4963C24.0667 17.1523 26.2427 17.1523 27.5867 18.4963Z" fill="#9A7EAA"/>
</svg>
