<svg width="32" height="32" viewBox="0 0 32 32" fill="none" xmlns="http://www.w3.org/2000/svg">
<path d="M24.5533 19.7526L19.1476 16.6316C18.9001 16.4887 18.6763 16.4752 18.5148 16.5692L15.5742 18.278C15.7357 18.1842 15.9595 18.1976 16.207 18.3404L21.6127 21.4614C22.1028 21.7444 22.4998 22.4304 22.4982 22.9936L25.4388 21.2847C25.4404 20.7215 25.0434 20.0356 24.5533 19.7526Z" fill="#E3E7F0"/>
<path d="M21.6134 21.4615C22.1035 21.7445 22.5005 22.4305 22.4989 22.9937L15.3164 18.8469C15.318 18.2837 15.7162 18.0568 16.2077 18.3406L21.6134 21.4615Z" fill="#B4BED7"/>
<path d="M22.0671 15.8047L22.0524 20.2284L18.9023 18.4095L18.9164 13.9858L22.0671 15.8047Z" fill="#B4BED7"/>
<path d="M22.6421 15.4739L22.6248 19.8963L22.0533 20.2272L22.07 15.8048L18.918 13.9879L19.4901 13.6519L22.6421 15.4739Z" fill="#9DA9C1"/>
<path d="M12.8977 11.5093L12.8945 12.6238C12.8935 12.9921 13.1525 13.4434 13.4753 13.6296L28.4786 22.292C28.7988 22.4767 29.0621 22.3268 29.0632 21.9591L29.0663 20.844L12.8977 11.5093Z" fill="#D3DBEA"/>
<path d="M20.774 16.5088C20.9839 16.63 21.1516 16.9232 21.151 17.1618C21.1503 17.4029 20.9814 17.4993 20.7715 17.3781C20.5638 17.2582 20.3938 16.9662 20.3945 16.7251C20.3952 16.4865 20.5663 16.3889 20.774 16.5088Z" fill="#9DA9C1"/>
<path d="M29.0663 20.8438L29.0631 21.9599C29.0631 22.1409 28.9973 22.2683 28.8945 22.3298L29.5504 21.9476C29.6532 21.8903 29.719 21.7586 29.719 21.5777L29.7222 20.4653L29.0663 20.8438Z" fill="#B4BED7"/>
<path d="M29.095 10.7723L29.0691 20.8452L12.9023 11.5099L12.9218 1.43733C12.9282 1.06837 13.187 0.913275 13.5105 1.10091L28.5128 9.76339C28.8298 9.95072 29.095 10.4037 29.095 10.7723Z" fill="#373F51"/>
<path d="M13.418 11.8095L13.4366 1.64795L28.2519 10.2119C28.4098 10.3052 28.5753 10.5895 28.5753 10.7726L28.5516 20.5611L13.418 11.8095Z" fill="#7BB1FF"/>
<path d="M29.7458 10.3909V11.1219L29.7199 20.4635L29.0665 20.8454L29.0859 11.4971L29.0924 10.7725C29.0924 10.4039 28.8336 9.95088 28.5101 9.76356L13.5078 1.10107C13.3461 1.01042 13.1973 0.997465 13.0938 1.06222L13.7536 0.680633C13.8572 0.615877 13.9995 0.628825 14.1677 0.719173L29.17 9.38166C29.487 9.56929 29.7522 10.0223 29.7458 10.3909Z" fill="#4C5671"/>
<path d="M20.4012 7.68337C21.0498 8.05784 21.6206 8.77005 21.9522 9.54117C22.1365 9.53065 22.347 9.58514 22.5715 9.71475C23.279 10.1233 23.8519 11.1147 23.8496 11.9285C23.8494 11.9775 23.8472 12.0253 23.8428 12.0702C24.6053 12.3671 25.3218 13.4627 25.3192 14.3804C25.3169 15.1935 24.741 15.5216 24.0327 15.1127C23.7158 14.9298 23.4257 14.629 23.2018 14.2798C22.7869 14.5499 22.2442 14.304 21.8585 13.9899C20.9999 14.7345 19.5865 13.3332 19.1698 12.095C19.0368 12.0713 18.8946 12.0187 18.7462 11.933C18.0379 11.5241 17.4664 10.5335 17.4688 9.7196C17.4708 8.99146 17.9322 8.65195 18.5378 8.88381C18.5351 8.8381 18.5338 8.79322 18.5339 8.74831C18.5372 7.56711 19.3733 7.08988 20.4012 7.68337Z" fill="white"/>
<path d="M27.3472 27.3242L27.3459 27.9015L21.3945 31.3601L21.3958 30.7828L27.3472 27.3242Z" fill="#9DA9C1"/>
<path d="M21.3963 30.7825L21.395 31.3598L2.25391 20.3082L2.25519 19.731L21.3963 30.7825Z" fill="#9DA9C1"/>
<path d="M27.3464 27.324L21.395 30.7825L2.25391 19.731L8.20527 16.2725L27.3464 27.324Z" fill="#B4BED7"/>
<path d="M8.62835 17.416L8.62771 17.6311L8.10547 17.9344L8.10611 17.7194L8.62835 17.416Z" fill="#D3DBEA"/>
<path d="M8.10736 17.7194L8.10672 17.9345L7.16016 17.3879L7.1608 17.1729L8.10736 17.7194Z" fill="#D3DBEA"/>
<path d="M8.62896 17.4162L8.10672 17.7195L7.16016 17.173L7.68176 16.8696L8.62896 17.4162Z" fill="white"/>
<path d="M9.90179 18.1489L9.90115 18.3646L9.37891 18.668L9.37955 18.4523L9.90179 18.1489Z" fill="#D3DBEA"/>
<path d="M9.38079 18.4523L9.38015 18.668L8.43359 18.1208L8.43423 17.9058L9.38079 18.4523Z" fill="#D3DBEA"/>
<path d="M9.90239 18.1491L9.38015 18.4525L8.43359 17.9059L8.95519 17.6025L9.90239 18.1491Z" fill="white"/>
<path d="M11.1707 18.8823L11.17 19.0974L10.6484 19.4007L10.6491 19.1857L11.1707 18.8823Z" fill="#D3DBEA"/>
<path d="M10.6478 19.1854L10.6471 19.4005L9.70312 18.8558L9.70377 18.6401L10.6478 19.1854Z" fill="#D3DBEA"/>
<path d="M11.1687 18.8822L10.6471 19.1856L9.70312 18.6403L10.2247 18.3369L11.1687 18.8822Z" fill="white"/>
<path d="M12.4408 19.6167L12.4402 19.8317L11.918 20.1351L11.9186 19.9201L12.4408 19.6167Z" fill="#D3DBEA"/>
<path d="M11.9199 19.9201L11.9192 20.1351L10.9727 19.5886L10.9733 19.3735L11.9199 19.9201Z" fill="#D3DBEA"/>
<path d="M12.4415 19.6169L11.9192 19.9202L10.9727 19.3737L11.4943 19.0703L12.4415 19.6169Z" fill="white"/>
<path d="M13.7143 20.3506L13.7136 20.5656L13.1914 20.869L13.192 20.6539L13.7143 20.3506Z" fill="#D3DBEA"/>
<path d="M13.1933 20.6541L13.1927 20.8692L12.2461 20.3226L12.2467 20.1069L13.1933 20.6541Z" fill="#D3DBEA"/>
<path d="M13.7149 20.3508L13.1927 20.6541L12.2461 20.1069L12.7677 19.8042L13.7149 20.3508Z" fill="white"/>
<path d="M14.9832 21.083L14.9825 21.2987L14.4609 21.6014L14.4616 21.3864L14.9832 21.083Z" fill="#D3DBEA"/>
<path d="M14.4603 21.3864L14.4596 21.6015L13.5156 21.0568L13.5163 20.8418L14.4603 21.3864Z" fill="#D3DBEA"/>
<path d="M14.9812 21.0832L14.4596 21.3866L13.5156 20.8419L14.0372 20.5386L14.9812 21.0832Z" fill="white"/>
<path d="M16.2533 21.8179L16.2527 22.0336L15.7305 22.3369L15.7311 22.1212L16.2533 21.8179Z" fill="#D3DBEA"/>
<path d="M15.7324 22.1213L15.7317 22.3369L14.7852 21.7897L14.7858 21.5747L15.7324 22.1213Z" fill="#D3DBEA"/>
<path d="M16.254 21.818L15.7317 22.1214L14.7852 21.5748L15.3068 21.2715L16.254 21.818Z" fill="white"/>
<path d="M17.5268 22.5513L17.5261 22.7663L17.0039 23.0697L17.0045 22.8546L17.5268 22.5513Z" fill="#D3DBEA"/>
<path d="M17.0058 22.8547L17.0052 23.0697L16.0586 22.5231L16.0592 22.3081L17.0058 22.8547Z" fill="#D3DBEA"/>
<path d="M17.5274 22.5514L17.0052 22.8548L16.0586 22.3082L16.5802 22.0049L17.5274 22.5514Z" fill="white"/>
<path d="M18.7957 23.2852L18.795 23.5002L18.2734 23.8036L18.2741 23.5879L18.7957 23.2852Z" fill="#D3DBEA"/>
<path d="M18.2728 23.5876L18.2721 23.8033L17.3281 23.258L17.3288 23.043L18.2728 23.5876Z" fill="#D3DBEA"/>
<path d="M18.7937 23.285L18.2721 23.5877L17.3281 23.0431L17.8497 22.7397L18.7937 23.285Z" fill="white"/>
<path d="M22.2761 25.2944L22.2755 25.5095L21.7539 25.8128L21.7545 25.5978L22.2761 25.2944Z" fill="#D3DBEA"/>
<path d="M21.7564 25.5978L21.7558 25.8129L20.8086 25.2663L20.8092 25.0513L21.7564 25.5978Z" fill="#D3DBEA"/>
<path d="M22.2774 25.2946L21.7558 25.598L20.8086 25.0514L21.3308 24.748L22.2774 25.2946Z" fill="white"/>
<path d="M23.5457 26.0273L23.545 26.243L23.0234 26.5464L23.0241 26.3307L23.5457 26.0273Z" fill="#D3DBEA"/>
<path d="M23.0253 26.3307L23.0247 26.5464L22.0781 25.9992V25.7842L23.0253 26.3307Z" fill="#D3DBEA"/>
<path d="M23.5469 26.0275L23.0253 26.3309L22.0781 25.7843L22.6004 25.481L23.5469 26.0275Z" fill="white"/>
<path d="M24.8191 26.7607L24.8185 26.9758L24.2969 27.2791L24.2975 27.0641L24.8191 26.7607Z" fill="#D3DBEA"/>
<path d="M24.2962 27.0638L24.2956 27.2789L23.3516 26.7342L23.3522 26.5186L24.2962 27.0638Z" fill="#D3DBEA"/>
<path d="M24.8172 26.7606L24.2956 27.064L23.3516 26.5187L23.8732 26.2153L24.8172 26.7606Z" fill="white"/>
<path d="M26.0886 27.4951L26.088 27.7102L25.5664 28.0135L25.567 27.7985L26.0886 27.4951Z" fill="#D3DBEA"/>
<path d="M25.5689 27.7985L25.5683 28.0136L24.6211 27.467L24.6217 27.252L25.5689 27.7985Z" fill="#D3DBEA"/>
<path d="M26.0899 27.4953L25.5683 27.7986L24.6211 27.2521L25.1433 26.9487L26.0899 27.4953Z" fill="white"/>
<path d="M21.5371 25.7227L21.5365 25.9377L20.707 26.4196L20.7077 26.2046L21.5371 25.7227Z" fill="#D3DBEA"/>
<path d="M20.7089 26.2048L20.7083 26.4198L19.7617 25.8732L19.7624 25.6582L20.7089 26.2048Z" fill="#D3DBEA"/>
<path d="M21.5377 25.7228L20.7083 26.2047L19.7617 25.6582L20.5905 25.1763L21.5377 25.7228Z" fill="white"/>
<path d="M22.8099 26.4565L22.8093 26.6716L21.9805 27.1535L21.9811 26.9378L22.8099 26.4565Z" fill="#D3DBEA"/>
<path d="M21.983 26.9377L21.9824 27.1534L21.0352 26.6062L21.0358 26.3911L21.983 26.9377Z" fill="#D3DBEA"/>
<path d="M22.8112 26.4564L21.9824 26.9377L21.0352 26.3911L21.864 25.9092L22.8112 26.4564Z" fill="white"/>
<path d="M24.0794 27.189L24.0788 27.404L23.25 27.8859L23.2506 27.6709L24.0794 27.189Z" fill="#D3DBEA"/>
<path d="M23.2493 27.6713L23.2487 27.8863L22.3047 27.3417L22.3053 27.126L23.2493 27.6713Z" fill="#D3DBEA"/>
<path d="M24.0775 27.1892L23.2487 27.6711L22.3047 27.1258L23.1335 26.6445L24.0775 27.1892Z" fill="white"/>
<path d="M25.3496 27.9233L25.349 28.139L24.5195 28.6203L24.5202 28.4053L25.3496 27.9233Z" fill="#D3DBEA"/>
<path d="M24.5214 28.4054L24.5208 28.6205L23.5742 28.0739L23.5749 27.8589L24.5214 28.4054Z" fill="#D3DBEA"/>
<path d="M25.3502 27.9235L24.5208 28.4054L23.5742 27.8589L24.403 27.377L25.3502 27.9235Z" fill="white"/>
<path d="M20.4967 26.3291L20.4961 26.5441L19.6641 27.0273L19.6647 26.8123L20.4967 26.3291Z" fill="#D3DBEA"/>
<path d="M19.666 26.8127L19.6653 27.0277L18.7188 26.4812L18.7194 26.2661L19.666 26.8127Z" fill="#D3DBEA"/>
<path d="M20.4973 26.3293L19.6653 26.8125L18.7188 26.2659L19.5501 25.7827L20.4973 26.3293Z" fill="white"/>
<path d="M21.7662 27.062L21.7656 27.2777L20.9336 27.7609L20.9342 27.5459L21.7662 27.062Z" fill="#D3DBEA"/>
<path d="M20.9355 27.5461L20.9348 27.7611L19.9883 27.2146L19.9889 26.9995L20.9355 27.5461Z" fill="#D3DBEA"/>
<path d="M21.7668 27.0622L20.9348 27.546L19.9883 26.9995L20.8196 26.5156L21.7668 27.0622Z" fill="white"/>
<path d="M23.0358 27.7959L23.0351 28.0109L22.2031 28.4948L22.2038 28.2791L23.0358 27.7959Z" fill="#D3DBEA"/>
<path d="M22.2025 28.279L22.2018 28.4947L21.2578 27.9494L21.2585 27.7344L22.2025 28.279Z" fill="#D3DBEA"/>
<path d="M23.0338 27.7958L22.2018 28.279L21.2578 27.7343L22.0898 27.2505L23.0338 27.7958Z" fill="white"/>
<path d="M24.3092 28.5303L24.3086 28.7453L23.4766 29.2292L23.4772 29.0135L24.3092 28.5303Z" fill="#D3DBEA"/>
<path d="M23.4784 29.0138L23.4778 29.2295L22.5312 28.683L22.5319 28.4673L23.4784 29.0138Z" fill="#D3DBEA"/>
<path d="M24.3098 28.5304L23.4778 29.0136L22.5312 28.4671L23.3626 27.9839L24.3098 28.5304Z" fill="white"/>
<path d="M19.4466 26.937L19.446 27.1527L18.6172 27.634L18.6178 27.4189L19.4466 26.937Z" fill="#D3DBEA"/>
<path d="M18.6197 27.4191L18.6191 27.6342L17.6719 27.0876L17.6725 26.8726L18.6197 27.4191Z" fill="#D3DBEA"/>
<path d="M19.4479 26.9372L18.6191 27.4191L17.6719 26.8725L18.5013 26.3906L19.4479 26.9372Z" fill="white"/>
<path d="M20.7162 27.6709L20.7155 27.8859L19.8867 28.3679L19.8874 28.1528L20.7162 27.6709Z" fill="#D3DBEA"/>
<path d="M19.8886 28.153L19.888 28.368L18.9414 27.8215L18.942 27.6064L19.8886 28.153Z" fill="#D3DBEA"/>
<path d="M20.7168 27.6711L19.888 28.153L18.9414 27.6064L19.7702 27.1245L20.7168 27.6711Z" fill="white"/>
<path d="M21.9902 28.4033L21.9896 28.619L21.1602 29.1009L21.1608 28.8852L21.9902 28.4033Z" fill="#D3DBEA"/>
<path d="M21.1595 28.8855L21.1588 29.1011L20.2148 28.5559L20.2155 28.3408L21.1595 28.8855Z" fill="#D3DBEA"/>
<path d="M21.9883 28.4035L21.1588 28.8854L20.2148 28.3408L21.0443 27.8589L21.9883 28.4035Z" fill="white"/>
<path d="M19.6725 28.2773L19.6718 28.4924L18.8398 28.9756L18.8405 28.7605L19.6725 28.2773Z" fill="#D3DBEA"/>
<path d="M18.842 28.761L18.8413 28.976L16.625 27.6966L16.6256 27.481L18.842 28.761Z" fill="#D3DBEA"/>
<path d="M19.6733 28.2776L18.8413 28.7608L16.625 27.4808L17.457 26.9976L19.6733 28.2776Z" fill="white"/>
<path d="M20.9453 29.0103L20.9446 29.2259L20.1133 29.7091L20.1139 29.4941L20.9453 29.0103Z" fill="#D3DBEA"/>
<path d="M20.1126 29.4945L20.112 29.7095L19.168 29.1643L19.1686 28.9492L20.1126 29.4945Z" fill="#D3DBEA"/>
<path d="M20.9433 29.0105L20.112 29.4943L19.168 28.949L19.9993 28.4658L20.9433 29.0105Z" fill="white"/>
<path d="M20.0658 24.0195L20.0652 24.2346L19.543 24.5379L19.5436 24.3229L20.0658 24.0195Z" fill="#D3DBEA"/>
<path d="M19.5449 24.3231L19.5442 24.5381L18.5977 23.9916L18.5983 23.7759L19.5449 24.3231Z" fill="#D3DBEA"/>
<path d="M20.0665 24.0197L19.5442 24.3231L18.5977 23.7759L19.1193 23.4731L20.0665 24.0197Z" fill="white"/>
<path d="M8.36524 18.1172L8.3646 18.3322L7.53516 18.8141L7.5358 18.5985L8.36524 18.1172Z" fill="#D3DBEA"/>
<path d="M7.53607 18.5983L7.53543 18.814L6.11719 17.9948L6.11783 17.7798L7.53607 18.5983Z" fill="#D3DBEA"/>
<path d="M8.36487 18.1171L7.53543 18.5983L6.11719 17.7798L6.94599 17.2979L8.36487 18.1171Z" fill="white"/>
<path d="M9.63803 18.8496L9.63739 19.0653L8.80859 19.5466L8.80923 19.3315L9.63803 18.8496Z" fill="#D3DBEA"/>
<path d="M8.80792 19.3319L8.80728 19.5469L7.86328 19.0023L7.86392 18.7866L8.80792 19.3319Z" fill="#D3DBEA"/>
<path d="M9.63608 18.8498L8.80728 19.3317L7.86328 18.7865L8.69208 18.3052L9.63608 18.8498Z" fill="white"/>
<path d="M10.9076 19.5845V19.8002L10.0781 20.2814L10.0788 20.0664L10.9076 19.5845Z" fill="#D3DBEA"/>
<path d="M10.08 20.0666L10.0794 20.2816L9.13281 19.7351L9.13345 19.52L10.08 20.0666Z" fill="#D3DBEA"/>
<path d="M10.9082 19.5846L10.0794 20.0666L9.13281 19.52L9.96161 19.0381L10.9082 19.5846Z" fill="white"/>
<path d="M12.1777 20.3179L12.1771 20.5329L11.3477 21.0148L11.3483 20.7998L12.1777 20.3179Z" fill="#D3DBEA"/>
<path d="M11.3495 20.8L11.3489 21.015L10.4023 20.4685L10.403 20.2534L11.3495 20.8Z" fill="#D3DBEA"/>
<path d="M12.1783 20.318L11.3489 20.8L10.4023 20.2534L11.2311 19.7715L12.1783 20.318Z" fill="white"/>
<path d="M13.4505 21.0513L13.4499 21.2663L12.6211 21.7482L12.6217 21.5325L13.4505 21.0513Z" fill="#D3DBEA"/>
<path d="M12.6204 21.5324L12.6198 21.7481L11.6758 21.2028L11.6764 20.9878L12.6204 21.5324Z" fill="#D3DBEA"/>
<path d="M13.4486 21.0511L12.6198 21.5324L11.6758 20.9878L12.5046 20.5059L13.4486 21.0511Z" fill="white"/>
<path d="M14.7201 21.7856V22.0007L13.8906 22.4826L13.8913 22.2669L14.7201 21.7856Z" fill="#D3DBEA"/>
<path d="M13.8925 22.2673L13.8919 22.4829L12.9453 21.9364L12.946 21.7207L13.8925 22.2673Z" fill="#D3DBEA"/>
<path d="M14.7207 21.7858L13.8919 22.2671L12.9453 21.7205L13.7741 21.2393L14.7207 21.7858Z" fill="white"/>
<path d="M15.9896 22.5186L15.989 22.7342L15.1602 23.2155V23.0005L15.9896 22.5186Z" fill="#D3DBEA"/>
<path d="M15.162 23.0007V23.2157L14.2148 22.6691L14.2155 22.4541L15.162 23.0007Z" fill="#D3DBEA"/>
<path d="M15.9908 22.5187L15.1614 23.0006L14.2148 22.4541L15.0436 21.9722L15.9908 22.5187Z" fill="white"/>
<path d="M19.3333 24.4478L19.3327 24.6628L18.5039 25.1447L18.5045 24.9297L19.3333 24.4478Z" fill="#D3DBEA"/>
<path d="M18.5033 24.9298L18.5027 25.1448L15.4883 23.404L15.4889 23.189L18.5033 24.9298Z" fill="#D3DBEA"/>
<path d="M19.3315 24.4478L18.5027 24.9298L15.4883 23.189L16.3171 22.707L19.3315 24.4478Z" fill="white"/>
<path d="M8.12106 19.1836L8.12042 19.3993L7.28906 19.8825L7.2897 19.6674L8.12106 19.1836Z" fill="#D3DBEA"/>
<path d="M7.28791 19.6677L7.28727 19.8827L5.07031 18.6027L5.07095 18.3877L7.28791 19.6677Z" fill="#D3DBEA"/>
<path d="M8.11863 19.1837L7.28727 19.6675L5.07031 18.3875L5.90231 17.9043L8.11863 19.1837Z" fill="white"/>
<path d="M9.39123 19.9175L9.39059 20.1325L8.55859 20.6164L8.55923 20.4007L9.39123 19.9175Z" fill="#D3DBEA"/>
<path d="M8.55792 20.4006L8.55728 20.6163L7.61328 20.071L7.61392 19.856L8.55792 20.4006Z" fill="#D3DBEA"/>
<path d="M9.38928 19.9174L8.55728 20.4006L7.61328 19.8559L8.44528 19.3721L9.38928 19.9174Z" fill="white"/>
<path d="M10.6601 20.6519L10.6595 20.8669L9.82812 21.3507V21.1351L10.6601 20.6519Z" fill="#D3DBEA"/>
<path d="M9.83001 21.1354V21.3511L8.88281 20.8045L8.88345 20.5889L9.83001 21.1354Z" fill="#D3DBEA"/>
<path d="M10.6614 20.652L9.82937 21.1352L8.88281 20.5887L9.71481 20.1055L10.6614 20.652Z" fill="white"/>
<path d="M11.9297 21.3853L11.929 21.6003L11.0977 22.0835L11.0983 21.8685L11.9297 21.3853Z" fill="#D3DBEA"/>
<path d="M11.1002 21.8688L11.0995 22.0839L10.1523 21.5373L10.153 21.3223L11.1002 21.8688Z" fill="#D3DBEA"/>
<path d="M11.9309 21.3854L11.0995 21.8686L10.1523 21.3221L10.9843 20.8389L11.9309 21.3854Z" fill="white"/>
<path d="M13.2037 22.1182L13.2031 22.3338L12.3711 22.817L12.3717 22.602L13.2037 22.1182Z" fill="#D3DBEA"/>
<path d="M12.3704 22.6024L12.3698 22.8174L11.4258 22.2722L11.4264 22.0571L12.3704 22.6024Z" fill="#D3DBEA"/>
<path d="M13.2018 22.1184L12.3698 22.6022L11.4258 22.0569L12.2578 21.5737L13.2018 22.1184Z" fill="white"/>
<path d="M5.80274 19.0591L5.8021 19.2748L4.97266 19.756L4.9733 19.541L5.80274 19.0591Z" fill="#D3DBEA"/>
<path d="M4.97454 19.5412L4.9739 19.7562L4.02734 19.2097L4.02798 18.9946L4.97454 19.5412Z" fill="#D3DBEA"/>
<path d="M5.80334 19.0593L4.9739 19.5412L4.02734 18.9946L4.85614 18.5127L5.80334 19.0593Z" fill="white"/>
<path d="M7.07227 19.7925L7.07163 20.0075L6.24219 20.4894L6.24283 20.2744L7.07227 19.7925Z" fill="#D3DBEA"/>
<path d="M6.24408 20.2746L6.24344 20.4896L5.29688 19.9431L5.29752 19.728L6.24408 20.2746Z" fill="#D3DBEA"/>
<path d="M7.07287 19.7927L6.24344 20.2746L5.29688 19.728L6.12631 19.2461L7.07287 19.7927Z" fill="white"/>
<path d="M8.34506 20.5249L8.34443 20.7406L7.51562 21.2225L7.51626 21.0068L8.34506 20.5249Z" fill="#D3DBEA"/>
<path d="M7.51495 21.007L7.51431 21.2227L6.57031 20.6774L6.57095 20.4624L7.51495 21.007Z" fill="#D3DBEA"/>
<path d="M8.34311 20.5251L7.51431 21.007L6.57031 20.4624L7.39911 19.9805L8.34311 20.5251Z" fill="white"/>
<path d="M9.61524 21.2607L9.6146 21.4758L8.78516 21.9577L8.7858 21.742L9.61524 21.2607Z" fill="#D3DBEA"/>
<path d="M8.78704 21.7419L8.7864 21.9576L7.83984 21.411L7.84048 21.1953L8.78704 21.7419Z" fill="#D3DBEA"/>
<path d="M9.61584 21.2606L8.7864 21.7419L7.83984 21.1953L8.66864 20.7134L9.61584 21.2606Z" fill="white"/>
<path d="M10.8848 21.9932L10.8841 22.2082L10.0547 22.6901L10.0553 22.4751L10.8848 21.9932Z" fill="#D3DBEA"/>
<path d="M10.0566 22.4753L10.0559 22.6903L9.10938 22.1437L9.11001 21.9287L10.0566 22.4753Z" fill="#D3DBEA"/>
<path d="M10.8854 21.9933L10.0559 22.4753L9.10938 21.9287L9.93882 21.4468L10.8854 21.9933Z" fill="white"/>
<path d="M12.1576 22.7271L12.1569 22.9421L11.3281 23.424L11.3288 23.209L12.1576 22.7271Z" fill="#D3DBEA"/>
<path d="M11.3275 23.2089L11.3268 23.4239L10.3828 22.8786L10.3835 22.6636L11.3275 23.2089Z" fill="#D3DBEA"/>
<path d="M12.1556 22.7269L11.3268 23.2088L10.3828 22.6636L11.2116 22.1816L12.1556 22.7269Z" fill="white"/>
<path d="M14.4726 22.8525L14.472 23.0682L13.6406 23.5514V23.3364L14.4726 22.8525Z" fill="#D3DBEA"/>
<path d="M13.6425 23.3366V23.5516L12.6953 23.0051L12.696 22.79L13.6425 23.3366Z" fill="#D3DBEA"/>
<path d="M14.4739 22.8527L13.6419 23.3366L12.6953 22.79L13.5273 22.3062L14.4739 22.8527Z" fill="white"/>
<path d="M15.7422 23.5864L15.7415 23.8015L14.9102 24.2853L14.9108 24.0696L15.7422 23.5864Z" fill="#D3DBEA"/>
<path d="M14.9127 24.07L14.912 24.2857L13.9648 23.7385L13.9655 23.5234L14.9127 24.07Z" fill="#D3DBEA"/>
<path d="M15.7434 23.5866L14.912 24.0698L13.9648 23.5232L14.7968 23.04L15.7434 23.5866Z" fill="white"/>
<path d="M13.4277 23.4614L13.4271 23.6765L12.5977 24.1584L12.5983 23.9433L13.4277 23.4614Z" fill="#D3DBEA"/>
<path d="M12.5995 23.9435L12.5989 24.1586L11.6523 23.612L11.653 23.397L12.5995 23.9435Z" fill="#D3DBEA"/>
<path d="M13.4283 23.4616L12.5989 23.9435L11.6523 23.397L12.4811 22.915L13.4283 23.4616Z" fill="white"/>
<path d="M18.289 25.0542L18.2884 25.2692L17.457 25.7524V25.5374L18.289 25.0542Z" fill="#D3DBEA"/>
<path d="M17.4552 25.5378V25.7529L15.2383 24.4735L15.2389 24.2578L17.4552 25.5378Z" fill="#D3DBEA"/>
<path d="M18.2866 25.0544L17.4546 25.5376L15.2383 24.2576L16.0703 23.7744L18.2866 25.0544Z" fill="white"/>
<path d="M15.9701 24.9277L15.9694 25.1428L15.1406 25.6247L15.1413 25.4097L15.9701 24.9277Z" fill="#D3DBEA"/>
<path d="M15.14 25.4095L15.1393 25.6246L14.1953 25.0799L14.196 24.8643L15.14 25.4095Z" fill="#D3DBEA"/>
<path d="M15.9681 24.9276L15.1393 25.4095L14.1953 24.8642L15.0241 24.3823L15.9681 24.9276Z" fill="white"/>
<path d="M6.03186 20.3989L6.03122 20.614L5.19922 21.0972L5.19986 20.8821L6.03186 20.3989Z" fill="#D3DBEA"/>
<path d="M5.19807 20.8825L5.19743 21.0976L2.98047 19.8182L2.98111 19.6025L5.19807 20.8825Z" fill="#D3DBEA"/>
<path d="M6.02943 20.3991L5.19743 20.8823L2.98047 19.6023L3.81247 19.1191L6.02943 20.3991Z" fill="white"/>
<path d="M11.1686 23.3657L11.1679 23.5814L10.3359 24.0646L10.3366 23.8496L11.1686 23.3657Z" fill="#D3DBEA"/>
<path d="M10.3369 23.8497L10.3362 24.0647L5.52344 21.2858L5.52408 21.0708L10.3369 23.8497Z" fill="#D3DBEA"/>
<path d="M11.1682 23.3656L10.3362 23.8495L5.52344 21.0706L6.35544 20.5874L11.1682 23.3656Z" fill="white"/>
<path d="M12.3828 24.0684V24.2834L11.5508 24.7666L11.5514 24.5516L12.3828 24.0684Z" fill="#D3DBEA"/>
<path d="M11.5533 24.5519L11.5527 24.767L10.6055 24.2204L10.6061 24.0054L11.5533 24.5519Z" fill="#D3DBEA"/>
<path d="M12.384 24.0685L11.5527 24.5517L10.6055 24.0052L11.4375 23.522L12.384 24.0685Z" fill="white"/>
<path d="M13.653 24.8008L13.6523 25.0165L12.8203 25.4997L12.821 25.2846L13.653 24.8008Z" fill="#D3DBEA"/>
<path d="M12.8222 25.2848L12.8216 25.4999L11.875 24.9533L11.8756 24.7383L12.8222 25.2848Z" fill="#D3DBEA"/>
<path d="M13.6536 24.801L12.8216 25.2848L11.875 24.7382L12.7064 24.2544L13.6536 24.801Z" fill="white"/>
<path d="M14.9264 25.5347L14.9257 25.7497L14.0938 26.2335L14.0944 26.0179L14.9264 25.5347Z" fill="#D3DBEA"/>
<path d="M14.0931 26.0178L14.0924 26.2335L13.1484 25.6882L13.1491 25.4731L14.0931 26.0178Z" fill="#D3DBEA"/>
<path d="M14.9244 25.5345L14.0924 26.0177L13.1484 25.4731L13.9804 24.9893L14.9244 25.5345Z" fill="white"/>
<path d="M16.1953 26.269V26.4841L15.3633 26.9679L15.3639 26.7522L16.1953 26.269Z" fill="#D3DBEA"/>
<path d="M15.3658 26.7526L15.3652 26.9683L14.418 26.4217L14.4186 26.2061L15.3658 26.7526Z" fill="#D3DBEA"/>
<path d="M16.1965 26.2692L15.3652 26.7524L14.418 26.2059L15.25 25.7227L16.1965 26.2692Z" fill="white"/>
<path d="M23.2593 29.1392L23.2587 29.3542L21.3828 30.4441L21.3835 30.2291L23.2593 29.1392Z" fill="#D3DBEA"/>
<path d="M21.3847 30.2287L21.3841 30.4437L20.4375 29.8972L20.4381 29.6821L21.3847 30.2287Z" fill="#D3DBEA"/>
<path d="M23.2599 29.139L21.3841 30.2289L20.4375 29.6824L22.3133 28.5918L23.2599 29.139Z" fill="white"/>
</svg>
