<svg width="25" height="25" viewBox="0 0 25 25" fill="none" xmlns="http://www.w3.org/2000/svg">
<g clip-path="url(#clip0_2107_6084)">
<path d="M16 4.41889C15.0131 3.98819 13.9136 3.88757 12.8649 4.13201C11.8163 4.37645 10.8746 4.95289 10.1798 5.77557C9.48514 6.59825 9.07457 7.62322 9.00922 8.698C8.94387 9.77278 9.22722 10.8399 9.81713 11.7407C10.407 12.6415 11.272 13.3278 12.2833 13.6975C13.2946 14.0672 14.3982 14.1006 15.43 13.7926C16.4618 13.4846 17.3666 12.8518 18.0098 11.9883C18.6531 11.1248 19.0003 10.0767 19 8.99989C19.0024 8.02667 18.7196 7.07406 18.1864 6.25989C17.6532 5.44571 16.8931 4.80566 16 4.41889Z" fill="#FFDE17"/>
<path d="M9.99829 8.99998C9.99864 7.76071 10.4592 6.56573 11.2907 5.64678C12.1221 4.72784 13.2652 4.15041 14.4983 4.02648C13.823 3.95671 13.1406 4.02517 12.4927 4.2277C11.8447 4.43023 11.2448 4.76259 10.7295 5.20451C10.2142 5.64644 9.79424 6.18867 9.49529 6.79816C9.19634 7.40766 9.02464 8.07164 8.99065 8.74965C8.95666 9.42766 9.06109 10.1055 9.29758 10.7418C9.53407 11.3782 9.89767 11.9597 10.3662 12.4509C10.8347 12.9422 11.3984 13.3329 12.0229 13.5992C12.6473 13.8655 13.3194 14.0019 13.9983 14C14.1673 14 14.3338 13.991 14.4983 13.975C13.265 13.851 12.1217 13.2734 11.2902 12.3541C10.4587 11.4349 9.99827 10.2395 9.99829 8.99998Z" fill="#FFCD00"/>
<path d="M-1.5 14.5V25.5H2.5V24.5V24V18.5V14.5H-1.5Z" fill="#00AEEF"/>
<path d="M25.44 15.2051L16.635 24.0101L3.00002 24.0001H2.50002V18.5001C2.49767 17.9109 2.67181 17.3344 3.00002 16.8451C3.27275 16.4314 3.64396 16.0919 4.08032 15.8571C4.51668 15.6224 5.00452 15.4997 5.50002 15.5001H8.00002C8.62015 15.4994 9.22515 15.6915 9.73128 16.0498C10.2374 16.4081 10.6196 16.9149 10.825 17.5001H14.5C15.0305 17.5001 15.5392 17.7108 15.9142 18.0859C16.2893 18.4609 16.5 18.9696 16.5 19.5001V20.0001L21.905 14.4951C22.2807 14.1205 22.7895 13.9102 23.32 13.9102C23.8505 13.9102 24.3594 14.1205 24.735 14.4951L25.44 15.2051Z" fill="#FFDAAA"/>
<path d="M13 11.5H13.5V12.5H14.5V11.5H15C15.2652 11.5 15.5196 11.3946 15.7071 11.2071C15.8946 11.0196 16 10.7652 16 10.5V9.5C16 9.23478 15.8946 8.98043 15.7071 8.79289C15.5196 8.60536 15.2652 8.5 15 8.5H13V7.5H15V8H16V7.5C16 7.23478 15.8946 6.98043 15.7071 6.79289C15.5196 6.60536 15.2652 6.5 15 6.5H14.5V5.5H13.5V6.5H13C12.7348 6.5 12.4804 6.60536 12.2929 6.79289C12.1054 6.98043 12 7.23478 12 7.5V8.5C12 8.76522 12.1054 9.01957 12.2929 9.20711C12.4804 9.39464 12.7348 9.5 13 9.5H15V10.5H13V10H12V10.5C12 10.7652 12.1054 11.0196 12.2929 11.2071C12.4804 11.3946 12.7348 11.5 13 11.5Z" fill="#FF7956"/>
<path d="M17.5 8.5H16.5V9.5H17.5V8.5Z" fill="#FF7956"/>
<path d="M11.5 8.5H10.5V9.5H11.5V8.5Z" fill="#FF7956"/>
<path d="M0.5 16H-0.5V17H0.5V16Z" fill="#FFB655"/>
<path d="M22.5 2H21.5V3H22.5V2Z" fill="#FFB655"/>
<path d="M23.5 3H22.5V4H23.5V3Z" fill="#FFB655"/>
<path d="M22.5 4H21.5V5H22.5V4Z" fill="#FFB655"/>
<path d="M21.5 3H20.5V4H21.5V3Z" fill="#FFB655"/>
<path d="M3.5 7.5H2.5V8.5H3.5V7.5Z" fill="#FFB655"/>
<path d="M4.5 8.5H3.5V9.5H4.5V8.5Z" fill="#FFB655"/>
<path d="M3.5 9.5H2.5V10.5H3.5V9.5Z" fill="#FFB655"/>
<path d="M2.5 8.5H1.5V9.5H2.5V8.5Z" fill="#FFB655"/>
<path d="M6.5 -0.5H5.5V0.5H6.5V-0.5Z" fill="#FFB655"/>
<path d="M7.5 0.5H6.5V1.5H7.5V0.5Z" fill="#FFB655"/>
<path d="M6.5 1.5H5.5V2.5H6.5V1.5Z" fill="#FFB655"/>
<path d="M5.5 0.5H4.5V1.5H5.5V0.5Z" fill="#FFB655"/>
<path d="M12.5 -0.5H11.5V0.5H12.5V-0.5Z" fill="#FF7956"/>
<path d="M14.5 -0.5H13.5V2H14.5V-0.5Z" fill="#FF7956"/>
<path d="M16.5 -0.5H15.5V0.5H16.5V-0.5Z" fill="#FF7956"/>
<path d="M16.5 20H8.5V20.5H16.5V20Z" fill="#FFC477"/>
<path d="M12.5 1.5H11.5V4H12.5V1.5Z" fill="#FF7956"/>
<path d="M10.5 2.5H9.5V5H10.5V2.5Z" fill="#FF7956"/>
<path d="M16.5 1.5H15.5V4H16.5V1.5Z" fill="#FF7956"/>
<path d="M18.5 0H17.5V2.5H18.5V0Z" fill="#FF7956"/>
<path d="M3.00002 16.8452V24.0002H2.50002V18.5002C2.49767 17.911 2.67181 17.3346 3.00002 16.8452Z" fill="#FFC477"/>
</g>
<defs>
<clipPath id="clip0_2107_6084">
<rect width="25" height="25" fill="white"/>
</clipPath>
</defs>
</svg>
