<?xml version="1.0" encoding="UTF-8"?>
<!DOCTYPE svg PUBLIC "-//W3C//DTD SVG 1.1//EN" "http://www.w3.org/Graphics/SVG/1.1/DTD/svg11.dtd">
<!-- Creator: CorelDRAW X6 -->
<svg xmlns="http://www.w3.org/2000/svg" xml:space="preserve" width="8in" height="8in" version="1.1" style="shape-rendering:geometricPrecision; text-rendering:geometricPrecision; image-rendering:optimizeQuality; fill-rule:evenodd; clip-rule:evenodd"
viewBox="0 0 8000 8000"
 xmlns:xlink="http://www.w3.org/1999/xlink">
 <defs>
  <style type="text/css">
   <![CDATA[
    .fil0 {fill:#DA151E}
    .fil1 {fill:white}
   ]]>
  </style>
 </defs>
 <g id="Layer_x0020_1">
  <metadata id="CorelCorpID_0Corel-Layer"/>
  <path class="fil0" d="M1899 1899l4201 0 0 4201 -3280 0c0,-509 -412,-921 -921,-921l0 -3280z"/>
  <path class="fil1" d="M4935 4741c-141,0 -261,-92 -302,-220l605 0 243 0c6,-32 9,-65 9,-98 0,-57 -9,-113 -25,-165 -58,-185 -210,-329 -400,-374 -31,-7 -64,-12 -97,-14l-65 0c-35,2 -69,7 -101,15 -188,47 -338,189 -396,373 -16,52 -25,108 -25,165 0,33 3,66 9,98 46,259 273,456 546,456 209,0 392,-116 486,-288l-240 -65c-58,71 -147,116 -246,116zm-1355 -1280l0 -534 -263 0 -270 0 -2 0c-99,0 -191,27 -270,74 -157,93 -263,264 -263,460 0,88 21,172 59,245 46,90 117,164 204,216 0,0 1,1 1,1 79,46 171,73 270,73 98,0 191,-27 270,-73 0,0 1,-1 1,-1l0 29c0,150 -121,271 -271,271 -133,0 -244,-96 -267,-223l-4 0 -261 0c16,176 117,327 261,412 79,47 172,74 271,74 99,0 192,-27 271,-74 144,-85 245,-236 261,-412 1,-16 2,-32 2,-49l0 -490zm-806 29l0 -29c0,-150 121,-271 271,-271l271 0 0 271 0 29c0,0 -1,-1 -1,-1 -10,96 -70,177 -153,216l0 0 0 0c-35,17 -75,26 -117,26 -42,0 -81,-9 -117,-26 -83,-40 -143,-121 -153,-216 0,0 -1,1 -1,1zm514 -504c-18,-1 -44,-14 -80,-28 36,14 62,27 80,28zm3 0c0,0 -1,0 -1,0 0,0 1,0 1,0zm606 186l440 0 0 -246 -440 0 -262 0 0 1073 234 0 29 0c-1,-249 -1,-512 -1,-763 0,-21 0,-42 0,-63zm1009 380c-139,0 -251,-112 -251,-251l0 -375 -138 0 -125 0 0 375c0,193 106,361 263,449 56,31 118,52 184,61 22,3 44,4 67,4 23,0 45,-1 67,-4 66,-9 128,-30 184,-61 157,-88 263,-256 263,-449l0 -375 -125 0 -138 0 0 375c0,139 -112,251 -251,251zm-1257 820l-277 0 250 768 36 0 240 0 123 0 33 0 226 -695 85 -263 116 -356 16 -51 -13 39 -277 0 -4 12 -347 1068 -40 0 -170 -522zm1557 -115l-543 0c56,-92 157,-153 272,-153 115,0 216,61 272,153z"/>
 </g>
</svg>
