<svg width="32" height="32" viewBox="0 0 32 32" fill="none" xmlns="http://www.w3.org/2000/svg">
<path d="M25.8943 19.8141H6.3633L5.70771 15.7451C5.70771 15.7451 5.66137 15.5564 5.62095 15.2659H5.62083C5.48256 14.2723 5.41207 12.0864 7.49358 12.1752L25.3971 12.3543C25.3971 12.3543 26.2595 12.3416 26.7588 13.0857C26.9263 13.335 27.0528 13.6693 27.0925 14.1175C27.2507 15.9033 25.8943 19.8141 25.8943 19.8141Z" fill="#ED2144"/>
<path opacity="0.63" d="M25.8935 19.8158H6.36247L5.70688 15.7468C5.70688 15.7468 5.66054 15.5582 5.62012 15.2676C5.62012 15.2676 18.4672 18.6902 26.758 13.0874C26.9254 13.3367 27.052 13.671 27.0917 14.1192C27.2499 15.9051 25.8935 19.8158 25.8935 19.8158Z" fill="#C81030"/>
<path d="M21.5623 13.2887C21.5877 13.4753 15.1536 15.3741 15.0265 15.4334C14.8993 15.4928 14.2806 15.0329 14.3059 14.7166C14.3135 14.6235 14.337 14.4845 14.3731 14.3143C14.5865 13.3083 15.2374 11.2145 15.5831 11.096C15.6325 11.079 15.7041 11.0594 15.7904 11.0379L15.7907 11.0377C15.9591 10.9956 16.1836 10.9459 16.4099 10.8939L16.4282 10.8897C16.8624 10.7897 17.2975 10.6815 17.3491 10.6015C17.4424 10.4574 17.3915 10.0929 17.3915 10.0929C17.3915 10.0929 17.0892 10.3001 16.573 9.99113C16.0569 9.68219 16.0456 9.27158 15.9815 8.99271C15.9174 8.71396 15.4898 7.61757 16.1115 7.25306C16.1115 7.25306 16.7982 6.94793 17.4254 7.44801C18.0528 7.94821 18.5529 7.4904 18.6885 8.20256C18.8242 8.91459 18.6292 10.2964 19.0954 10.4658C19.2882 10.5359 19.6273 10.6264 19.9678 10.731L19.9693 10.7315C20.2379 10.8141 20.5072 10.9055 20.7059 11.003C20.8644 11.0806 20.9783 11.1621 21.0113 11.2457C21.0926 11.452 21.2852 12.1553 21.4201 12.6835C21.4957 12.9802 21.5532 13.2216 21.5623 13.2887Z" fill="#FBA09F"/>
<path d="M24.8102 20.7575H7.17704C6.56555 20.7575 6.06982 20.2618 6.06982 19.6503V19.0664H25.9174V19.6503C25.9174 20.2618 25.4217 20.7575 24.8102 20.7575Z" fill="#ED2144"/>
<path d="M18.1172 8.12098C18.1172 8.12098 18.5141 8.12421 18.5555 8.32765C18.597 8.5311 18.435 8.7986 18.5329 8.96061C18.6309 9.12261 18.7608 9.37164 18.7608 9.37164V8.85511C18.7608 8.85511 18.7401 8.13173 18.6196 8.02247C18.499 7.91322 18.1172 8.12098 18.1172 8.12098Z" fill="#FB7773"/>
<path d="M15.779 8.01588C15.779 8.01588 16.0905 7.34847 16.8121 7.62034C17.0529 7.71108 17.257 7.87897 17.398 8.09424C17.5646 8.34859 17.8466 8.7225 17.9241 8.47369C17.9241 8.47369 17.0859 7.02907 16.662 7.16363C16.2382 7.2982 15.7166 7.55936 15.779 8.01588Z" fill="#FB7773"/>
<path d="M15.5408 16.4912C15.5408 16.4912 15.0321 16.5929 15.439 17.3276C15.8459 18.0623 17.9295 18.8196 18.7357 18.6048C19.5419 18.3901 20.8417 17.1468 20.3331 16.7512C19.8245 16.3556 15.5408 16.4912 15.5408 16.4912Z" fill="#111021"/>
<path d="M18.8835 8.72963C18.7895 9.02057 18.8525 9.17881 18.8525 9.17881C18.6772 9.1676 18.5756 8.86236 18.5756 8.86236C18.6321 8.81146 18.8411 8.18421 18.3664 8.10509C17.8918 8.02598 17.9247 8.47245 17.9247 8.47245C17.6468 8.6759 17.6035 7.68131 16.7558 7.46651C15.9081 7.25172 15.7796 8.01464 15.7796 8.01464C15.7578 7.95722 15.7427 7.90078 15.734 7.8452C15.5866 6.91233 17.212 6.27671 18.2431 6.69224C18.7556 6.8989 18.9949 7.3901 19.005 7.95056C19.0096 8.20282 18.9677 8.46899 18.8835 8.72963Z" fill="#111021"/>
<path d="M21.5623 13.2913C21.5877 13.4779 15.1536 15.3768 15.0265 15.436C14.8993 15.4954 14.2806 15.0355 14.3059 14.7192C14.3135 14.6262 14.337 14.4871 14.3731 14.317C14.7625 14.1812 15.5774 12.8166 15.7904 12.5369C16.0033 12.2572 15.7904 11.0405 15.7904 11.0405L15.7907 11.0404L16.4099 10.8966L16.4282 10.8924C16.4282 10.8924 16.3908 11.6183 16.7728 12.2403C17.1547 12.8621 17.8747 12.6894 18.8327 12.6471C19.7906 12.6047 19.9678 10.7336 19.9678 10.7336L19.9693 10.7341L20.7059 11.0056C20.7059 11.0056 20.5987 12.0622 20.5817 12.4013C20.5648 12.7403 20.7994 12.6811 20.7994 12.6811C20.9957 12.656 21.2172 12.6426 21.4201 12.6861C21.4957 12.9829 21.5532 13.2243 21.5623 13.2913Z" fill="#FB7773"/>
<path d="M17.3926 10.0942C17.3926 10.0942 18.0485 9.79749 18.2834 9.5098C18.2834 9.5098 18.3949 9.41587 18.3186 9.64484C18.2423 9.8738 17.3926 10.4835 17.3926 10.4835C17.3926 10.4835 17.4118 10.2618 17.3926 10.0942Z" fill="#FB7773"/>
<path d="M16.3129 10.8916C16.3078 10.8927 16.3211 12.22 16.9188 12.6409C17.5165 13.0619 19.1329 13.1545 19.5118 12.4473C19.8906 11.7401 20.037 10.7039 20.037 10.7039L20.6436 10.9249C20.6436 10.9249 20.3452 12.321 20.581 13.104C20.8167 13.8869 16.0517 13.5923 16.0517 13.5923C16.0517 13.5923 16.1157 11.6196 15.8438 10.9856L16.3129 10.8916Z" fill="#5D82F1"/>
<path d="M21.5616 12.8719V16.9531C21.5616 17.0141 21.5117 17.064 21.4507 17.064H15.0513C14.9903 17.064 14.9404 17.0141 14.9404 16.9531V12.8719C14.9404 12.8109 14.9903 12.761 15.0513 12.761H21.4507C21.5117 12.761 21.5616 12.8109 21.5616 12.8719Z" fill="#111021"/>
<path d="M18.2233 15.2674C18.506 15.2674 18.7352 15.1374 18.7352 14.9771C18.7352 14.8168 18.506 14.6868 18.2233 14.6868C17.9406 14.6868 17.7114 14.8168 17.7114 14.9771C17.7114 15.1374 17.9406 15.2674 18.2233 15.2674Z" fill="white"/>
<g opacity="0.28">
<path d="M21.5626 13.9421V16.9518C21.5626 17.0128 21.5127 17.0627 21.4517 17.0627H15.0523C14.9913 17.0627 14.9414 17.0128 14.9414 16.9518V15.9088L21.5626 13.9421Z" fill="#587199"/>
</g>
<path d="M7.56621 20.7569C7.56621 20.7569 7.21548 15.7783 6.43028 15.604C5.64509 15.4298 4.80269 15.604 4.80269 15.604C4.80269 15.604 4.26016 15.4348 4.6162 16.4689C4.97223 17.5029 6.29465 20.757 6.29465 20.757L7.56621 20.7569Z" fill="#F04663"/>
<path d="M24.8486 20.7569C24.8486 20.7569 25.1994 15.7783 25.9846 15.604C26.7697 15.4298 27.6122 15.604 27.6122 15.604C27.6122 15.604 28.1547 15.4348 27.7986 16.4689C27.4426 17.5029 26.1202 20.757 26.1202 20.757L24.8486 20.7569Z" fill="#F04663"/>
<path d="M26.12 20.7563H6.28369V21.317H26.12V20.7563Z" fill="#111021"/>
<path d="M7.83155 21.3171L5.92139 25.2844H6.44131L8.76968 21.3171H7.83155Z" fill="#111021"/>
<path d="M24.6559 21.3171L26.5661 25.2844H26.0461L23.7178 21.3171H24.6559Z" fill="#111021"/>
<path d="M20.7418 18.1388C20.5631 18.4474 20.3895 18.8588 20.2859 19.1199C20.2709 19.1179 20.2558 19.1159 20.2404 19.1142C20.2343 19.1135 20.2282 19.1127 20.222 19.112C20.2035 19.1098 20.1847 19.1077 20.1655 19.1057C20.1398 19.103 20.1135 19.1004 20.0863 19.0978C20.083 19.0975 20.0796 19.0971 20.0761 19.0968C19.481 19.0416 18.5786 19.0284 17.9872 19.0265C17.6343 19.0251 17.3921 19.0278 17.3921 19.0278C17.3274 19.0323 17.2634 19.0362 17.1999 19.0399C13.5595 19.2482 12.1039 18.1995 12.3626 17.3536C12.3778 17.3034 12.3993 17.254 12.4265 17.2056C12.6262 16.8516 13.073 16.6971 13.5355 16.639C14.2184 16.5531 14.911 16.6846 15.5218 17.002C15.9143 17.2062 16.4766 17.4721 17.115 17.6942C17.1517 17.707 17.1888 17.7197 17.226 17.7322C17.2632 17.7447 17.3008 17.7571 17.3385 17.7693C17.4959 17.82 17.6715 17.8638 17.8588 17.9017C18.5803 18.0478 19.4755 18.1057 20.1733 18.1275C20.1769 18.1276 20.1806 18.1277 20.1842 18.1279C20.1999 18.1283 20.2156 18.1287 20.2311 18.1292H20.2321C20.2453 18.1296 20.2585 18.1299 20.2715 18.1303C20.2904 18.1308 20.309 18.1313 20.3274 18.1318C20.3397 18.1322 20.3519 18.1324 20.364 18.1327C20.394 18.1334 20.4235 18.134 20.4526 18.1346C20.4607 18.1349 20.4687 18.135 20.4767 18.1351C20.5038 18.1356 20.5305 18.1361 20.5564 18.1365C20.5784 18.1368 20.6 18.1372 20.621 18.1375C20.6326 18.1376 20.6441 18.1377 20.6554 18.1378C20.6701 18.1381 20.6846 18.1383 20.6989 18.1384C20.7053 18.1384 20.7116 18.1384 20.7177 18.1386C20.7259 18.1387 20.7338 18.1388 20.7418 18.1388Z" fill="#FBA09F"/>
<path d="M17.9872 19.0259C17.6343 19.0245 17.3921 19.0273 17.3921 19.0273C17.3274 19.0317 17.2634 19.0356 17.1999 19.0393C13.5595 19.2476 12.1039 18.1989 12.3626 17.353C13.0946 18.7346 16.4738 19.176 16.8807 18.9385C17.2876 18.7012 17.115 17.6936 17.115 17.6936C17.1517 17.7065 17.1888 17.7191 17.226 17.7316C17.2632 17.7442 17.3008 17.7565 17.3385 17.7687C17.4959 17.8195 17.6715 17.8632 17.8588 17.9012C17.9438 18.0253 18.0154 18.1696 18.0647 18.3118C18.1519 18.563 18.1214 18.7995 17.9872 19.0259Z" fill="#FB7773"/>
<path d="M22.0832 19.5085C22.0831 19.5086 22.0831 19.5087 22.083 19.5088C22.0639 19.5383 22.0445 19.5679 22.0253 19.5973C21.9882 19.654 21.9509 19.7107 21.9134 19.7673C21.8753 19.8246 21.8372 19.8819 21.7989 19.9389C21.7798 19.9675 21.7606 19.9961 21.7415 20.0246C21.5497 20.3093 21.3569 20.5898 21.173 20.8585C21.1537 20.8868 21.1343 20.9149 21.1152 20.943C21.0985 20.9674 21.082 20.9917 21.0654 21.0158C21.0345 21.0611 21.004 21.1059 20.9738 21.1504C20.9497 21.1856 20.9261 21.2206 20.9026 21.2554C20.8879 21.2772 20.8732 21.2989 20.8586 21.3205C20.8426 21.3442 20.8269 21.3678 20.8111 21.3912C20.7491 21.4839 20.6892 21.5742 20.632 21.6617C20.5357 21.8093 20.4472 21.9489 20.3691 22.0788C20.1725 22.4056 20.0416 22.6703 20.017 22.8429C19.8941 23.7034 19.9135 24.2394 20.0754 24.6432C20.1071 24.722 20.144 24.7958 20.1865 24.866C20.1865 24.866 20.3618 25.0525 20.26 25.2446C20.1633 25.4275 19.5035 25.5695 19.167 25.4122C19.1499 25.4043 19.1337 25.3956 19.1184 25.386C18.8019 25.1881 18.429 24.8943 18.6098 23.4588C18.6098 23.4588 18.6041 22.8711 18.7794 22.7297C18.9048 22.6286 19.1005 22.4462 19.2594 22.1496C19.3223 22.032 19.3795 21.8964 19.4242 21.7408C19.4257 21.7355 19.4273 21.7301 19.4289 21.7244C19.4298 21.7217 19.4305 21.7189 19.4314 21.7162C19.4506 21.65 19.4772 21.5603 19.5098 21.4527C19.5133 21.441 19.5169 21.4292 19.5206 21.417C19.5271 21.3951 19.534 21.3727 19.541 21.3497C19.5451 21.3365 19.5492 21.3231 19.5534 21.3094C19.5702 21.2544 19.5881 21.1962 19.607 21.1355V21.1354C19.6104 21.1243 19.6139 21.1129 19.6174 21.1017C19.6199 21.0936 19.6225 21.0853 19.6251 21.0772C19.6311 21.0577 19.6372 21.0381 19.6433 21.0183C19.6463 21.0091 19.6491 20.9998 19.6521 20.9905C19.655 20.9811 19.658 20.9717 19.6608 20.9624C19.6697 20.9341 19.6787 20.9056 19.6878 20.8766C19.7002 20.8372 19.7129 20.797 19.7259 20.7563C19.7319 20.7372 19.7381 20.7179 19.7442 20.6985C19.7506 20.6783 19.7572 20.6581 19.7637 20.6376C19.7678 20.6247 19.772 20.6116 19.7762 20.5986C19.7842 20.5737 19.7922 20.5487 19.8003 20.5234C19.8046 20.5098 19.8091 20.4962 19.8135 20.4825C19.8194 20.4643 19.8253 20.4459 19.8312 20.4275C19.8356 20.4143 19.8399 20.401 19.8442 20.3877C19.8476 20.3773 19.8511 20.3667 19.8545 20.3561C19.8593 20.3413 19.8641 20.3265 19.869 20.3117C19.8884 20.2521 19.9081 20.192 19.9281 20.1319C20.1985 19.3151 20.5004 18.4786 20.6475 18.3109C20.6475 18.3109 17.8949 18.2652 17.4399 17.994C17.4399 17.994 17.9423 17.6997 18.654 17.3391C20.1608 16.5757 22.6055 15.515 23.2043 16.3211C23.6308 16.8951 22.9335 18.1988 22.0832 19.5085Z" fill="#FBA09F"/>
<path d="M22.0712 16.7832C21.2829 17.1392 20.6475 18.3124 20.6475 18.3124C20.6475 18.3124 17.8949 18.2666 17.4399 17.9954C17.4399 17.9954 17.9424 17.7011 18.654 17.3406C19.7806 18.2032 20.4437 17.402 21.3253 16.9272C22.2069 16.4526 22.0712 16.7832 22.0712 16.7832Z" fill="#FB7773"/>
<path d="M20.7406 18.1378V18.1379C20.562 18.4465 20.3883 18.8578 20.2847 19.1189C20.2048 19.1084 20.1155 19.0992 20.019 19.0908C19.4854 19.0451 18.7338 19.0304 18.1709 19.0264C18.0755 19.0258 17.9854 19.0254 17.9029 19.0253C17.5957 19.0246 17.391 19.0269 17.391 19.0269C17.3263 19.0313 17.2622 19.0352 17.1987 19.0389C17.3245 18.5714 17.2727 18.034 17.2249 17.7312C17.2621 17.7438 17.2997 17.7561 17.3374 17.7683C17.4966 17.8196 17.6743 17.8638 17.8639 17.902C17.9525 17.9199 18.0438 17.9364 18.137 17.9517C18.8009 18.0607 19.5618 18.1074 20.1722 18.1265C20.383 18.1332 20.576 18.1364 20.7406 18.1378Z" fill="#FFA931"/>
<path d="M17.8647 17.9023C17.8647 17.9023 18.091 18.4364 17.9037 19.0256L18.1717 19.0267C18.1717 19.0267 18.4007 18.5366 18.1378 17.952L17.8647 17.9023Z" fill="#111021"/>
<path d="M20.7417 18.1378C20.563 18.4464 20.3893 18.8577 20.2857 19.1188C20.2708 19.1169 20.2556 19.1149 20.2402 19.1132C20.2342 19.1124 20.228 19.1117 20.2219 19.111C20.2034 19.1088 20.1845 19.1067 20.1653 19.1047C20.1397 19.102 20.1133 19.0993 20.0862 19.0968C20.0829 19.0964 20.0794 19.0961 20.076 19.0958C20.0576 19.0941 20.039 19.0924 20.02 19.0908C20.4447 18.4354 20.1732 18.1265 20.1732 18.1265C20.1768 18.1266 20.1805 18.1267 20.184 18.1268C20.1998 18.1273 20.2155 18.1277 20.231 18.1282H20.232C20.2452 18.1286 20.2583 18.1289 20.2714 18.1293C20.2903 18.1298 20.3089 18.1303 20.3272 18.1308C20.3396 18.1311 20.3518 18.1314 20.3638 18.1316C20.3939 18.1324 20.4234 18.133 20.4524 18.1336C20.4606 18.1337 20.4686 18.134 20.4766 18.1341C20.5037 18.1346 20.5303 18.1351 20.5563 18.1354C20.5783 18.1358 20.5998 18.1361 20.6209 18.1364C20.6325 18.1366 20.6439 18.1367 20.6553 18.1368C20.6699 18.1371 20.6845 18.1372 20.6988 18.1374C20.7052 18.1374 20.7115 18.1374 20.7176 18.1375C20.7258 18.1375 20.7338 18.1377 20.7416 18.1377" fill="#FF9138"/>
<path d="M22.0829 19.511C22.0638 19.5404 22.0444 19.57 22.0252 19.5995C21.9881 19.6562 21.9508 19.7128 21.9133 19.7694C21.8752 19.8267 21.8372 19.884 21.7988 19.9411C21.7797 19.9697 21.7605 19.9982 21.7414 20.0267C21.5496 20.3115 21.3568 20.592 21.1729 20.8606C21.1536 20.889 21.1342 20.9171 21.1151 20.9451C21.0984 20.9695 21.0819 20.9938 21.0653 21.018C21.0344 21.0632 21.0039 21.1081 20.9737 21.1526C20.9496 21.1878 20.926 21.2228 20.9026 21.2575C20.8878 21.2794 20.8731 21.3011 20.8586 21.3226C20.8425 21.3464 20.8268 21.3699 20.811 21.3934C20.749 21.486 20.6891 21.5763 20.6319 21.6638C20.5356 21.8115 20.4471 21.9511 20.369 22.081C19.9299 22.2115 19.513 22.2575 19.2593 22.1517C19.3223 22.0342 19.3794 21.8986 19.4242 21.743C19.4256 21.7377 19.4272 21.7322 19.4288 21.7266C19.4297 21.7239 19.4304 21.721 19.4313 21.7183C19.4505 21.6521 19.4771 21.5624 19.5097 21.4549C19.5132 21.4431 19.5168 21.4313 19.5205 21.4191C19.5271 21.3973 19.534 21.3749 19.541 21.3518C19.545 21.3386 19.5491 21.3252 19.5533 21.3115C19.5702 21.2566 19.588 21.1984 19.6069 21.1377V21.1375C19.6103 21.1265 19.6138 21.1151 19.6174 21.1039C19.6198 21.0958 19.6224 21.0875 19.625 21.0794C19.6311 21.0599 19.6371 21.0403 19.6432 21.0205C19.6462 21.0112 19.649 21.002 19.652 20.9926C19.6549 20.9833 19.6579 20.9739 19.6607 20.9645C19.6696 20.9363 19.6786 20.9077 19.6877 20.8787C19.7002 20.8393 19.7129 20.7991 19.7258 20.7585C19.7318 20.7394 19.738 20.72 19.7442 20.7007C19.7506 20.6805 19.7571 20.6603 19.7636 20.6398C19.7677 20.6269 19.7719 20.6138 19.7761 20.6007C19.7841 20.5758 19.7921 20.5508 19.8002 20.5256C19.8045 20.512 19.809 20.4983 19.8134 20.4847C19.8193 20.4664 19.8252 20.4481 19.8312 20.4297C19.8355 20.4165 19.8398 20.4032 19.8441 20.3899C19.8476 20.3794 19.851 20.3688 19.8545 20.3582C19.8593 20.3434 19.8641 20.3286 19.8689 20.3139C19.8883 20.2542 19.9081 20.1942 19.928 20.1341C20.3076 20.3354 21.2593 20.6649 22.0829 19.511Z" fill="#FB7773"/>
<path d="M21.173 20.8593C21.1537 20.8876 21.1343 20.9157 21.1152 20.9438C21.0985 20.9682 21.082 20.9925 21.0655 21.0166C21.0345 21.0619 21.004 21.1067 20.9738 21.1512C20.9497 21.1864 20.9261 21.2214 20.9027 21.2562C20.8879 21.278 20.8732 21.2997 20.8587 21.3213C20.8426 21.345 20.8269 21.3686 20.8111 21.392C20.7491 21.4847 20.6892 21.575 20.632 21.6625C20.5357 21.8101 20.4472 21.9497 20.3691 22.0796C20.1725 22.4064 20.0416 22.6711 20.017 22.8437C19.8941 23.7042 19.9135 24.2402 20.0754 24.6439C20.1071 24.7228 20.144 24.7966 20.1866 24.8667C20.1866 24.8667 20.3618 25.0533 20.26 25.2454C20.1633 25.4283 19.5035 25.5703 19.1671 25.413C19.1499 25.4051 19.1337 25.3964 19.1184 25.3868C18.8138 25.1963 18.457 24.917 18.5918 23.6164C18.597 23.5657 18.603 23.5134 18.6098 23.4596C18.6098 23.4596 18.6041 22.8719 18.7794 22.7305C18.8436 22.6788 18.9262 22.6057 19.0128 22.507C19.0955 22.4127 19.1819 22.2952 19.2594 22.1504C19.3223 22.0328 19.3795 21.8973 19.4242 21.7416C19.4257 21.7363 19.4273 21.7309 19.4289 21.7252C19.4298 21.7225 19.4305 21.7197 19.4314 21.717C19.4506 21.6508 19.4772 21.5611 19.5098 21.4535C19.5133 21.4418 19.5169 21.43 19.5206 21.4178C19.5271 21.3959 19.534 21.3735 19.5411 21.3505C19.5451 21.3373 19.5492 21.3239 19.5534 21.3102C19.5703 21.2552 19.5881 21.1971 19.607 21.1363V21.1362C19.6104 21.1251 19.6139 21.1138 19.6175 21.1025C19.6199 21.0944 19.6225 21.0862 19.6251 21.078C19.6311 21.0586 19.6372 21.039 19.6433 21.0191C19.6463 21.0099 19.6491 21.0006 19.6521 20.9913C19.655 20.9819 19.658 20.9725 19.6608 20.9632C19.6697 20.935 19.6787 20.9064 19.6878 20.8774C19.7003 20.838 19.713 20.7978 19.7259 20.7571C19.7319 20.738 19.7381 20.7187 19.7442 20.6993C19.7507 20.6791 19.7572 20.6589 19.7637 20.6384C19.7678 20.6255 19.772 20.6125 19.7762 20.5994C19.7842 20.5745 19.7922 20.5495 19.8003 20.5242C19.8046 20.5107 19.8091 20.497 19.8135 20.4833C19.8194 20.4651 19.8253 20.4467 19.8312 20.4283C19.8356 20.4151 19.8399 20.4018 19.8442 20.3885C19.8476 20.3781 19.8511 20.3675 19.8545 20.3569C19.8594 20.3421 19.8642 20.3273 19.869 20.3125C19.869 20.3125 20.58 20.8924 21.173 20.8593Z" fill="#FFA931"/>
<path d="M20.8586 21.3205C20.8426 21.3443 20.8268 21.3678 20.811 21.3912C20.749 21.4839 20.6891 21.5742 20.632 21.6617C20.632 21.6617 19.8637 21.4854 19.6069 21.1355V21.1354C19.6104 21.1243 19.6138 21.113 19.6174 21.1018C19.6199 21.0936 19.6225 21.0854 19.625 21.0772C19.6311 21.0578 19.6371 21.0382 19.6433 21.0183C19.6462 21.0091 19.6491 20.9999 19.652 20.9905C19.655 20.9811 19.6579 20.9718 19.6608 20.9624C19.6697 20.9342 19.6786 20.9056 19.6878 20.8766C19.7002 20.8372 19.7129 20.797 19.7258 20.7563C19.7258 20.7563 20.2592 21.3241 20.8586 21.3205Z" fill="#111021"/>
<path d="M20.26 25.2461C20.1632 25.4289 19.5035 25.5709 19.167 25.4136C19.167 25.4136 18.8595 24.6393 20.0754 24.6446C20.1071 24.7234 20.144 24.7972 20.1865 24.8674C20.1865 24.8674 20.3618 25.0539 20.26 25.2461Z" fill="#111021"/>
<path d="M18.5913 23.6158C18.5965 23.565 18.6025 23.5128 18.6093 23.4589C18.6093 23.4589 18.6036 22.8712 18.7789 22.7299C18.8431 22.6781 18.9256 22.6051 19.0123 22.5063C19.0123 22.5063 19.5708 23.1423 18.5913 23.6158Z" fill="#111021"/>
<path d="M18.8834 8.73009C18.7894 9.02103 18.8524 9.17927 18.8524 9.17927C18.6772 9.16806 18.5755 8.86282 18.5755 8.86282C18.632 8.81192 18.841 8.18467 18.3664 8.10555C17.8917 8.02644 17.9246 8.47291 17.9246 8.47291C17.6467 8.67636 17.6034 7.68177 16.7557 7.46697C15.908 7.25218 15.7795 8.0151 15.7795 8.0151C15.7577 7.95768 15.7426 7.90124 15.7339 7.84566C15.7876 7.70997 16.08 7.09001 16.8495 7.38785C17.6112 7.68274 18.3578 8.11504 19.0049 7.95102C19.0095 8.20328 18.9676 8.46945 18.8834 8.73009Z" fill="#22213C"/>
<path d="M11.4949 16.6829V18.9148C11.4949 18.9969 11.4282 19.0635 11.3461 19.0635H10.034C9.95192 19.0635 9.88527 18.9969 9.88527 18.9148V16.7048C9.88455 16.6331 9.90615 16.5922 9.92847 16.5692C9.95182 16.5451 9.97607 16.5405 9.97607 16.5405C9.97607 16.5405 9.97617 16.5405 9.97628 16.5405C9.99644 16.5404 11.3099 16.5312 11.4015 16.5405C11.4016 16.5405 11.4016 16.5405 11.4017 16.5405C11.4311 16.5436 11.4511 16.5596 11.4649 16.5797C11.4938 16.622 11.4949 16.6829 11.4949 16.6829Z" fill="white"/>
<path d="M10.7617 17.0229V17.0237C10.7617 17.0394 10.7617 17.055 10.7616 17.0707C10.7616 17.0744 10.7614 17.0782 10.7608 17.0819C10.7577 17.0998 10.7486 17.1141 10.7337 17.1245C10.7197 17.1341 10.7042 17.1377 10.6874 17.1351C10.674 17.1331 10.6622 17.1274 10.6525 17.118C10.639 17.105 10.6323 17.089 10.6324 17.0702C10.6325 17.0548 10.6324 17.0396 10.6324 17.0242V17.0228H10.6162V17.0238C10.6162 17.04 10.6161 17.0562 10.6163 17.0722C10.6165 17.0897 10.6219 17.1055 10.6324 17.1195C10.6434 17.1341 10.6576 17.1439 10.6752 17.1489C10.6796 17.1501 10.6842 17.1509 10.6888 17.1519V17.1925H10.6405V17.2085H10.7535V17.1924H10.7052V17.1518C10.7053 17.1517 10.7053 17.1516 10.7054 17.1516C10.7061 17.1515 10.7067 17.1514 10.7075 17.1513C10.7246 17.149 10.7396 17.1421 10.7521 17.1302C10.7694 17.1139 10.7778 17.0936 10.7779 17.07V17.0229H10.7617V17.0229ZM10.7455 16.9669C10.7455 16.9638 10.7452 16.9608 10.7447 16.9577C10.7397 16.9278 10.7074 16.9098 10.6792 16.9212C10.6606 16.9286 10.6486 16.9462 10.6486 16.9664C10.6485 16.9838 10.6486 17.0012 10.6486 17.0186V17.0706C10.6486 17.0749 10.649 17.0792 10.6501 17.0834C10.655 17.1025 10.6713 17.1169 10.6908 17.1194C10.6996 17.1205 10.7082 17.1195 10.7162 17.1158C10.7353 17.1069 10.7453 17.0916 10.7454 17.0706C10.7457 17.036 10.7455 17.0015 10.7455 16.9669Z" fill="#403E58"/>
<path d="M10.6489 17.0187C10.6489 17.0012 10.6489 16.9838 10.6489 16.9664C10.649 16.9462 10.6609 16.9287 10.6796 16.9211C10.7078 16.9098 10.7401 16.9278 10.7451 16.9577C10.7456 16.9608 10.7459 16.9639 10.7459 16.967C10.7459 17.0015 10.7461 17.0361 10.7458 17.0706C10.7457 17.0917 10.7357 17.1068 10.7166 17.1158C10.7086 17.1195 10.7 17.1205 10.6911 17.1193C10.6717 17.1169 10.6554 17.1025 10.6505 17.0834C10.6494 17.0792 10.6489 17.075 10.6489 17.0706C10.6489 17.0533 10.6489 17.036 10.6489 17.0187Z" fill="#403E58"/>
<path d="M10.6405 17.2089C10.6405 17.2035 10.6405 17.1982 10.6405 17.1928C10.6567 17.1928 10.6727 17.1928 10.6889 17.1928C10.6889 17.1792 10.6889 17.1656 10.6889 17.1522C10.6842 17.1513 10.6796 17.1505 10.6752 17.1492C10.6576 17.1443 10.6433 17.1344 10.6324 17.1198C10.6219 17.1059 10.6165 17.0901 10.6163 17.0726C10.6161 17.0565 10.6163 17.0403 10.6162 17.0242C10.6162 17.0239 10.6162 17.0236 10.6162 17.0232C10.6216 17.0232 10.6269 17.0232 10.6324 17.0232C10.6324 17.0237 10.6324 17.0241 10.6324 17.0246C10.6324 17.0399 10.6325 17.0552 10.6324 17.0705C10.6323 17.0894 10.639 17.1053 10.6524 17.1184C10.6622 17.1278 10.6739 17.1335 10.6874 17.1355C10.7042 17.138 10.7197 17.1344 10.7337 17.1248C10.7486 17.1145 10.7577 17.1001 10.7608 17.0822C10.7614 17.0785 10.7616 17.0748 10.7616 17.0711C10.7617 17.0554 10.7617 17.0397 10.7617 17.0241C10.7617 17.0238 10.7617 17.0236 10.7617 17.0232C10.7671 17.0232 10.7724 17.0232 10.7778 17.0232C10.7778 17.0237 10.7778 17.0242 10.7778 17.0247C10.7778 17.0399 10.7779 17.0551 10.7778 17.0703C10.7777 17.094 10.7693 17.1142 10.7521 17.1305C10.7395 17.1424 10.7246 17.1493 10.7075 17.1516C10.7068 17.1517 10.706 17.1518 10.7053 17.1519C10.7053 17.1519 10.7053 17.152 10.7052 17.1521C10.7052 17.1656 10.7052 17.1791 10.7052 17.1928C10.7213 17.1928 10.7374 17.1928 10.7535 17.1928C10.7535 17.1982 10.7535 17.2035 10.7535 17.2089C10.7159 17.2089 10.6783 17.2089 10.6405 17.2089Z" fill="#403E58"/>
<path d="M9.99707 16.5038C9.99707 16.5038 9.91908 16.5274 9.92911 16.5706C9.92911 16.5706 10.0094 16.726 10.6463 16.7258C10.6463 16.7258 11.3236 16.7167 11.4654 16.5804C11.4654 16.5804 11.4789 16.5197 11.3615 16.4874C11.2441 16.4551 9.99707 16.5038 9.99707 16.5038Z" fill="#AAAAAA"/>
<path d="M10.6884 16.6861C11.0821 16.6861 11.4012 16.6192 11.4012 16.5367C11.4012 16.4541 11.0821 16.3872 10.6884 16.3872C10.2947 16.3872 9.97559 16.4541 9.97559 16.5367C9.97559 16.6192 10.2947 16.6861 10.6884 16.6861Z" fill="#111021"/>
<path d="M10.6966 16.8403C10.5723 16.8403 10.4712 16.9414 10.4712 17.0657C10.4712 17.1899 10.5723 17.2911 10.6966 17.2911C10.8208 17.2911 10.9219 17.1899 10.9219 17.0657C10.9219 16.9414 10.8208 16.8403 10.6966 16.8403ZM10.6966 17.276C10.5806 17.276 10.4862 17.1816 10.4862 17.0656C10.4862 16.9497 10.5806 16.8553 10.6966 16.8553C10.8126 16.8553 10.907 16.9497 10.907 17.0656C10.907 17.1816 10.8126 17.276 10.6966 17.276Z" fill="#403E58"/>
<path opacity="0.41" d="M11.4948 17.9263V18.5466C11.4948 18.5981 9.88525 18.5981 9.88525 18.5466V17.9263L10.46 17.9545C10.6176 17.9623 10.7756 17.9622 10.9332 17.9543L11.4948 17.9263Z" fill="#403E58"/>
<path d="M10.0527 18.0579C10.0527 18.0763 10.0378 18.0913 10.0193 18.0913C10.0008 18.0913 9.98584 18.0763 9.98584 18.0579C9.98584 18.0394 10.0008 18.0244 10.0193 18.0244C10.0378 18.0244 10.0527 18.0394 10.0527 18.0579Z" fill="white"/>
<path d="M10.1865 18.0579C10.1865 18.0763 10.1715 18.0913 10.1531 18.0913C10.1346 18.0913 10.1196 18.0763 10.1196 18.0579C10.1196 18.0394 10.1346 18.0244 10.1531 18.0244C10.1715 18.0244 10.1865 18.0394 10.1865 18.0579Z" fill="white"/>
<path d="M10.3218 18.0579C10.3218 18.0763 10.3068 18.0913 10.2883 18.0913C10.2699 18.0913 10.2549 18.0763 10.2549 18.0579C10.2549 18.0394 10.2699 18.0244 10.2883 18.0244C10.3068 18.0244 10.3218 18.0394 10.3218 18.0579Z" fill="white"/>
<path d="M10.4565 18.0579C10.4565 18.0763 10.4416 18.0913 10.4231 18.0913C10.4046 18.0913 10.3896 18.0763 10.3896 18.0579C10.3896 18.0394 10.4046 18.0244 10.4231 18.0244C10.4416 18.0244 10.4565 18.0394 10.4565 18.0579Z" fill="white"/>
<path d="M10.5913 18.0579C10.5913 18.0763 10.5763 18.0913 10.5579 18.0913C10.5394 18.0913 10.5244 18.0763 10.5244 18.0579C10.5244 18.0394 10.5394 18.0244 10.5579 18.0244C10.5763 18.0244 10.5913 18.0394 10.5913 18.0579Z" fill="white"/>
<path d="M10.7251 18.0579C10.7251 18.0763 10.7101 18.0913 10.6916 18.0913C10.6732 18.0913 10.6582 18.0763 10.6582 18.0579C10.6582 18.0394 10.6732 18.0244 10.6916 18.0244C10.7101 18.0244 10.7251 18.0394 10.7251 18.0579Z" fill="white"/>
<path d="M10.8604 18.0579C10.8604 18.0763 10.8454 18.0913 10.8269 18.0913C10.8084 18.0913 10.7935 18.0763 10.7935 18.0579C10.7935 18.0394 10.8084 18.0244 10.8269 18.0244C10.8454 18.0244 10.8604 18.0394 10.8604 18.0579Z" fill="white"/>
<path d="M10.9951 18.0579C10.9951 18.0763 10.9802 18.0913 10.9617 18.0913C10.9432 18.0913 10.9282 18.0763 10.9282 18.0579C10.9282 18.0394 10.9432 18.0244 10.9617 18.0244C10.9802 18.0244 10.9951 18.0394 10.9951 18.0579Z" fill="white"/>
<path d="M11.1289 18.0579C11.1289 18.0763 11.1139 18.0913 11.0955 18.0913C11.077 18.0913 11.062 18.0763 11.062 18.0579C11.062 18.0394 11.077 18.0244 11.0955 18.0244C11.1139 18.0244 11.1289 18.0394 11.1289 18.0579Z" fill="white"/>
<path d="M11.2642 18.0579C11.2642 18.0763 11.2492 18.0913 11.2307 18.0913C11.2122 18.0913 11.1973 18.0763 11.1973 18.0579C11.1973 18.0394 11.2122 18.0244 11.2307 18.0244C11.2492 18.0244 11.2642 18.0394 11.2642 18.0579Z" fill="white"/>
<path d="M11.3989 18.0579C11.3989 18.0763 11.3839 18.0913 11.3655 18.0913C11.347 18.0913 11.332 18.0763 11.332 18.0579C11.332 18.0394 11.347 18.0244 11.3655 18.0244C11.3839 18.0244 11.3989 18.0394 11.3989 18.0579Z" fill="white"/>
<path d="M10.0532 18.2019C10.0532 18.2204 10.0382 18.2353 10.0198 18.2353C10.0013 18.2353 9.98633 18.2204 9.98633 18.2019C9.98633 18.1834 10.0013 18.1685 10.0198 18.1685C10.0382 18.1685 10.0532 18.1834 10.0532 18.2019Z" fill="white"/>
<path d="M10.1875 18.2017C10.1875 18.2201 10.1725 18.2351 10.1541 18.2351C10.1356 18.2351 10.1206 18.2201 10.1206 18.2017C10.1206 18.1832 10.1356 18.1682 10.1541 18.1682C10.1725 18.1682 10.1875 18.1832 10.1875 18.2017Z" fill="white"/>
<path d="M10.3232 18.2017C10.3232 18.2201 10.3083 18.2351 10.2898 18.2351C10.2713 18.2351 10.2563 18.2201 10.2563 18.2017C10.2563 18.1832 10.2713 18.1682 10.2898 18.1682C10.3083 18.1682 10.3232 18.1832 10.3232 18.2017Z" fill="white"/>
<path d="M10.4236 18.2351C10.4421 18.2351 10.457 18.2201 10.457 18.2017C10.457 18.1832 10.4421 18.1682 10.4236 18.1682C10.4051 18.1682 10.3901 18.1832 10.3901 18.2017C10.3901 18.2201 10.4051 18.2351 10.4236 18.2351Z" fill="white"/>
<path d="M10.5918 18.2017C10.5918 18.2201 10.5768 18.2351 10.5583 18.2351C10.5399 18.2351 10.5249 18.2201 10.5249 18.2017C10.5249 18.1832 10.5399 18.1682 10.5583 18.1682C10.5768 18.1682 10.5918 18.1832 10.5918 18.2017Z" fill="white"/>
<path d="M10.6921 18.2351C10.7106 18.2351 10.7256 18.2201 10.7256 18.2017C10.7256 18.1832 10.7106 18.1682 10.6921 18.1682C10.6737 18.1682 10.6587 18.1832 10.6587 18.2017C10.6587 18.2201 10.6737 18.2351 10.6921 18.2351Z" fill="white"/>
<path d="M10.8613 18.2017C10.8613 18.2201 10.8464 18.2351 10.8279 18.2351C10.8094 18.2351 10.7944 18.2201 10.7944 18.2017C10.7944 18.1832 10.8094 18.1682 10.8279 18.1682C10.8464 18.1682 10.8613 18.1832 10.8613 18.2017Z" fill="white"/>
<path d="M10.9956 18.2017C10.9956 18.2201 10.9806 18.2351 10.9622 18.2351C10.9437 18.2351 10.9287 18.2201 10.9287 18.2017C10.9287 18.1832 10.9437 18.1682 10.9622 18.1682C10.9806 18.1682 10.9956 18.1832 10.9956 18.2017Z" fill="white"/>
<path d="M11.1294 18.2017C11.1294 18.2201 11.1144 18.2351 11.0959 18.2351C11.0775 18.2351 11.0625 18.2201 11.0625 18.2017C11.0625 18.1832 11.0775 18.1682 11.0959 18.1682C11.1144 18.1682 11.1294 18.1832 11.1294 18.2017Z" fill="white"/>
<path d="M11.2646 18.2017C11.2646 18.2201 11.2497 18.2351 11.2312 18.2351C11.2127 18.2351 11.1978 18.2201 11.1978 18.2017C11.1978 18.1832 11.2127 18.1682 11.2312 18.1682C11.2497 18.1682 11.2646 18.1832 11.2646 18.2017Z" fill="white"/>
<path d="M11.3999 18.2017C11.3999 18.2201 11.3849 18.2351 11.3665 18.2351C11.348 18.2351 11.333 18.2201 11.333 18.2017C11.333 18.1832 11.348 18.1682 11.3665 18.1682C11.3849 18.1682 11.3999 18.1832 11.3999 18.2017Z" fill="white"/>
<path d="M10.0532 18.345C10.0532 18.3634 10.0382 18.3784 10.0198 18.3784C10.0013 18.3784 9.98633 18.3634 9.98633 18.345C9.98633 18.3265 10.0013 18.3115 10.0198 18.3115C10.0382 18.3115 10.0532 18.3265 10.0532 18.345Z" fill="white"/>
<path d="M10.187 18.3452C10.187 18.3637 10.172 18.3787 10.1536 18.3787C10.1351 18.3787 10.1201 18.3637 10.1201 18.3452C10.1201 18.3267 10.1351 18.3118 10.1536 18.3118C10.172 18.3118 10.187 18.3267 10.187 18.3452Z" fill="white"/>
<path d="M10.3228 18.3452C10.3228 18.3637 10.3078 18.3787 10.2893 18.3787C10.2708 18.3787 10.2559 18.3637 10.2559 18.3452C10.2559 18.3267 10.2708 18.3118 10.2893 18.3118C10.3078 18.3118 10.3228 18.3267 10.3228 18.3452Z" fill="white"/>
<path d="M10.457 18.3452C10.457 18.3637 10.4421 18.3787 10.4236 18.3787C10.4051 18.3787 10.3901 18.3637 10.3901 18.3452C10.3901 18.3267 10.4051 18.3118 10.4236 18.3118C10.442 18.3118 10.457 18.3267 10.457 18.3452Z" fill="white"/>
<path d="M10.5918 18.3452C10.5918 18.3637 10.5768 18.3787 10.5583 18.3787C10.5399 18.3787 10.5249 18.3637 10.5249 18.3452C10.5249 18.3267 10.5399 18.3118 10.5583 18.3118C10.5768 18.3118 10.5918 18.3267 10.5918 18.3452Z" fill="white"/>
<path d="M10.7256 18.3452C10.7256 18.3637 10.7106 18.3787 10.6921 18.3787C10.6737 18.3787 10.6587 18.3637 10.6587 18.3452C10.6587 18.3267 10.6737 18.3118 10.6921 18.3118C10.7106 18.3118 10.7256 18.3267 10.7256 18.3452Z" fill="white"/>
<path d="M10.8613 18.3452C10.8613 18.3637 10.8464 18.3787 10.8279 18.3787C10.8094 18.3787 10.7944 18.3637 10.7944 18.3452C10.7944 18.3267 10.8094 18.3118 10.8279 18.3118C10.8464 18.3118 10.8613 18.3267 10.8613 18.3452Z" fill="white"/>
<path d="M10.9951 18.3452C10.9951 18.3637 10.9802 18.3787 10.9617 18.3787C10.9432 18.3787 10.9282 18.3637 10.9282 18.3452C10.9282 18.3267 10.9432 18.3118 10.9617 18.3118C10.9802 18.3118 10.9951 18.3267 10.9951 18.3452Z" fill="white"/>
<path d="M11.1294 18.3452C11.1294 18.3637 11.1144 18.3787 11.0959 18.3787C11.0775 18.3787 11.0625 18.3637 11.0625 18.3452C11.0625 18.3267 11.0775 18.3118 11.0959 18.3118C11.1144 18.3118 11.1294 18.3267 11.1294 18.3452Z" fill="white"/>
<path d="M11.2646 18.3452C11.2646 18.3637 11.2497 18.3787 11.2312 18.3787C11.2127 18.3787 11.1978 18.3637 11.1978 18.3452C11.1978 18.3267 11.2127 18.3118 11.2312 18.3118C11.2497 18.3118 11.2646 18.3267 11.2646 18.3452Z" fill="white"/>
<path d="M11.3999 18.3452C11.3999 18.3637 11.3849 18.3787 11.3665 18.3787C11.348 18.3787 11.333 18.3637 11.333 18.3452C11.333 18.3267 11.348 18.3118 11.3665 18.3118C11.3849 18.3118 11.3999 18.3267 11.3999 18.3452Z" fill="white"/>
<path d="M10.0522 18.4863C10.0522 18.5048 10.0373 18.5198 10.0188 18.5198C10.0003 18.5198 9.98535 18.5048 9.98535 18.4863C9.98535 18.4679 10.0003 18.4529 10.0188 18.4529C10.0373 18.4529 10.0522 18.4679 10.0522 18.4863Z" fill="white"/>
<path d="M10.1865 18.4863C10.1865 18.5048 10.1715 18.5198 10.1531 18.5198C10.1346 18.5198 10.1196 18.5048 10.1196 18.4863C10.1196 18.4679 10.1346 18.4529 10.1531 18.4529C10.1715 18.4529 10.1865 18.4679 10.1865 18.4863Z" fill="white"/>
<path d="M10.3218 18.4863C10.3218 18.5048 10.3068 18.5198 10.2883 18.5198C10.2699 18.5198 10.2549 18.5048 10.2549 18.4863C10.2549 18.4679 10.2699 18.4529 10.2883 18.4529C10.3068 18.4529 10.3218 18.4679 10.3218 18.4863Z" fill="white"/>
<path d="M10.4565 18.4863C10.4565 18.5048 10.4416 18.5198 10.4231 18.5198C10.4046 18.5198 10.3896 18.5048 10.3896 18.4863C10.3896 18.4679 10.4046 18.4529 10.4231 18.4529C10.4416 18.4529 10.4565 18.4679 10.4565 18.4863Z" fill="white"/>
<path d="M10.5913 18.4863C10.5913 18.5048 10.5763 18.5198 10.5579 18.5198C10.5394 18.5198 10.5244 18.5048 10.5244 18.4863C10.5244 18.4679 10.5394 18.4529 10.5579 18.4529C10.5763 18.4529 10.5913 18.4679 10.5913 18.4863Z" fill="white"/>
<path d="M10.7246 18.4863C10.7246 18.5048 10.7096 18.5198 10.6912 18.5198C10.6727 18.5198 10.6577 18.5048 10.6577 18.4863C10.6577 18.4679 10.6727 18.4529 10.6912 18.4529C10.7096 18.4529 10.7246 18.4679 10.7246 18.4863Z" fill="white"/>
<path d="M10.8608 18.4863C10.8608 18.5048 10.8459 18.5198 10.8274 18.5198C10.8089 18.5198 10.7939 18.5048 10.7939 18.4863C10.7939 18.4679 10.8089 18.4529 10.8274 18.4529C10.8459 18.4529 10.8608 18.4679 10.8608 18.4863Z" fill="white"/>
<path d="M10.9951 18.4863C10.9951 18.5048 10.9802 18.5198 10.9617 18.5198C10.9432 18.5198 10.9282 18.5048 10.9282 18.4863C10.9282 18.4679 10.9432 18.4529 10.9617 18.4529C10.9802 18.4529 10.9951 18.4679 10.9951 18.4863Z" fill="white"/>
<path d="M11.1284 18.4863C11.1284 18.5048 11.1134 18.5198 11.095 18.5198C11.0765 18.5198 11.0615 18.5048 11.0615 18.4863C11.0615 18.4679 11.0765 18.4529 11.095 18.4529C11.1134 18.4529 11.1284 18.4679 11.1284 18.4863Z" fill="white"/>
<path d="M11.2637 18.4863C11.2637 18.5048 11.2487 18.5198 11.2302 18.5198C11.2118 18.5198 11.1968 18.5048 11.1968 18.4863C11.1968 18.4679 11.2118 18.4529 11.2302 18.4529C11.2487 18.4529 11.2637 18.4679 11.2637 18.4863Z" fill="white"/>
<path d="M11.3989 18.4863C11.3989 18.5048 11.3839 18.5198 11.3655 18.5198C11.347 18.5198 11.332 18.5048 11.332 18.4863C11.332 18.4679 11.347 18.4529 11.3655 18.4529C11.3839 18.4529 11.3989 18.4679 11.3989 18.4863Z" fill="white"/>
<path d="M17.249 25.321H21.0159" stroke="#111021" stroke-width="0.375" stroke-miterlimit="10" stroke-linecap="round"/>
<path d="M24.8647 25.321H27.309" stroke="#111021" stroke-width="0.375" stroke-miterlimit="10" stroke-linecap="round"/>
<path d="M4.0625 25.2876H9.88639" stroke="#111021" stroke-width="0.375" stroke-miterlimit="10" stroke-linecap="round"/>
<path d="M16.9297 8.72432C16.9481 8.78298 16.995 8.82241 17.0345 8.81238C17.0741 8.80235 17.0912 8.74666 17.0729 8.68801C17.0545 8.62935 17.0076 8.58992 16.968 8.59994C16.9285 8.60998 16.9114 8.66566 16.9297 8.72432Z" fill="#111021"/>
<path d="M16.1036 8.90644C16.1219 8.9651 16.1689 9.00453 16.2084 8.99451C16.2479 8.98447 16.265 8.92879 16.2467 8.87014C16.2283 8.81147 16.1814 8.77205 16.1419 8.78207C16.1023 8.79209 16.0852 8.84779 16.1036 8.90644Z" fill="#111021"/>
<path d="M17.2537 8.37842C17.2537 8.37842 16.9541 8.18819 16.7788 8.34208" stroke="#111021" stroke-width="0.1875" stroke-miterlimit="10" stroke-linecap="round"/>
<path d="M16.3156 8.42991C16.3156 8.42991 16.0722 8.33901 15.999 8.55461" stroke="#111021" stroke-width="0.1875" stroke-miterlimit="10" stroke-linecap="round"/>
<path d="M16.5121 8.82812C16.5121 8.82812 16.4391 9.29831 16.4775 9.32832C16.5158 9.35833 16.739 9.3555 16.7958 9.29836" stroke="#D33737" stroke-width="0.25" stroke-miterlimit="10" stroke-linecap="round"/>
<path d="M16.4951 9.6846C16.4951 9.6846 16.5524 9.75472 16.7526 9.71637C16.9528 9.67802 17.1004 9.55151 17.1004 9.55151" stroke="#D33737" stroke-width="0.25" stroke-miterlimit="10" stroke-linecap="round"/>
<path d="M18.0291 8.433C18.027 8.41096 18.0293 8.38921 18.0341 8.36768C18.0368 8.35706 18.0398 8.34631 18.0436 8.33571C18.0474 8.32514 18.0522 8.31484 18.0575 8.30466C18.079 8.26428 18.1146 8.22689 18.1609 8.2047C18.2071 8.18209 18.2607 8.17704 18.3081 8.18414C18.3559 8.19142 18.3993 8.2083 18.4372 8.23064L18.4443 8.23468C18.4477 8.23713 18.4487 8.23811 18.4504 8.23956C18.4522 8.24099 18.4533 8.24222 18.4547 8.24354C18.4575 8.24617 18.4599 8.24874 18.4622 8.2513C18.4671 8.25645 18.4711 8.26166 18.4753 8.26694C18.4833 8.27749 18.4901 8.28863 18.4957 8.30005C18.5073 8.3228 18.5146 8.34695 18.5184 8.37086C18.5217 8.39492 18.5213 8.41878 18.5175 8.44156C18.517 8.44724 18.5158 8.45285 18.5142 8.45841L18.5097 8.47484C18.5082 8.48024 18.5058 8.48551 18.5037 8.49072C18.5015 8.49593 18.4993 8.50106 18.4968 8.50606L18.4963 8.50706C18.4954 8.50872 18.4934 8.50938 18.4917 8.50853C18.4905 8.50793 18.4899 8.50671 18.4899 8.50546C18.4901 8.49522 18.4907 8.485 18.4907 8.4748C18.4899 8.46463 18.4902 8.45438 18.4886 8.44431C18.4873 8.43421 18.486 8.42414 18.4835 8.41429C18.4819 8.40427 18.4785 8.39469 18.4758 8.38495C18.4691 8.36589 18.4603 8.34754 18.4492 8.33082C18.4381 8.31426 18.4244 8.29852 18.409 8.2872L18.4097 8.28763C18.3742 8.27072 18.3367 8.25785 18.2982 8.25239C18.2599 8.2463 18.22 8.24865 18.184 8.26291C18.1478 8.27679 18.1165 8.30174 18.092 8.33216C18.0678 8.36266 18.048 8.39761 18.0358 8.4348C18.0352 8.43657 18.0333 8.43753 18.0315 8.43696C18.0302 8.43652 18.0293 8.43537 18.0292 8.43408L18.0291 8.433Z" fill="#D33737"/>
<path d="M9.66992 15.259C9.81526 15.1623 9.95974 15.0662 10.1052 14.9695C10.1075 14.9746 10.1093 14.9786 10.1111 14.9827C10.1912 15.1628 10.2711 15.3431 10.3518 15.523C10.3689 15.5611 10.3663 15.597 10.3464 15.6324C10.3098 15.6978 10.2242 15.7354 10.1512 15.7185C10.0729 15.7004 10.0386 15.6252 10.0793 15.5559C10.1167 15.4923 10.1753 15.4644 10.2482 15.465C10.2516 15.465 10.2549 15.4653 10.2593 15.4655C10.2145 15.3647 10.17 15.2648 10.1251 15.1639C10.1073 15.1756 10.0898 15.187 10.0725 15.1985C9.98192 15.2588 9.89143 15.3192 9.80068 15.3792C9.79368 15.3838 9.79283 15.3874 9.79615 15.3948C9.85487 15.5262 9.91248 15.6581 9.97227 15.789C9.9968 15.8427 9.9862 15.8886 9.94966 15.9308C9.90069 15.9873 9.8161 16.009 9.75197 15.9828C9.69764 15.9605 9.67216 15.9056 9.69162 15.8501C9.70931 15.7997 9.74658 15.7684 9.79488 15.7489C9.82107 15.7383 9.8484 15.7344 9.87661 15.7367C9.87821 15.7368 9.87983 15.7366 9.8824 15.7365C9.81152 15.5772 9.74103 15.4188 9.66992 15.259Z" fill="white"/>
<path d="M11.2578 12.6376C11.3909 12.5833 11.5233 12.5294 11.6565 12.4751C11.6575 12.4796 11.6583 12.4832 11.6591 12.4867C11.6943 12.6452 11.7293 12.8038 11.765 12.9622C11.7725 12.9958 11.7646 13.0244 11.7427 13.0497C11.7025 13.0965 11.6272 13.1128 11.5711 13.0872C11.5108 13.0598 11.4955 12.9935 11.5396 12.9442C11.5802 12.899 11.6321 12.8861 11.6909 12.8985C11.6936 12.899 11.6962 12.8998 11.6998 12.9007C11.68 12.812 11.6605 12.7241 11.6408 12.6353C11.6245 12.6418 11.6085 12.6482 11.5926 12.6546C11.5097 12.6884 11.4267 12.7224 11.3437 12.756C11.3373 12.7586 11.336 12.7613 11.3374 12.7678C11.3633 12.8835 11.3883 12.9994 11.4151 13.1148C11.4261 13.1622 11.41 13.1975 11.3736 13.2256C11.3248 13.2632 11.253 13.2669 11.2055 13.2352C11.1653 13.2083 11.1537 13.1598 11.1785 13.1182C11.201 13.0805 11.2363 13.0613 11.2784 13.0534C11.3013 13.0492 11.324 13.0505 11.3464 13.0569C11.3477 13.0573 11.349 13.0574 11.3511 13.0577C11.32 12.9176 11.289 12.7782 11.2578 12.6376Z" fill="white"/>
<path d="M11.7456 14.9279C11.7761 14.8972 11.8132 14.8667 11.8419 14.8297C11.9274 14.7191 11.9803 14.5956 11.9711 14.4523C11.9661 14.3741 11.9308 14.3092 11.8747 14.2553C11.8718 14.2526 11.8682 14.2506 11.8628 14.2467C11.8588 14.2539 11.8553 14.2603 11.8517 14.2666C11.6945 14.5507 11.5372 14.8348 11.3799 15.1189C11.3191 15.2287 11.2321 15.2743 11.1076 15.2554C10.9774 15.2356 10.878 15.1685 10.8221 15.047C10.7745 14.9434 10.8036 14.8353 10.8907 14.7794C10.9643 14.7321 11.0447 14.7286 11.1265 14.7509C11.2177 14.7758 11.2912 14.827 11.3437 14.9068C11.3455 14.9097 11.3476 14.9124 11.3496 14.915C11.35 14.9155 11.3509 14.9154 11.3547 14.9165C11.358 14.9105 11.3617 14.9037 11.3655 14.8969C11.5333 14.5938 11.7013 14.2907 11.8686 13.9873C11.8775 13.9713 11.8847 13.9658 11.903 13.974C11.929 13.9857 11.9566 13.9935 11.9832 14.004C11.9881 14.006 11.9936 14.0124 11.9944 14.0174C12.008 14.0999 12.0193 14.1828 12.0341 14.2651C12.0525 14.3679 12.0615 14.4704 12.0311 14.5722C11.9973 14.6853 11.9468 14.7891 11.8561 14.8687C11.8185 14.9016 11.7748 14.9236 11.7456 14.9279Z" fill="white"/>
<path d="M10.6403 13.8128C10.6515 13.7918 10.6662 13.7699 10.6754 13.7458C10.7028 13.6739 10.711 13.6004 10.6833 13.5265C10.6682 13.4861 10.6393 13.4576 10.6012 13.4381C10.5992 13.4371 10.597 13.4366 10.5935 13.4354C10.5926 13.4399 10.5917 13.4438 10.5909 13.4477C10.5533 13.6224 10.5157 13.797 10.4781 13.9716C10.4636 14.0391 10.4251 14.077 10.3565 14.0869C10.2848 14.0972 10.2217 14.0777 10.1729 14.0226C10.1313 13.9757 10.1295 13.9141 10.1664 13.8708C10.1977 13.8341 10.2394 13.8195 10.2861 13.8182C10.3381 13.8168 10.385 13.8321 10.4253 13.8658C10.4267 13.8669 10.4282 13.868 10.4297 13.8691C10.43 13.8693 10.4304 13.8691 10.4326 13.8691C10.4334 13.8654 10.4343 13.8612 10.4352 13.8571C10.4753 13.6707 10.5155 13.4843 10.5553 13.2979C10.5574 13.2881 10.5603 13.284 10.5712 13.2854C10.5868 13.2874 10.6026 13.2872 10.6183 13.2885C10.6212 13.2887 10.6251 13.2912 10.6263 13.2937C10.6466 13.335 10.6658 13.3769 10.6866 13.4178C10.7127 13.4691 10.7338 13.5216 10.734 13.5801C10.7342 13.645 10.7242 13.7077 10.689 13.7641C10.6745 13.7874 10.655 13.8059 10.6403 13.8128Z" fill="white"/>
</svg>
