<svg width="233" height="104" viewBox="0 0 233 104" fill="none" xmlns="http://www.w3.org/2000/svg">
<path d="M144.914 14.9075V3.674H140.838V1.22459H151.411V3.674H147.456V14.9075H144.954H144.914ZM152.42 14.9075V1.22459H154.963V14.9075H152.42ZM162.631 15.0342C160.774 15.0342 159.2 14.3585 157.909 13.0071C156.617 11.6557 155.972 10.0087 155.972 8.06605C155.972 6.12342 156.617 4.4764 157.909 3.125C159.2 1.7736 160.774 1.05566 162.631 1.05566C163.962 1.05566 165.173 1.43575 166.222 2.19591C167.272 2.95607 168.079 3.96962 168.604 5.23656L166.222 5.95449C165.859 5.23656 165.375 4.64532 164.77 4.22301C164.164 3.8007 163.438 3.58954 162.631 3.54731C161.46 3.54731 160.451 3.96962 159.685 4.85648C158.877 5.74333 158.514 6.79912 158.514 8.06605C158.514 9.33299 158.918 10.3888 159.685 11.2334C160.492 12.1203 161.46 12.5426 162.631 12.5426C164.245 12.5426 165.415 11.7824 166.182 10.2198L168.604 10.8955C168.079 12.1625 167.272 13.1338 166.222 13.894C165.173 14.6541 163.962 15.0342 162.631 15.0342ZM169.572 14.9075V1.22459H172.115V7.98159L177.765 1.22459H180.872L175.505 7.55928L181.034 14.9497H177.926L173.85 9.54415L172.115 11.5712V14.992H169.572V14.9075ZM181.558 14.9075V1.22459H190.962V3.63177H184.101V6.84135H190.235V9.24853H184.101V12.4581H190.962V14.9075H181.558ZM195.885 14.9075V3.674H191.809V1.22459H202.383V3.674H198.428V14.9075H195.926H195.885ZM203.392 14.9075V1.22459H205.934V14.9075H203.392ZM207.428 14.9075V1.22459H211.584L216.427 12.5848V1.22459H218.889V14.9075H214.853L209.889 3.25169V14.9075H207.428ZM226.517 15.0764C224.66 15.0764 223.086 14.4007 221.795 13.0493C220.503 11.6979 219.858 10.0509 219.858 8.10829C219.858 6.16565 220.503 4.51863 221.795 3.16723C223.086 1.81583 224.66 1.0979 226.517 1.0979C227.849 1.0979 229.059 1.47798 230.109 2.19591C231.158 2.95607 231.965 3.92739 232.49 5.19433L230.068 5.91226C229.745 5.19433 229.261 4.60309 228.615 4.22301C228.01 3.8007 227.284 3.63177 226.517 3.63177C225.346 3.63177 224.337 4.05408 223.571 4.94094C222.763 5.8278 222.4 6.88358 222.4 8.15052C222.4 9.41745 222.804 10.4732 223.571 11.3179C224.378 12.1625 225.346 12.627 226.517 12.627C227.405 12.627 228.212 12.3736 228.898 11.8246C229.584 11.2756 230.068 10.5577 230.351 9.58638H226.557L226.517 7.34812H232.813V8.31944C232.813 10.2621 232.207 11.9091 230.996 13.176C229.786 14.443 228.292 15.0764 226.476 15.0764H226.517ZM146.084 32.898C144.268 32.8558 142.492 32.2646 140.797 31.0399V28.2948C142.734 29.7307 144.55 30.4486 146.205 30.4486C146.891 30.4486 147.416 30.3219 147.819 30.0685C148.223 29.8152 148.425 29.4351 148.425 28.9705C148.425 28.506 148.142 28.0837 147.618 27.7881C147.093 27.4502 146.205 27.1546 144.954 26.8167C143.501 26.4367 142.452 25.9721 141.766 25.3386C141.08 24.7052 140.757 23.9028 140.757 22.9737C140.757 21.7912 141.201 20.8199 142.129 20.0597C143.057 19.2996 144.187 18.9617 145.519 18.9617C147.254 18.9617 148.909 19.4263 150.443 20.3976V23.1004C149.716 22.5936 148.909 22.2135 148.021 21.8757C147.133 21.5378 146.286 21.3689 145.519 21.3689C144.873 21.3689 144.308 21.4956 143.905 21.7912C143.501 22.0868 143.259 22.4669 143.259 22.9315C143.259 23.1004 143.299 23.2693 143.38 23.4382C143.461 23.5649 143.582 23.7339 143.743 23.8183C143.945 23.945 144.107 24.0295 144.268 24.1139C144.429 24.1984 144.672 24.2829 145.035 24.3673C145.358 24.4518 145.64 24.5362 145.842 24.6207C146.044 24.6629 146.367 24.7474 146.81 24.8741C149.595 25.592 150.967 26.9434 150.967 29.0128C150.967 30.2797 150.483 31.251 149.555 31.969C148.627 32.6869 147.456 32.9825 146.124 32.9825L146.084 32.898ZM155.326 32.7291V28.4638L150.766 19.0462H153.469L156.537 25.4653L159.644 19.0462H162.308L157.828 28.3793V32.7291H155.286H155.326ZM167.554 32.898C165.738 32.8558 163.962 32.2646 162.267 31.0399V28.2948C164.205 29.7307 166.021 30.4486 167.675 30.4486C168.361 30.4486 168.886 30.3219 169.29 30.0685C169.693 29.8152 169.895 29.4351 169.895 28.9705C169.895 28.506 169.613 28.0837 169.088 27.7881C168.563 27.4502 167.675 27.1546 166.424 26.8167C164.971 26.4367 163.922 25.9721 163.236 25.3386C162.55 24.7052 162.227 23.9028 162.227 22.9737C162.227 21.7912 162.671 20.8199 163.599 20.0597C164.527 19.2996 165.657 18.9617 166.989 18.9617C168.725 18.9617 170.379 19.4263 171.913 20.3976V23.1004C171.186 22.5936 170.379 22.2135 169.491 21.8757C168.604 21.5378 167.756 21.3689 166.989 21.3689C166.344 21.3689 165.779 21.4956 165.375 21.7912C164.931 22.0868 164.729 22.4669 164.729 22.9315C164.729 23.1004 164.77 23.2693 164.85 23.4382C164.931 23.5649 165.052 23.7339 165.214 23.8183C165.415 23.945 165.577 24.0295 165.738 24.1139C165.9 24.1984 166.142 24.2829 166.505 24.3673C166.828 24.4518 167.11 24.5362 167.312 24.6207C167.514 24.6629 167.837 24.7474 168.281 24.8741C171.065 25.592 172.438 26.9434 172.438 29.0128C172.438 30.2797 171.953 31.251 171.025 31.969C170.097 32.6869 168.926 32.9825 167.595 32.9825L167.554 32.898ZM177.079 32.7291V21.4956H173.003V19.0462H183.576V21.4956H179.621V32.7291H177.119H177.079ZM184.545 32.7291V19.0462H193.948V21.4534H187.087V24.6629H193.222V27.0701H187.087V30.2797H193.948V32.7291H184.545ZM195.199 32.7291V19.0462H199.235L202.665 30.7865L206.096 19.0462H210.172V32.7291H207.75V21.5378L204.481 32.7291H200.89L197.621 21.5801V32.7291H195.199Z" fill="#DA151E"/>
<path fill-rule="evenodd" clip-rule="evenodd" d="M108.511 84.5892C102.215 84.5892 96.888 80.2816 95.0315 74.3693H121.95H132.806C133.048 72.8912 133.21 71.3708 133.21 69.8083C133.21 67.1477 132.806 64.5716 132.08 62.1222C129.497 53.507 122.717 46.7922 114.242 44.6807C112.829 44.3428 111.417 44.0894 109.923 44.005H107.058C105.524 44.0894 103.991 44.3428 102.538 44.7229C94.1436 46.8767 87.4846 53.5492 84.9017 62.1222C84.1753 64.5294 83.7717 67.1477 83.7717 69.8083C83.7717 71.3708 83.8928 72.8912 84.1753 74.3693C86.2336 86.4474 96.3229 95.6116 108.471 95.6116C117.793 95.6116 125.905 90.206 130.102 82.2243L119.407 79.1836C116.825 82.4777 112.87 84.5892 108.471 84.5892H108.511ZM48.1763 24.9587V0.0844625H36.4726H24.4461H24.325C19.926 0.0844625 15.8095 1.3514 12.2984 3.50519C5.27621 7.85501 0.594727 15.8367 0.594727 24.9587C0.594727 29.0551 1.56331 32.9404 3.21797 36.3611C5.27621 40.542 8.4241 44.005 12.2984 46.4122C12.3388 46.4122 12.3388 46.4544 12.3791 46.4544C15.8903 48.6082 20.0067 49.8751 24.4057 49.8751C28.8047 49.8751 32.8808 48.6504 36.4323 46.4544C36.4726 46.4544 36.4726 46.4122 36.513 46.4122V47.7636C36.513 54.7317 31.1051 60.3907 24.4461 60.3907C18.5135 60.3907 13.5899 55.9142 12.5809 50.0018H12.3791H0.756157C1.44224 58.1947 5.96229 65.2051 12.3791 69.1748C15.9306 71.3708 20.0471 72.5955 24.4461 72.5955C28.845 72.5955 32.9615 71.3286 36.513 69.1748C42.9298 65.2051 47.4095 58.1524 48.136 50.0018C48.2167 49.2416 48.2167 48.4815 48.2167 47.7213V24.9164L48.1763 24.9587ZM12.2984 26.3101V24.9587C12.2984 17.9905 17.7063 12.3315 24.3654 12.3315H36.4323V24.9587V26.3101C36.3919 26.3101 36.3919 26.2678 36.3516 26.2678C35.9076 30.7444 33.244 34.5029 29.5311 36.3611C27.9572 37.1635 26.1814 37.5858 24.325 37.5858C22.4685 37.5858 20.6928 37.1635 19.1189 36.3611C15.406 34.5029 12.7424 30.7444 12.2984 26.2678C12.2581 26.2678 12.2581 26.3101 12.2177 26.3101H12.2984ZM35.1812 2.82949C34.4144 2.78726 33.244 2.19603 31.6297 1.56256C33.244 2.19603 34.374 2.82949 35.1812 2.82949ZM35.3023 2.82949H35.2619H35.3023ZM62.3015 11.4869H81.9153V0H62.3015H50.6381V49.9596H61.0504H62.3419C62.3015 38.346 62.3015 26.0989 62.3015 14.4009C62.3015 13.4295 62.3015 12.4582 62.3015 11.4447V11.4869ZM107.26 29.1818C101.085 29.1818 96.0808 23.9451 96.0808 17.4837V0H89.9464H84.3771V17.4837C84.3771 26.479 89.0989 34.2918 96.0808 38.3882C98.5426 39.8241 101.327 40.8376 104.273 41.2177C105.242 41.3444 106.251 41.4289 107.26 41.4289C108.269 41.4289 109.278 41.3444 110.246 41.2177C113.192 40.8376 115.937 39.8241 118.439 38.3882C125.421 34.2918 130.143 26.479 130.143 17.4837V0H124.573H118.439V17.4837C118.439 23.9451 113.435 29.1818 107.26 29.1818ZM51.2839 67.4011H38.9748L50.0731 103.171H51.6874H62.3822H67.8708H69.3641L79.4131 70.7796L83.2067 58.5325L88.3725 41.9779L89.0989 39.6129L88.5339 41.4289H76.2249L76.0634 41.9779L60.6065 91.7263H58.8307L51.2839 67.4011ZM120.618 62.0377H96.4037C98.9058 57.7724 103.386 54.9006 108.511 54.9006C113.636 54.9006 118.116 57.7724 120.618 62.0377Z" fill="#1C191C"/>
</svg>
