<svg width="49" height="48" viewBox="0 0 49 48" fill="none" xmlns="http://www.w3.org/2000/svg">
<path d="M16.5325 10.86C16.3936 11.0044 16.2804 11.1714 16.1975 11.3538L16.1875 11.3438L2.1675 42.925L2.18125 42.9388C1.92125 43.4425 2.35625 44.4675 3.2475 45.36C4.1375 46.25 5.1625 46.685 5.66625 46.425L5.67875 46.4375L37.2625 32.4188L37.2525 32.4075C37.4375 32.32 37.605 32.2138 37.7463 32.0725C39.6988 30.12 36.5325 23.7888 30.675 17.9313C24.8175 12.0725 18.485 8.90753 16.5325 10.86Z" fill="#EECC82"/>
<path d="M18.25 16.5L2.52 42.1325L2.1675 42.9263L2.18125 42.9388C1.92125 43.4438 2.35625 44.4675 3.2475 45.36C3.51552 45.625 3.81285 45.8586 4.13375 46.0563L23.25 22.75L18.25 16.5Z" fill="#DE8721"/>
<path d="M30.765 17.8325C36.6025 23.6725 39.8438 29.8975 38.0013 31.7388C36.16 33.58 29.935 30.34 24.0938 24.5025C18.255 18.6625 15.015 12.4363 16.8563 10.5938C18.6988 8.75251 24.9238 11.9938 30.765 17.8325Z" fill="#B35204"/>
<path d="M25.2375 18.5125C25.11 18.6159 24.9633 18.6929 24.8057 18.739C24.6482 18.7852 24.4831 18.7995 24.32 18.7812C23.235 18.6637 22.3225 18.2862 21.6837 17.69C21.0075 17.0587 20.6737 16.2125 20.765 15.3625C20.925 13.8725 22.42 12.505 24.9687 12.7812C25.96 12.8875 26.4025 12.5687 26.4162 12.4162C26.4337 12.265 26.07 11.8587 25.08 11.7512C23.9937 11.6337 23.0825 11.2562 22.4425 10.66C21.7662 10.0287 21.4312 9.18123 21.5237 8.33248C21.6862 6.84248 23.18 5.47499 25.7262 5.75124C26.4487 5.82874 26.8287 5.67873 26.99 5.58249C27.12 5.50373 27.1712 5.42873 27.1762 5.38623C27.19 5.23498 26.8312 4.82873 25.8375 4.72123C25.513 4.6795 25.2178 4.51222 25.0153 4.2553C24.8128 3.99838 24.719 3.6723 24.7542 3.34705C24.7894 3.02179 24.9507 2.72329 25.2035 2.51562C25.4562 2.30794 25.7803 2.20763 26.1062 2.23623C28.6525 2.50998 29.8225 4.16373 29.6612 5.65498C29.5 7.14498 28.0062 8.51124 25.4575 8.23623C24.735 8.15749 24.3562 8.30748 24.195 8.40373C24.0662 8.48248 24.0137 8.55873 24.0087 8.59999C23.9925 8.75249 24.3537 9.15873 25.3475 9.26623C27.8937 9.53998 29.0637 11.1937 28.9025 12.685C28.7412 14.175 27.2462 15.5425 24.7 15.2662C23.9775 15.1887 23.5975 15.3375 23.435 15.4337C23.3062 15.5125 23.2562 15.5887 23.2512 15.6312C23.235 15.7825 23.5962 16.1887 24.5887 16.2962C24.8351 16.3218 25.0682 16.4202 25.2585 16.5787C25.4487 16.7373 25.5875 16.9489 25.6571 17.1866C25.7267 17.4243 25.7239 17.6773 25.6492 17.9134C25.5745 18.1496 25.4311 18.3581 25.2375 18.5125Z" fill="#AA8DD8"/>
<path d="M40.3263 30.0713C42.7925 29.375 44.4938 30.475 44.8988 31.9188C45.3038 33.3613 44.4263 35.1875 41.9625 35.88C41 36.15 40.7113 36.61 40.75 36.7575C40.7925 36.905 41.2813 37.1475 42.2413 36.875C44.7063 36.1825 46.4075 37.2825 46.8125 38.725C47.2213 40.1688 46.3413 41.9925 43.875 42.6875C42.9138 42.9575 42.6238 43.4188 42.6663 43.565C42.7075 43.7113 43.195 43.9525 44.1563 43.6838C44.3157 43.6345 44.4835 43.6176 44.6496 43.6342C44.8157 43.6507 44.9768 43.7004 45.1234 43.7803C45.2699 43.8601 45.3991 43.9685 45.5031 44.099C45.6071 44.2296 45.6839 44.3796 45.729 44.5404C45.7741 44.7011 45.7865 44.8692 45.7656 45.0348C45.7446 45.2004 45.6907 45.3602 45.6071 45.5046C45.5234 45.649 45.4116 45.7752 45.2784 45.8758C45.1451 45.9763 44.9931 46.0492 44.8313 46.09C42.3688 46.7838 40.665 45.6863 40.2575 44.2413C39.8525 42.7988 40.7313 40.975 43.1988 40.28C44.16 40.0088 44.45 39.55 44.4075 39.4025C44.3663 39.2563 43.88 39.0125 42.9188 39.2825C40.4525 39.9775 38.7513 38.88 38.345 37.435C37.9388 35.9913 38.8175 34.1675 41.285 33.4725C42.2438 33.2038 42.5338 32.7413 42.4925 32.5963C42.45 32.4475 41.965 32.205 41.0025 32.4763C40.8425 32.5277 40.6738 32.5464 40.5064 32.5312C40.339 32.516 40.1764 32.4672 40.0284 32.3877C39.8803 32.3082 39.7497 32.1997 39.6446 32.0686C39.5394 31.9375 39.4617 31.7865 39.4163 31.6247C39.3708 31.4629 39.3584 31.2936 39.3798 31.1269C39.4012 30.9602 39.4561 30.7996 39.541 30.6545C39.626 30.5095 39.7393 30.3831 39.8742 30.2829C40.0091 30.1827 40.1629 30.1107 40.3263 30.0713Z" fill="#77B255"/>
<path d="M30.7512 26.7001C30.4924 26.6997 30.24 26.6191 30.0289 26.4693C29.8178 26.3195 29.6583 26.1079 29.5725 25.8637C29.4867 25.6195 29.4787 25.3547 29.5497 25.1058C29.6206 24.8569 29.767 24.6361 29.9687 24.4738C30.2412 24.2551 36.7412 19.1501 45.9275 20.4638C46.09 20.487 46.2463 20.5419 46.3875 20.6255C46.5287 20.7091 46.6521 20.8197 46.7505 20.951C46.849 21.0823 46.9206 21.2317 46.9612 21.3907C47.0019 21.5497 47.0108 21.7151 46.9875 21.8776C46.965 22.0404 46.9104 22.1972 46.8269 22.3389C46.7435 22.4805 46.6327 22.6042 46.5011 22.7028C46.3695 22.8013 46.2197 22.8729 46.0603 22.9132C45.9009 22.9535 45.7351 22.9618 45.5725 22.9376C37.4562 21.7851 31.5887 26.3801 31.5312 26.4263C31.3101 26.6039 31.0349 26.7005 30.7512 26.7001Z" fill="#AA8DD8"/>
<path d="M9.19249 21.5C8.99752 21.5001 8.80523 21.4545 8.63099 21.367C8.45676 21.2795 8.30541 21.1525 8.18905 20.996C8.07269 20.8396 7.99453 20.6581 7.96084 20.466C7.92714 20.274 7.93884 20.0767 7.99499 19.89C9.41124 15.1737 10.695 7.6475 9.11749 5.68625C8.93999 5.46375 8.67499 5.245 8.06499 5.29125C6.89124 5.38 7.00374 7.855 7.00499 7.88C7.02087 8.0456 7.00353 8.21271 6.95399 8.37152C6.90445 8.53033 6.82371 8.67766 6.7165 8.80487C6.60929 8.93207 6.47776 9.0366 6.32963 9.11232C6.1815 9.18804 6.01974 9.23342 5.85384 9.24582C5.68795 9.25822 5.52124 9.23737 5.3635 9.18451C5.20576 9.13165 5.06016 9.04783 4.93524 8.93797C4.81031 8.82811 4.70857 8.69442 4.63598 8.54473C4.56339 8.39504 4.5214 8.23237 4.51249 8.06625C4.38249 6.3425 4.91999 3.0225 7.87624 2.79875C9.19624 2.69875 10.2925 3.1575 11.0675 4.12C14.0312 7.80875 11.0225 18.5038 10.3887 20.61C10.3114 20.8672 10.1533 21.0926 9.93784 21.2529C9.72239 21.4132 9.46104 21.4998 9.19249 21.5Z" fill="#77B255"/>
<path d="M35.75 13.375C35.7499 13.6213 35.7013 13.8652 35.607 14.0927C35.5127 14.3203 35.3744 14.527 35.2002 14.7011C35.026 14.8752 34.8192 15.0133 34.5916 15.1075C34.364 15.2016 34.1201 15.2501 33.8737 15.25C33.6274 15.2499 33.3836 15.2013 33.156 15.107C32.9285 15.0127 32.7218 14.8744 32.5477 14.7002C32.3736 14.526 32.2355 14.3192 32.1413 14.0916C32.0471 13.864 31.9987 13.6201 31.9987 13.3737C31.9989 12.8763 32.1967 12.3993 32.5485 12.0477C32.9004 11.696 33.3776 11.4986 33.875 11.4988C34.3724 11.4989 34.8495 11.6967 35.2011 12.0485C35.5527 12.4004 35.7502 12.8776 35.75 13.375Z" fill="#5C913B"/>
<path d="M7 24C6.99992 24.3284 6.93515 24.6535 6.80941 24.9569C6.68367 25.2603 6.4994 25.5359 6.26714 25.768C6.03488 26.0002 5.75917 26.1843 5.45574 26.3099C5.15232 26.4355 4.82714 26.5001 4.49875 26.5C4.17036 26.4999 3.84521 26.4352 3.54185 26.3094C3.23849 26.1837 2.96287 25.9994 2.73072 25.7671C2.49858 25.5349 2.31445 25.2592 2.18886 24.9557C2.06327 24.6523 1.99867 24.3271 1.99875 23.9987C1.99891 23.3355 2.26253 22.6996 2.73161 22.2307C3.20068 21.7619 3.83679 21.4986 4.5 21.4988C5.16321 21.4989 5.79918 21.7625 6.26802 22.2316C6.73687 22.7007 7.00016 23.3368 7 24Z" fill="#9266CC"/>
<path d="M44.5 25.875C44.4999 26.1213 44.4513 26.3652 44.357 26.5927C44.2627 26.8203 44.1244 27.027 43.9502 27.2011C43.776 27.3752 43.5692 27.5133 43.3416 27.6075C43.114 27.7016 42.8701 27.7501 42.6237 27.75C42.3774 27.7499 42.1336 27.7013 41.906 27.607C41.6785 27.5127 41.4718 27.3744 41.2977 27.2002C41.1236 27.026 40.9855 26.8192 40.8913 26.5916C40.7971 26.364 40.7487 26.1201 40.7487 25.8737C40.7489 25.3763 40.9467 24.8993 41.2985 24.5477C41.6504 24.196 42.1276 23.9986 42.625 23.9988C43.1224 23.9989 43.5995 24.1967 43.9511 24.5485C44.3027 24.9004 44.5002 25.3776 44.5 25.875Z" fill="#5C913B"/>
<path d="M33.25 40.875C33.2499 41.1213 33.2013 41.3652 33.107 41.5927C33.0127 41.8203 32.8744 42.027 32.7002 42.2011C32.526 42.3752 32.3192 42.5133 32.0916 42.6075C31.864 42.7016 31.6201 42.7501 31.3737 42.75C31.1274 42.7499 30.8836 42.7013 30.656 42.607C30.4285 42.5127 30.2218 42.3744 30.0477 42.2002C29.8736 42.026 29.7355 41.8192 29.6413 41.5916C29.5471 41.364 29.4987 41.1201 29.4987 40.8737C29.4989 40.3763 29.6967 39.8993 30.0485 39.5477C30.4004 39.196 30.8776 38.9986 31.375 38.9988C31.8724 38.9989 32.3495 39.1967 32.7011 39.5485C33.0527 39.9004 33.2502 40.3776 33.25 40.875Z" fill="#5C913B"/>
<path d="M39.5 6.5C39.4999 6.82839 39.4352 7.15354 39.3094 7.4569C39.1837 7.76026 38.9994 8.03588 38.7671 8.26803C38.5349 8.50017 38.2592 8.6843 37.9557 8.80989C37.6523 8.93548 37.3271 9.00008 36.9987 9C36.6704 8.99992 36.3452 8.93516 36.0418 8.80941C35.7385 8.68367 35.4629 8.4994 35.2307 8.26714C34.9986 8.03488 34.8145 7.75917 34.6889 7.45575C34.5633 7.15232 34.4987 6.82714 34.4987 6.49875C34.4989 5.83554 34.7625 5.19956 35.2316 4.73072C35.7007 4.26188 36.3368 3.99858 37 3.99875C37.6632 3.99892 38.2992 4.26253 38.768 4.73161C39.2369 5.20068 39.5002 5.83679 39.5 6.5Z" fill="#FFCC4D"/>
<path d="M44.5 12.125C44.4999 12.3713 44.4513 12.6152 44.357 12.8427C44.2627 13.0703 44.1244 13.277 43.9502 13.4511C43.776 13.6252 43.5692 13.7633 43.3416 13.8575C43.114 13.9516 42.8701 14.0001 42.6237 14C42.3774 13.9999 42.1336 13.9513 41.906 13.857C41.6785 13.7627 41.4718 13.6244 41.2977 13.4502C41.1236 13.276 40.9855 13.0692 40.8913 12.8416C40.7971 12.614 40.7487 12.3701 40.7487 12.1237C40.7489 11.6263 40.9467 11.1493 41.2985 10.7977C41.6504 10.446 42.1276 10.2486 42.625 10.2488C43.1224 10.2489 43.5995 10.4467 43.9511 10.7985C44.3027 11.1504 44.5002 11.6276 44.5 12.125Z" fill="#FFCC4D"/>
<path d="M40.75 17.125C40.7499 17.3713 40.7013 17.6152 40.607 17.8427C40.5127 18.0703 40.3744 18.277 40.2002 18.4511C40.026 18.6252 39.8192 18.7633 39.5916 18.8575C39.364 18.9516 39.1201 19.0001 38.8737 19C38.6274 18.9999 38.3836 18.9513 38.156 18.857C37.9285 18.7627 37.7218 18.6244 37.5477 18.4502C37.3736 18.276 37.2355 18.0692 37.1413 17.8416C37.0471 17.614 36.9987 17.3701 36.9987 17.1237C36.9989 16.6263 37.1967 16.1493 37.5485 15.7977C37.9004 15.446 38.3776 15.2486 38.875 15.2488C39.3724 15.2489 39.8495 15.4467 40.2011 15.7985C40.5527 16.1504 40.7502 16.6276 40.75 17.125Z" fill="#FFCC4D"/>
<path d="M13.25 30.875C13.2499 31.1213 13.2013 31.3652 13.107 31.5927C13.0127 31.8203 12.8744 32.027 12.7002 32.2011C12.526 32.3752 12.3192 32.5133 12.0916 32.6075C11.864 32.7016 11.6201 32.7501 11.3737 32.75C11.1274 32.7499 10.8836 32.7013 10.656 32.607C10.4285 32.5127 10.2218 32.3744 10.0477 32.2002C9.87355 32.026 9.73547 31.8192 9.64128 31.5916C9.5471 31.364 9.49867 31.1201 9.49875 30.8737C9.49891 30.3763 9.69668 29.8993 10.0485 29.5477C10.4004 29.196 10.8776 28.9986 11.375 28.9988C11.8724 28.9989 12.3495 29.1967 12.7011 29.5485C13.0527 29.9004 13.2502 30.3776 13.25 30.875Z" fill="#FFCC4D"/>
</svg>
