<svg width="32" height="32" viewBox="0 0 32 32" fill="none" xmlns="http://www.w3.org/2000/svg">
<path opacity="0.1" fill-rule="evenodd" clip-rule="evenodd" d="M0 16C0 7.16344 7.16344 0 16 0C24.8366 0 32 7.16344 32 16C32 24.8366 24.8366 32 16 32C7.16344 32 0 24.8366 0 16Z" fill="white"/>
<g clip-path="url(#clip0_3169_4428)">
<path fill-rule="evenodd" clip-rule="evenodd" d="M24 22H20.4636V17.0783C20.4636 15.7903 19.9109 14.9108 18.6942 14.9108C17.764 14.9108 17.2465 15.5044 17.0058 16.0763C16.9153 16.2814 16.9295 16.5673 16.9295 16.8532V22H13.4262C13.4262 22 13.4713 13.2818 13.4262 12.4894H16.9295V13.9822C17.1367 13.3294 18.256 12.3981 20.0422 12.3981C22.2585 12.3981 24 13.7659 24 16.7119V22ZM9.88364 11.2998H9.86073C8.732 11.2998 8 10.5728 8 9.6513C8 8.7119 8.75345 8 9.90509 8C11.0556 8 11.7633 8.71015 11.7855 9.6485C11.7855 10.5701 11.0556 11.2998 9.88364 11.2998ZM8.40364 12.4894H11.5222V22H8.40364V12.4894Z" fill="#FBFBFD"/>
</g>
<defs>
<clipPath id="clip0_3169_4428">
<rect width="16" height="14" fill="white" transform="translate(8 8)"/>
</clipPath>
</defs>
</svg>
