<svg width="308" height="125" viewBox="0 0 308 125" fill="none" xmlns="http://www.w3.org/2000/svg">
<path d="M116.99 35.7042L115.877 34.699L115.847 34.7323L115.818 34.7673L116.99 35.7042ZM273.476 24.1777L274.483 23.0659L274.376 22.9689L274.252 22.8941L273.476 24.1777ZM202.953 111.791C202.35 112.36 202.323 113.309 202.891 113.911L212.157 123.73C212.725 124.332 213.675 124.36 214.277 123.791C214.88 123.223 214.907 122.273 214.339 121.671L206.103 112.943L214.83 104.707C215.433 104.139 215.46 103.189 214.892 102.587C214.323 101.984 213.374 101.957 212.771 102.526L202.953 111.791ZM3.06818 77.3772C3.89616 77.4045 4.58954 76.7555 4.61688 75.9275C4.64423 75.0995 3.9952 74.4062 3.16722 74.3788L3.06818 77.3772ZM11.5267 74.472C10.6983 74.4809 10.034 75.1598 10.043 75.9881C10.052 76.8165 10.7308 77.4808 11.5592 77.4718L11.5267 74.472ZM24.3098 76.9059C25.1357 76.8413 25.7528 76.1194 25.6882 75.2934C25.6235 74.4676 24.9016 73.8504 24.0757 73.9151L24.3098 76.9059ZM40.6664 71.8477C39.8499 71.9882 39.302 72.7639 39.4424 73.5803C39.5829 74.3968 40.3587 74.9447 41.1751 74.8043L40.6664 71.8477ZM45.3616 74.0329C46.1744 73.8731 46.7039 73.0846 46.5441 72.2718C46.3844 71.4589 45.5959 70.9294 44.783 71.0892L45.3616 74.0329ZM52.952 69.279C52.1477 69.4778 51.6569 70.2908 51.8557 71.0951C52.0544 71.8993 52.8675 72.3901 53.6717 72.1914L52.952 69.279ZM65.9425 68.6696C66.7295 68.4111 67.158 67.5635 66.8995 66.7765C66.641 65.9894 65.7934 65.5609 65.0063 65.8195L65.9425 68.6696ZM80.5721 59.7728C79.8176 60.1149 79.4834 61.0039 79.8255 61.7584C80.1677 62.5128 81.0566 62.8471 81.8111 62.505L80.5721 59.7728ZM85.6633 60.6898C86.4074 60.3257 86.7154 59.4273 86.3512 58.6832C85.987 57.9391 85.0886 57.6311 84.3445 57.9952L85.6633 60.6898ZM91.7246 54.0951C91.005 54.5055 90.7543 55.4216 91.1647 56.1412C91.5751 56.8609 92.4911 57.1116 93.2108 56.7012L91.7246 54.0951ZM103.981 49.7687C104.651 49.2808 104.798 48.3425 104.31 47.673C103.822 47.0035 102.884 46.8564 102.214 47.3444L103.981 49.7687ZM114.51 36.3333C113.966 36.9582 114.032 37.9056 114.657 38.4496C115.282 38.9935 116.229 38.9279 116.773 38.3031L114.51 36.3333ZM119.541 35.1474C120.108 34.5433 120.077 33.594 119.473 33.0272C118.869 32.4604 117.92 32.4906 117.353 33.0948L119.541 35.1474ZM123.494 27.0407C122.881 27.5985 122.837 28.5472 123.394 29.1597C123.952 29.7723 124.901 29.8168 125.513 29.2591L123.494 27.0407ZM135.307 21.3987C135.985 20.9223 136.148 19.9867 135.672 19.3089C135.195 18.6312 134.26 18.468 133.582 18.9444L135.307 21.3987ZM148.504 10.2948C147.754 10.6457 147.43 11.5386 147.781 12.289C148.132 13.0394 149.025 13.3633 149.775 13.0124L148.504 10.2948ZM153.6 11.3249C154.365 11.0072 154.727 10.1294 154.41 9.36432C154.092 8.59926 153.214 8.23665 152.449 8.55442L153.6 11.3249ZM160.562 5.5894C159.773 5.84013 159.336 6.68347 159.587 7.47304C159.838 8.26261 160.681 8.69942 161.47 8.44869L160.562 5.5894ZM173.659 5.39826C174.473 5.2463 175.01 4.46293 174.858 3.64856C174.706 2.83419 173.923 2.2972 173.108 2.44916L173.659 5.39826ZM190.226 0.581516C189.398 0.611359 188.751 1.30669 188.781 2.13458C188.811 2.96247 189.506 3.60941 190.334 3.57957L190.226 0.581516ZM194.538 3.50023C195.366 3.49864 196.036 2.82578 196.035 1.99736C196.033 1.16893 195.36 0.498649 194.532 0.500237L194.538 3.50023ZM203.129 0.765126C202.302 0.713161 201.59 1.34129 201.538 2.16808C201.486 2.99488 202.114 3.70725 202.941 3.75922L203.129 0.765126ZM215.493 5.12102C216.312 5.24635 217.078 4.68411 217.203 3.86521C217.328 3.04632 216.766 2.28088 215.947 2.15555L215.493 5.12102ZM232.748 5.67178C231.947 5.45965 231.126 5.93687 230.914 6.73767C230.702 7.53848 231.179 8.35963 231.98 8.57176L232.748 5.67178ZM236.045 9.70402C236.84 9.93639 237.673 9.48014 237.905 8.68496C238.137 7.88979 237.681 7.05681 236.886 6.82445L236.045 9.70402ZM245.063 9.43709C244.28 9.16544 243.426 9.57966 243.154 10.3623C242.882 11.1449 243.297 11.9996 244.079 12.2712L245.063 9.43709ZM255.858 16.859C256.618 17.1887 257.501 16.8398 257.831 16.0798C258.161 15.3198 257.812 14.4364 257.052 14.1068L255.858 16.859ZM272.423 21.8107C271.706 21.3949 270.788 21.6387 270.373 22.3552C269.957 23.0718 270.201 23.9897 270.917 24.4055L272.423 21.8107ZM274.179 26.8525C274.788 27.4144 275.737 27.3765 276.299 26.7678C276.86 26.1591 276.823 25.2101 276.214 24.6482L274.179 26.8525ZM282.71 30.8951C282.126 30.3079 281.176 30.3056 280.589 30.8899C280.001 31.4743 279.999 32.424 280.583 33.0112L282.71 30.8951ZM289.618 42.8657C290.148 43.5019 291.094 43.5876 291.731 43.0571C292.367 42.5266 292.453 41.5807 291.922 40.9444L289.618 42.8657ZM302.269 55.9365C301.88 55.2052 300.972 54.9277 300.241 55.3168C299.509 55.706 299.232 56.6143 299.621 57.3456L302.269 55.9365ZM301.498 61.2338C301.827 61.9943 302.71 62.3444 303.47 62.0159C304.231 61.6873 304.581 60.8045 304.252 60.044L301.498 61.2338ZM307.015 68.9482C306.869 68.1328 306.089 67.5904 305.274 67.7367C304.459 67.883 303.916 68.6627 304.063 69.4781L307.015 68.9482ZM303.133 81.9416C302.843 82.7175 303.237 83.5818 304.013 83.872C304.789 84.1622 305.653 83.7684 305.943 82.9925L303.133 81.9416ZM294.094 97.2772C294.773 96.8018 294.938 95.8664 294.462 95.188C293.987 94.5095 293.051 94.3449 292.373 94.8204L294.094 97.2772ZM288.695 97.1531C287.977 97.5665 287.73 98.4836 288.143 99.2016C288.557 99.9195 289.474 100.166 290.192 99.7529L288.695 97.1531ZM281.939 103.765C282.705 103.449 283.07 102.573 282.754 101.807C282.439 101.041 281.562 100.675 280.796 100.991L281.939 103.765ZM268.194 105.182C267.393 105.396 266.918 106.218 267.132 107.018C267.346 107.819 268.169 108.294 268.969 108.08L268.194 105.182ZM251.216 111.725C252.035 111.6 252.597 110.835 252.472 110.016C252.347 109.197 251.582 108.634 250.763 108.76L251.216 111.725ZM246.354 109.384C245.532 109.491 244.953 110.245 245.061 111.066C245.168 111.887 245.921 112.466 246.743 112.359L246.354 109.384ZM237.756 113.356C238.581 113.28 239.188 112.55 239.112 111.725C239.036 110.9 238.306 110.293 237.481 110.369L237.756 113.356ZM224.108 111.254C223.281 111.288 222.637 111.987 222.672 112.815C222.706 113.643 223.405 114.286 224.233 114.251L224.108 111.254ZM206.171 114.437C207 114.454 207.685 113.797 207.702 112.969C207.72 112.141 207.062 111.455 206.234 111.438L206.171 114.437ZM0.934111 77.295C1.64757 77.3264 2.35893 77.3537 3.06818 77.3772L3.16722 74.3788C2.46887 74.3557 1.76842 74.3288 1.06589 74.2979L0.934111 77.295ZM11.5592 77.4718C15.8995 77.4247 20.152 77.2314 24.3098 76.9059L24.0757 73.9151C19.9845 74.2353 15.7992 74.4256 11.5267 74.472L11.5592 77.4718ZM41.1751 74.8043C42.5845 74.5618 43.9801 74.3044 45.3616 74.0329L44.783 71.0892C43.4247 71.3562 42.0524 71.6092 40.6664 71.8477L41.1751 74.8043ZM53.6717 72.1914C57.918 71.142 62.0119 69.9607 65.9425 68.6696L65.0063 65.8195C61.1469 67.0871 57.1252 68.2477 52.952 69.279L53.6717 72.1914ZM81.8111 62.505C83.1212 61.9108 84.4055 61.3054 85.6633 60.6898L84.3445 57.9952C83.1133 58.5978 81.8557 59.1907 80.5721 59.7728L81.8111 62.505ZM93.2108 56.7012C97.1339 54.4639 100.733 52.1368 103.981 49.7687L102.214 47.3444C99.0609 49.6429 95.5566 51.9098 91.7246 54.0951L93.2108 56.7012ZM116.773 38.3031C117.257 37.7475 117.72 37.1933 118.161 36.6411L115.818 34.7673C115.404 35.2857 114.968 35.8079 114.51 36.3333L116.773 38.3031ZM118.103 36.7095C118.58 36.1813 119.059 35.6607 119.541 35.1474L117.353 33.0948C116.858 33.622 116.366 34.1567 115.877 34.699L118.103 36.7095ZM125.513 29.2591C128.7 26.3579 131.97 23.7447 135.307 21.3987L133.582 18.9444C130.141 21.3632 126.773 24.0553 123.494 27.0407L125.513 29.2591ZM149.775 13.0124C151.044 12.4189 152.319 11.8568 153.6 11.3249L152.449 8.55442C151.129 9.10287 149.813 9.68268 148.504 10.2948L149.775 13.0124ZM161.47 8.44869C165.504 7.16767 169.575 6.16029 173.659 5.39826L173.108 2.44916C168.909 3.23272 164.719 4.26946 160.562 5.5894L161.47 8.44869ZM190.334 3.57957C191.738 3.52897 193.139 3.50291 194.538 3.50023L194.532 0.500237C193.1 0.502982 191.665 0.529667 190.226 0.581516L190.334 3.57957ZM202.941 3.75922C207.184 4.02588 211.377 4.49105 215.493 5.12102L215.947 2.15555C211.748 1.51293 207.466 1.03771 203.129 0.765126L202.941 3.75922ZM231.98 8.57176C233.35 8.93475 234.705 9.31269 236.045 9.70402L236.886 6.82445C235.523 6.42612 234.143 6.04137 232.748 5.67178L231.98 8.57176ZM244.079 12.2712C248.223 13.7096 252.164 15.257 255.858 16.859L257.052 14.1068C253.291 12.4755 249.28 10.9007 245.063 9.43709L244.079 12.2712ZM270.917 24.4055C271.527 24.7591 272.121 25.1112 272.7 25.4613L274.252 22.8941C273.658 22.5345 273.048 22.1731 272.423 21.8107L270.917 24.4055ZM272.469 25.2896C273.048 25.8136 273.618 26.3345 274.179 26.8525L276.214 24.6482C275.646 24.1236 275.069 23.5962 274.483 23.0659L272.469 25.2896ZM280.583 33.0112C283.993 36.4379 286.996 39.7211 289.618 42.8657L291.922 40.9444C289.237 37.7242 286.174 34.3761 282.71 30.8951L280.583 33.0112ZM299.621 57.3456C300.328 58.6752 300.953 59.971 301.498 61.2338L304.252 60.044C303.673 58.702 303.012 57.333 302.269 55.9365L299.621 57.3456ZM304.063 69.4781C304.9 74.1457 304.505 78.274 303.133 81.9416L305.943 82.9925C307.518 78.7803 307.94 74.1024 307.015 68.9482L304.063 69.4781ZM292.373 94.8204C291.216 95.6308 289.989 96.4081 288.695 97.1531L290.192 99.7529C291.556 98.9673 292.859 98.1427 294.094 97.2772L292.373 94.8204ZM280.796 100.991C276.909 102.592 272.675 103.983 268.194 105.182L268.969 108.08C273.551 106.854 277.911 105.424 281.939 103.765L280.796 100.991ZM250.763 108.76C249.302 108.983 247.831 109.191 246.354 109.384L246.743 112.359C248.241 112.163 249.733 111.952 251.216 111.725L250.763 108.76ZM237.481 110.369C233.009 110.78 228.527 111.071 224.108 111.254L224.233 114.251C228.698 114.066 233.23 113.773 237.756 113.356L237.481 110.369ZM206.234 111.438C205.492 111.422 204.756 111.404 204.026 111.383L203.939 114.381C204.677 114.403 205.421 114.421 206.171 114.437L206.234 111.438Z" fill="white"/>
</svg>
