<svg width="40" height="40" viewBox="0 0 40 40" fill="none" xmlns="http://www.w3.org/2000/svg">
<path d="M35.4609 13.668C34.6211 11.5938 33.3828 9.73047 31.7852 8.13281C30.1875 6.53516 28.3281 5.30078 26.25 4.45703C24.25 3.64844 22.1328 3.23438 19.9609 3.23438C17.7891 3.23438 15.6719 3.64844 13.668 4.46094C11.5938 5.30078 9.73047 6.53906 8.13281 8.13672C6.53516 9.73438 5.30078 11.5938 4.45703 13.6719C3.64844 15.6719 3.23438 17.7891 3.23438 19.9609C3.23438 22.1328 3.64453 24.25 4.45703 26.2539C5.29688 28.3281 6.53516 30.1914 8.13281 31.7891C9.73047 33.3867 11.5898 34.6211 13.668 35.4648C15.6719 36.2773 17.7891 36.6875 19.9609 36.6875C22.1328 36.6875 24.25 36.2734 26.2539 35.4648C28.3281 34.625 30.1914 33.3867 31.7891 31.7891C33.3867 30.1914 34.6211 28.332 35.4648 26.2539C36.2773 24.25 36.6875 22.1328 36.6875 19.9609C36.6875 17.7891 36.2734 15.6719 35.4609 13.668ZM27.6094 21.0156L27.5781 21.0352C27.5234 21.0703 27.4844 21.0938 27.457 21.1094L17.3672 27.3164L17.2188 27.4063L17.1914 27.4336L17.1016 27.4727C16.8828 27.5703 16.6133 27.6055 16.4336 27.6055C15.6406 27.6055 14.9492 26.9961 14.8828 26.25V13.8242C14.8828 13.6914 14.9258 13.5859 14.9648 13.5117C15.1133 12.832 15.7422 12.3164 16.4648 12.3164C16.6719 12.3164 16.8867 12.3594 17.0664 12.4375L17.1016 12.4531L17.1328 12.4727L27.3477 18.4297C27.6406 18.6016 27.6406 18.6016 27.6758 18.6289L27.6797 18.6328C27.9609 18.8633 28.1484 19.1836 28.2109 19.5391C28.2266 19.6289 28.2344 19.7148 28.2344 19.7969C28.2344 20.2773 28 20.7344 27.6094 21.0156Z" fill="#DA151E"/>
</svg>
