<svg width="24" height="24" viewBox="0 0 24 24" fill="none" xmlns="http://www.w3.org/2000/svg">
<path d="M7.2002 15.3H9.8252L11.7002 19.6163C11.7803 19.7981 11.814 19.997 11.7983 20.1951C11.7825 20.3932 11.7179 20.5842 11.6101 20.7512C11.5023 20.9181 11.3547 21.0556 11.1806 21.1514C11.0065 21.2472 10.8114 21.2983 10.6127 21.3C10.3787 21.3006 10.1497 21.2327 9.95387 21.1048C9.75799 20.9769 9.60377 20.7945 9.5102 20.58L7.2002 15.3Z" fill="#ED2144"/>
<path d="M19.125 6V18.75C19.125 18.9489 19.046 19.1397 18.9053 19.2803C18.7647 19.421 18.5739 19.5 18.375 19.5C18.262 19.499 18.1508 19.4726 18.0495 19.4226C17.9482 19.3726 17.8595 19.3003 17.79 19.2113L17.3063 18.6863C16.3452 17.6405 15.1771 16.8061 13.8763 16.2361C12.5755 15.6661 11.1703 15.3728 9.75 15.375V10.5L10.875 11.625V9.31875C13.5395 9.0387 15.9889 7.72787 17.7 5.66625L17.7787 5.56875C17.8462 5.47265 17.9354 5.39374 18.0389 5.33838C18.1425 5.28301 18.2576 5.25274 18.375 5.25C18.5739 5.25 18.7647 5.32902 18.9053 5.46967C19.046 5.61032 19.125 5.80109 19.125 6Z" fill="#FCDAE0"/>
<path d="M19.125 10.5L21.375 11.25V13.5L19.125 14.25V10.5Z" fill="#BAC9F9"/>
<path d="M10.875 4.875V11.625L9.375 10.125H4.875C4.27826 10.125 3.70597 9.88795 3.28401 9.46599C2.86205 9.04403 2.625 8.47174 2.625 7.875V4.875C2.625 4.27826 2.86205 3.70597 3.28401 3.28401C3.70597 2.86205 4.27826 2.625 4.875 2.625H8.625C9.22174 2.625 9.79403 2.86205 10.216 3.28401C10.6379 3.70597 10.875 4.27826 10.875 4.875Z" fill="#7494F3"/>
<path d="M7.97625 8.25H5.52375C5.34176 8.25179 5.16533 8.18735 5.02734 8.06868C4.88935 7.95001 4.79922 7.78521 4.77375 7.605L4.5 5.625H9L8.71875 7.605C8.69345 7.78392 8.60441 7.9477 8.46799 8.0662C8.33157 8.1847 8.15695 8.24997 7.97625 8.25Z" fill="url(#paint0_linear_2374_5289)"/>
<path d="M5.24984 5.99994H5.15984C5.10987 5.98946 5.06256 5.96888 5.02081 5.93946C4.97907 5.91005 4.94378 5.87242 4.91709 5.82888C4.89041 5.78535 4.8729 5.73682 4.86563 5.68627C4.85837 5.63573 4.8615 5.58423 4.87484 5.53494L5.24984 4.03494C5.26006 3.98551 5.28015 3.93866 5.3089 3.89719C5.33765 3.85571 5.37448 3.82046 5.41718 3.79356C5.45988 3.76666 5.50758 3.74865 5.5574 3.74062C5.60723 3.73259 5.65816 3.7347 5.70715 3.74682C5.75614 3.75894 5.80218 3.78082 5.84251 3.81116C5.88284 3.8415 5.91664 3.87967 5.94186 3.92338C5.96709 3.96709 5.98324 4.01544 5.98934 4.06554C5.99543 4.11564 5.99135 4.16645 5.97734 4.21494L5.60234 5.71494C5.58274 5.7944 5.53768 5.86527 5.47403 5.91673C5.41038 5.96819 5.33165 5.99741 5.24984 5.99994ZM8.24984 5.99994C8.16418 6.00243 8.08025 5.97551 8.01202 5.92366C7.94379 5.8718 7.89538 5.79814 7.87484 5.71494L7.49984 4.21494C7.48803 4.16569 7.48602 4.1146 7.49395 4.06458C7.50187 4.01456 7.51957 3.96659 7.54604 3.92341C7.5725 3.88023 7.60721 3.84269 7.64819 3.81292C7.68916 3.78316 7.7356 3.76176 7.78484 3.74994C7.83409 3.73812 7.88518 3.73612 7.9352 3.74404C7.98522 3.75197 8.03319 3.76967 8.07637 3.79613C8.11955 3.8226 8.15709 3.85731 8.18686 3.89828C8.21662 3.93926 8.23803 3.98569 8.24984 4.03494L8.62484 5.53494C8.63819 5.58423 8.64132 5.63573 8.63406 5.68627C8.62679 5.73682 8.60928 5.78535 8.5826 5.82888C8.55591 5.87242 8.52062 5.91005 8.47887 5.93946C8.43713 5.96888 8.38982 5.98946 8.33984 5.99994H8.24984Z" fill="#D7E9F7"/>
<path d="M9.00012 5.97387H4.50012C4.40762 5.97387 4.31892 5.93712 4.25351 5.87172C4.18811 5.80632 4.15137 5.71761 4.15137 5.62512C4.15137 5.53262 4.18811 5.44392 4.25351 5.37851C4.31892 5.31311 4.40762 5.27637 4.50012 5.27637H9.00012C9.09261 5.27637 9.18132 5.31311 9.24672 5.37851C9.31212 5.44392 9.34887 5.53262 9.34887 5.62512C9.34887 5.71761 9.31212 5.80632 9.24672 5.87172C9.18132 5.93712 9.09261 5.97387 9.00012 5.97387Z" fill="#F0F7FC"/>
<path d="M9.74992 10.5V15.375H7.87492C7.28123 15.3755 6.70076 15.1998 6.20697 14.8702C5.71319 14.5405 5.32831 14.0718 5.10105 13.5234C4.8738 12.9749 4.81438 12.3713 4.93033 11.7891C5.04628 11.2068 5.33239 10.6721 5.75242 10.2525L5.89117 10.125H9.37492L9.74992 10.5Z" fill="#F04663"/>
<defs>
<linearGradient id="paint0_linear_2374_5289" x1="4.5" y1="6.9375" x2="9" y2="6.9375" gradientUnits="userSpaceOnUse">
<stop stop-color="#D3E6F5"/>
<stop offset="1" stop-color="#F0F7FC"/>
</linearGradient>
</defs>
</svg>
