<svg width="32" height="32" viewBox="0 0 32 32" fill="none" xmlns="http://www.w3.org/2000/svg">
<path d="M7.7587 20.7207C4.87749 21.6227 3.10361 24.2455 3.327 27.7184C3.35961 28.2286 3.76172 28.6404 4.27191 28.6742C6.54029 28.8239 8.45184 28.1266 9.75599 26.8224C10.4527 26.1257 10.9696 25.2508 11.2835 24.2449L7.7587 20.7213V20.7207Z" fill="#FFBF55"/>
<path d="M10.7247 25.5377L9.37402 24.1871C8.67748 23.4912 7.7346 23.0981 6.75002 23.093C5.51289 23.087 4.30595 23.6847 3.64844 24.8561C4.26429 22.8304 5.73991 21.3542 7.76014 20.7202L11.2862 24.2463C11.142 24.6942 10.9539 25.1268 10.7247 25.5377Z" fill="#FF9F00"/>
<path d="M8.61343 21.5757C7.12754 22.0406 6.21282 23.393 6.32754 25.1844C6.33501 25.3119 6.38865 25.4323 6.47844 25.5231C6.56823 25.6139 6.68801 25.6688 6.81539 25.6777C7.9849 25.7544 8.97086 25.3952 9.64346 24.7226C10.0103 24.3501 10.2808 23.8937 10.4314 23.393L8.61343 21.5757Z" fill="#FEDF00"/>
<path d="M9.76887 24.5814L9.374 24.1871C8.67745 23.4912 7.73458 23.0981 6.75 23.0931C7.14487 22.3643 7.79634 21.8318 8.61506 21.5752L10.4324 23.3926C10.2983 23.8318 10.0718 24.2373 9.76826 24.582L9.76887 24.5814Z" fill="#F7E839"/>
<path d="M7.42001 15.6098C7.12115 15.5977 6.81624 15.6037 6.51737 15.6279C5.37965 15.7036 4.26648 15.9937 3.23647 16.4828C2.77579 16.7038 2.24386 16.6024 1.87918 16.2377L1.87315 16.2316C1.68785 16.0502 1.56576 15.814 1.52489 15.5579C1.48401 15.3017 1.52652 15.0393 1.64613 14.8091C2.19813 13.6834 2.9335 12.6573 3.82213 11.7728C5.68651 9.91361 8.12653 8.74203 10.7432 8.4496C11.1495 8.41337 11.5498 8.38379 11.9568 8.38379C10.0138 10.4221 8.46575 12.8668 7.42001 15.6098ZM17.2042 30.3672C16.9737 30.4855 16.7115 30.5272 16.4557 30.4863C16.1998 30.4453 15.9637 30.3239 15.7817 30.1396L15.7696 30.1275C15.5936 29.9544 15.4755 29.731 15.4316 29.4881C15.3877 29.2451 15.4202 28.9946 15.5245 28.7708C16.0138 27.7391 16.3019 26.6235 16.3734 25.4839C16.4036 25.179 16.4096 24.8741 16.3975 24.5631C19.1048 23.5415 21.5556 22.011 23.6175 20.0451C23.6114 20.4574 23.5933 20.8698 23.5396 21.2701C23.3307 23.3199 22.5771 25.3045 21.2863 26.9897C20.1747 28.4363 18.7999 29.572 17.2042 30.3672Z" fill="#EA445A"/>
<path d="M11.9558 8.38379C10.0134 10.4221 8.46595 12.8668 7.41961 15.6098C7.20251 15.5998 6.98502 15.6018 6.76814 15.6158C6.68421 15.6158 6.59485 15.6218 6.51697 15.6279C6.78387 14.8902 7.08858 14.1667 7.42987 13.4603C8.13085 12.0094 6.66489 10.494 5.20799 11.1811C4.45991 11.5337 3.77704 11.9255 3.30127 12.3403C3.46308 12.1435 3.6424 11.9521 3.82172 11.7728C5.68611 9.91361 8.12612 8.74203 10.7428 8.4496C11.1491 8.41337 11.5494 8.38379 11.9564 8.38379H11.9558ZM19.6659 28.7171C19.8398 28.5202 20.0071 28.3168 20.1743 28.1012C20.4611 27.7269 20.7328 27.2288 20.9822 26.6793C21.6391 25.2303 20.1176 23.7897 18.6903 24.4931C17.9361 24.8643 17.1625 25.1949 16.373 25.4833C16.385 25.3999 16.3911 25.3106 16.3911 25.2267C16.4092 25.0057 16.4032 24.7847 16.3971 24.5631C19.1044 23.5415 21.5552 22.011 23.617 20.0451C23.611 20.4574 23.5929 20.8698 23.5392 21.2701C23.3303 23.3199 22.5767 25.3045 21.2859 26.9897C20.8024 27.616 20.26 28.1944 19.6659 28.7171Z" fill="#F04663"/>
<path d="M24.0356 19.6505C21.1309 22.5553 17.4014 24.5876 13.2534 25.5198C12.5953 25.6635 11.8907 25.4485 11.4059 24.9643L7.03215 20.5888C6.54189 20.0985 6.33238 19.3873 6.48211 18.7352C8.80664 8.42574 17.6471 1.49805 28.477 1.49805C29.5946 1.50408 30.4972 2.40673 30.4912 3.51224C30.5032 9.75224 28.2023 15.4845 24.0362 19.6499L24.0356 19.6505Z" fill="#E4E3FF"/>
<path opacity="0.6" d="M8.69328 16.5438C9.0895 15.2279 9.62803 13.9591 10.2993 12.7599C10.3398 12.6868 10.3944 12.6224 10.4599 12.5704C10.5254 12.5185 10.6006 12.48 10.681 12.4572C10.7615 12.4344 10.8456 12.4278 10.9287 12.4376C11.0117 12.4475 11.092 12.4737 11.1648 12.5147C11.2377 12.5557 11.3017 12.6107 11.3532 12.6766C11.4047 12.7424 11.4427 12.8178 11.465 12.8984C11.4872 12.979 11.4933 13.0632 11.4829 13.1462C11.4725 13.2292 11.4457 13.3092 11.4042 13.3818C10.7781 14.4999 10.276 15.6831 9.90687 16.9103C9.85596 17.0684 9.745 17.2003 9.59786 17.2774C9.45072 17.3546 9.27917 17.3709 9.12012 17.3229C8.96107 17.2749 8.82723 17.1663 8.7474 17.0206C8.66758 16.8749 8.64814 16.7037 8.69328 16.5438ZM12.0792 11.0567C11.9685 10.9456 11.9029 10.7974 11.895 10.6407C11.8872 10.484 11.9378 10.33 12.037 10.2084C12.2845 9.90469 12.5423 9.60884 12.808 9.32326C12.9225 9.20038 13.0812 9.12799 13.2491 9.12199C13.417 9.11599 13.5804 9.17687 13.7034 9.29126C13.9642 9.51224 13.9745 9.93126 13.7366 10.1867C13.4891 10.4529 13.2494 10.727 13.0193 11.0096C12.9632 11.0783 12.8934 11.1346 12.8142 11.1746C12.735 11.2147 12.6484 11.2376 12.5597 11.2421C12.4711 11.2465 12.3826 11.2323 12.2998 11.2004C12.2171 11.1684 12.1419 11.1195 12.0792 11.0567Z" fill="white"/>
<path d="M24.0357 19.6506C21.131 22.5554 17.4015 24.5877 13.2536 25.5199C12.5954 25.6636 11.8908 25.4487 11.406 24.9645L10.1514 23.7086C10.6356 24.1934 11.3408 24.4084 11.9983 24.2647C16.1462 23.3325 19.8757 21.3002 22.7805 18.396C26.9465 14.23 29.2469 8.49774 29.2354 2.25834C29.2354 2.03072 29.1992 1.81578 29.128 1.6123C29.9286 1.88763 30.4967 2.63449 30.4907 3.51298C30.5028 9.75298 28.2018 15.4852 24.0357 19.6506Z" fill="#D0D0F7"/>
<path d="M6.85517 17.3525C6.72234 17.8096 6.5877 18.2654 6.48083 18.7364C6.3317 19.3879 6.54121 20.0991 7.03147 20.5894L11.4064 24.9643C11.8906 25.4485 12.5958 25.6635 13.2534 25.5198C13.7246 25.4125 14.1923 25.2905 14.6559 25.1539L6.85517 17.3531V17.3525Z" fill="#EA445A"/>
<path d="M14.6576 25.1552C14.1915 25.2868 13.7314 25.4124 13.2532 25.5199C12.5951 25.6636 11.8905 25.4486 11.4057 24.9644L10.1094 23.6675C10.593 24.1511 11.2988 24.3666 11.9557 24.223C12.4272 24.1141 12.8957 23.9925 13.3607 23.8583L14.6576 25.1552Z" fill="#C81030"/>
<path d="M29.4751 10.5038C30.1574 8.23649 30.4997 5.88049 30.4906 3.51272C30.4967 2.40782 29.594 1.50457 28.4764 1.49854C26.0311 1.49854 23.6957 1.86925 21.5059 2.53461L29.4757 10.5044L29.4751 10.5038Z" fill="#EA445A"/>
<path d="M29.4745 10.5054L28.2549 9.2864C28.9381 7.01885 29.2806 4.66234 29.271 2.2941C29.271 2.055 29.2294 1.83402 29.1515 1.62451C29.5438 1.7601 29.8839 2.01505 30.124 2.35362C30.3642 2.69219 30.4924 3.09742 30.4907 3.51251C30.4967 5.94572 30.1441 8.2944 29.4745 10.506V10.5054Z" fill="#C81030"/>
<path d="M23.8972 15.3352C21.906 17.3265 18.6758 17.3265 16.6779 15.3286C15.7217 14.372 15.1846 13.0748 15.1846 11.7223C15.1846 10.3697 15.7217 9.07252 16.6779 8.11591C18.6764 6.11742 21.9066 6.11742 23.8972 8.10927C24.3722 8.58342 24.7491 9.14659 25.0062 9.76655C25.2633 10.3865 25.3957 11.0511 25.3957 11.7223C25.3957 12.3934 25.2633 13.058 25.0062 13.6779C24.7491 14.2979 24.3722 14.8611 23.8972 15.3352Z" fill="#474646"/>
<path opacity="0.3" d="M17.7803 8.58344C17.7586 8.56178 17.7419 8.53566 17.7313 8.50689C17.7207 8.47812 17.7165 8.44738 17.7189 8.41682C17.7214 8.38626 17.7305 8.35661 17.7456 8.32991C17.7607 8.30321 17.7814 8.28012 17.8063 8.26223C18.3233 7.88815 18.9177 7.63501 19.5457 7.52152C20.1737 7.40803 20.8191 7.43708 21.4344 7.60653C21.4611 7.61383 21.4862 7.62632 21.5081 7.6433C21.53 7.66028 21.5484 7.68141 21.5622 7.70549C21.5759 7.72957 21.5848 7.75613 21.5883 7.78364C21.5918 7.81116 21.5899 7.83909 21.5826 7.86585C21.5753 7.89261 21.5628 7.91767 21.5458 7.9396C21.5288 7.96154 21.5077 7.97991 21.4836 7.99367C21.4595 8.00744 21.433 8.01632 21.4055 8.01982C21.378 8.02333 21.35 8.02137 21.3233 8.01408C20.7686 7.8615 20.1868 7.8354 19.6207 7.9377C19.0546 8.04001 18.5188 8.26811 18.0526 8.60517C18.012 8.63436 17.9623 8.6482 17.9125 8.64422C17.8626 8.64024 17.8158 8.6187 17.7803 8.58344ZM22.436 8.51883C22.3979 8.4817 22.3752 8.43153 22.3724 8.37837C22.3696 8.32521 22.387 8.27296 22.4211 8.23208C22.4552 8.1912 22.5035 8.16469 22.5563 8.15785C22.6091 8.15102 22.6625 8.16436 22.7059 8.19521C22.9227 8.34434 23.1255 8.514 23.3097 8.69815C23.3924 8.78027 23.3942 8.91672 23.3121 8.99883C23.2892 9.02031 23.262 9.03658 23.2323 9.04651C23.2025 9.05645 23.171 9.05981 23.1398 9.05636C23.1086 9.05292 23.0786 9.04275 23.0517 9.02656C23.0249 9.01038 23.0018 8.98856 22.9842 8.96261C22.8224 8.8098 22.649 8.66971 22.4656 8.54359C22.455 8.53628 22.4451 8.528 22.436 8.51883Z" fill="white"/>
<path d="M23.892 15.3361C21.9019 17.3261 18.6742 17.3261 16.6781 15.33C16.1563 14.8097 15.7545 14.1817 15.5005 13.49C15.2466 12.7983 15.1467 12.0595 15.2079 11.3252C15.2338 12.6256 15.7656 13.8646 16.6902 14.7794C17.1638 15.2551 17.7266 15.6327 18.3463 15.8905C18.9661 16.1483 19.6306 16.2813 20.3019 16.2819C20.9731 16.2824 21.6379 16.1505 22.2581 15.8938C22.8783 15.637 23.4417 15.2603 23.9161 14.7854C24.755 13.9488 25.2751 12.8453 25.3863 11.6657C25.3978 12.3466 25.2714 13.0228 25.0145 13.6535C24.7577 14.2841 24.3759 14.8563 23.892 15.3355V15.3361Z" fill="#2D2C2C"/>
<path d="M22.3801 13.8112C22.1057 14.0865 21.7796 14.305 21.4206 14.454C21.0616 14.6031 20.6767 14.6798 20.288 14.6798C19.8993 14.6798 19.5144 14.6031 19.1554 14.454C18.7964 14.305 18.4703 14.0865 18.1959 13.8112C17.928 13.5455 17.7164 13.2284 17.574 12.879C17.4609 12.6332 17.3883 12.3708 17.3591 12.1019C17.3174 11.8205 17.3289 11.5344 17.3772 11.259C17.4726 10.6613 17.7479 10.0877 18.2019 9.63307C19.3552 8.47986 21.2269 8.47382 22.3801 9.62703C22.5056 9.75261 22.6192 9.89027 22.7145 10.034C22.8818 10.261 23.0074 10.5176 23.0913 10.7808C23.1807 11.038 23.2344 11.3067 23.2404 11.5754C23.2668 12.0599 23.1702 12.5432 22.9597 12.9804C22.822 13.2853 22.6252 13.566 22.3801 13.8112Z" fill="#A2A2F9"/>
<path opacity="0.3" d="M23.0913 10.7812L17.3591 12.1022C17.3174 11.8209 17.3289 11.5347 17.3772 11.2594L22.7145 10.0337C22.8818 10.2613 23.0074 10.5179 23.0913 10.7812ZM22.9597 12.9807L18.429 14.0204C18.3485 13.9539 18.2707 13.8843 18.1959 13.8115C17.928 13.5458 17.7164 13.2287 17.574 12.8793L23.2404 11.5757C23.2668 12.0602 23.1702 12.5435 22.9597 12.9807Z" fill="white"/>
<path d="M23.1573 12.4122C23.1568 12.0297 23.0805 11.6509 22.9327 11.2981C22.7849 10.9452 22.5686 10.6251 22.2963 10.3564C21.1431 9.20318 19.272 9.20922 18.1182 10.3624C17.734 10.747 17.4651 11.2314 17.3417 11.7608C17.3352 11.3666 17.408 10.9751 17.5558 10.6095C17.7036 10.244 17.9234 9.91196 18.2021 9.63307C19.3553 8.47986 21.227 8.47382 22.3802 9.62703C22.7405 9.98375 23.0017 10.4282 23.138 10.9166C23.2742 11.405 23.2809 11.9205 23.1573 12.4122Z" fill="#5E5EEF"/>
</svg>
