<svg width="24" height="24" viewBox="0 0 24 24" fill="none" xmlns="http://www.w3.org/2000/svg">
<g clip-path="url(#clip0_2374_5487)">
<path d="M18.6285 20.2617C18.6285 20.843 18.5568 21.3519 18.4294 21.8015H7.51435C7.38729 21.3519 7.31494 20.843 7.31494 20.2617C7.31494 17.7247 10.1656 14.5687 11.816 12.948C11.9428 12.8244 12.0436 12.6767 12.1125 12.5135C12.1813 12.3503 12.2167 12.175 12.2167 11.9979C12.2167 11.8208 12.1813 11.6455 12.1125 11.4823C12.0436 11.3191 11.9428 11.1714 11.816 11.0478C10.1614 9.42707 7.31494 6.27107 7.31494 3.73837C7.31494 3.15707 7.38694 2.64813 7.51435 2.19849H18.4294C18.5565 2.64813 18.6288 3.15707 18.6288 3.73837C18.6288 6.27107 15.7781 9.43131 14.1235 11.052C13.9975 11.1762 13.8974 11.3242 13.8293 11.4875C13.7611 11.6508 13.7262 11.8261 13.7266 12.003C13.727 12.18 13.7627 12.3551 13.8315 12.5181C13.9004 12.681 14.0011 12.8287 14.1278 12.9523C15.7824 14.573 18.6288 17.7247 18.6288 20.2617H18.6285Z" fill="#FCDAE0"/>
<path d="M14.475 18.2757C15.1109 18.2757 15.6263 17.7603 15.6263 17.1244C15.6263 16.4886 15.1109 15.9731 14.475 15.9731C13.8392 15.9731 13.3237 16.4886 13.3237 17.1244C13.3237 17.7603 13.8392 18.2757 14.475 18.2757Z" fill="url(#paint0_linear_2374_5487)"/>
<path d="M14.4751 18.1302C15.0307 18.1302 15.481 17.6798 15.481 17.1243C15.481 16.5688 15.0307 16.1184 14.4751 16.1184C13.9196 16.1184 13.4692 16.5688 13.4692 17.1243C13.4692 17.6798 13.9196 18.1302 14.4751 18.1302Z" fill="url(#paint1_linear_2374_5487)"/>
<path d="M14.4147 17.6772C14.4117 17.6744 14.4094 17.671 14.4079 17.6672C14.4064 17.6634 14.4057 17.6593 14.4059 17.6553V17.5681C14.3522 17.564 14.2998 17.5491 14.252 17.5243C14.213 17.5045 14.1797 17.4753 14.1549 17.4393C14.1335 17.4072 14.1213 17.3698 14.1196 17.3313C14.1197 17.328 14.1204 17.3247 14.1217 17.3217C14.1231 17.3186 14.125 17.3159 14.1274 17.3136C14.1299 17.311 14.1329 17.3088 14.1362 17.3074C14.1396 17.3059 14.1432 17.3052 14.1468 17.3052H14.259C14.2689 17.3052 14.2767 17.3073 14.282 17.3108C14.2873 17.3143 14.2926 17.3207 14.2975 17.3288C14.3067 17.357 14.3257 17.3807 14.3554 17.3997C14.3922 17.4208 14.4344 17.4309 14.4768 17.4287C14.5343 17.4287 14.5777 17.4188 14.6074 17.3994C14.6212 17.391 14.6325 17.3792 14.6402 17.3651C14.648 17.3509 14.6519 17.335 14.6515 17.3189C14.6518 17.3085 14.6499 17.2982 14.6461 17.2885C14.6422 17.2789 14.6363 17.2701 14.6289 17.2628C14.6093 17.2451 14.5862 17.2318 14.5612 17.2236C14.517 17.2082 14.4723 17.1947 14.427 17.183C14.3293 17.1597 14.2573 17.129 14.2117 17.0909C14.1659 17.0528 14.1429 16.9981 14.1429 16.9264C14.1424 16.8956 14.1485 16.865 14.1606 16.8367C14.1728 16.8083 14.1908 16.7829 14.2135 16.762C14.2605 16.7172 14.3247 16.6896 14.4059 16.6797V16.594C14.4057 16.5899 14.4064 16.5858 14.4079 16.5821C14.4094 16.5783 14.4117 16.5749 14.4147 16.5721C14.4204 16.5667 14.428 16.5638 14.4359 16.564H14.5132C14.5223 16.564 14.5294 16.5668 14.535 16.5721C14.5377 16.575 14.5398 16.5785 14.5412 16.5822C14.5425 16.586 14.5431 16.59 14.5428 16.594V16.6822C14.5921 16.688 14.6395 16.7044 14.6819 16.7302C14.7207 16.7549 14.75 16.7832 14.7701 16.8156C14.789 16.8438 14.8005 16.8764 14.8033 16.9102C14.8034 16.9137 14.8028 16.9171 14.8015 16.9203C14.8002 16.9235 14.7983 16.9265 14.7958 16.9289C14.7934 16.9313 14.7905 16.9333 14.7873 16.9345C14.7841 16.9358 14.7806 16.9364 14.7772 16.9363H14.6589C14.6413 16.9363 14.6293 16.9293 14.6229 16.9141C14.6199 16.9001 14.6139 16.8869 14.6054 16.8754C14.5968 16.8639 14.586 16.8544 14.5735 16.8474C14.5421 16.8285 14.506 16.8192 14.4694 16.8206C14.4317 16.8185 14.3943 16.8276 14.3617 16.8467C14.3492 16.8548 14.3389 16.8661 14.332 16.8794C14.3252 16.8927 14.3219 16.9076 14.3226 16.9226C14.3226 16.9452 14.3289 16.9639 14.3416 16.979C14.3547 16.9939 14.3755 17.0073 14.4041 17.0186C14.4327 17.0302 14.4736 17.0429 14.5269 17.056C14.6007 17.0726 14.6596 17.0913 14.7034 17.1124C14.742 17.1292 14.7754 17.1561 14.7997 17.1904C14.8202 17.2222 14.8308 17.2624 14.8308 17.3115C14.8308 17.3839 14.8047 17.4421 14.7532 17.4869C14.7009 17.5321 14.631 17.5589 14.5428 17.5681V17.6553C14.5431 17.6593 14.5425 17.6632 14.5412 17.667C14.5398 17.6708 14.5377 17.6742 14.535 17.6772C14.5321 17.6799 14.5287 17.6821 14.5249 17.6835C14.5212 17.6849 14.5172 17.6855 14.5132 17.6853H14.4355C14.4278 17.6854 14.4203 17.6825 14.4147 17.6772Z" fill="white"/>
<path d="M18.0093 4.97716C17.4153 5.72363 16.5499 6.24139 15.6294 6.50433C14.5989 6.79728 13.4956 6.78422 12.4396 6.59786C11.3874 6.4108 10.3692 6.05045 9.37251 5.6601C9.14309 5.57116 8.29921 5.29975 8.06592 5.22316C8.61298 5.19351 10.1952 5.68551 11.8667 5.77022C13.9537 5.87645 15.5829 4.5741 16.9022 4.50633C18.2172 4.43433 18.0093 4.97716 18.0093 4.97716Z" fill="url(#paint2_linear_2374_5487)"/>
<path d="M17.8695 19.1117C17.5716 19.5861 17.3397 19.9362 16.2106 19.9895C15.6883 20.0142 14.34 19.6083 13.644 18.8784C16.427 19.7992 17.8691 19.1121 17.8691 19.1121L17.8695 19.1117Z" fill="url(#paint3_linear_2374_5487)"/>
<path d="M12.5271 12.1081H13.4642C13.5541 11.3926 13.8767 10.7265 14.3822 10.2121C15.7018 8.85894 17.4153 6.83553 18.0093 4.97729C17.4153 5.72377 16.5499 6.24153 15.6294 6.50447C14.5989 6.79706 13.4956 6.78435 12.4396 6.598C11.3874 6.41094 10.3692 6.05094 9.37251 5.66024C9.14309 5.5713 8.91015 5.47812 8.67651 5.40153C8.47757 5.32738 8.2735 5.26781 8.06592 5.22329C8.72345 7.01306 10.3519 8.91824 11.6119 10.2121C12.1183 10.7255 12.44 11.3923 12.5267 12.1081H12.5271Z" fill="url(#paint4_linear_2374_5487)"/>
<path d="M12.4224 18.4376C12.0702 18.955 11.3788 19.4216 10.28 19.4216C9.68605 19.4216 8.9777 19.2861 8.1377 18.9508C9.05817 17.6357 11.1963 18.0557 12.4224 18.4376Z" fill="url(#paint5_linear_2374_5487)"/>
<path d="M17.8692 19.1118C17.823 19.1802 17.7704 19.2441 17.7122 19.3027C17.3303 19.7143 16.7621 19.9557 16.1935 19.9222C14.8075 19.8417 14.4927 19.4224 13.6438 18.8785C11.6988 17.6323 11.8103 19.4217 10.2799 19.422C9.68595 19.422 8.97759 19.2862 8.13759 18.9509C7.887 19.5487 7.73877 20.1343 7.73877 20.6859C7.73877 21.0847 7.77265 21.4493 7.84465 21.8012H18.0979C18.1703 21.4493 18.2038 21.0847 18.2038 20.6859C18.2038 20.1812 18.081 19.6507 17.8689 19.1118H17.8692Z" fill="url(#paint6_linear_2374_5487)"/>
<path d="M19.3378 22.546V22.5499C19.337 22.7477 19.2578 22.9371 19.1175 23.0766C18.9773 23.2162 18.7874 23.2944 18.5896 23.2942H7.34982C7.25206 23.2943 7.15525 23.275 7.06492 23.2376C6.97459 23.2003 6.89251 23.1454 6.82338 23.0763C6.75425 23.0072 6.69943 22.9251 6.66203 22.8348C6.62464 22.7444 6.60542 22.6476 6.60547 22.5499V22.546C6.60547 22.1348 6.93865 21.8013 7.34982 21.8013H18.5889C19.0004 21.8013 19.3371 22.1348 19.3371 22.546H19.3378Z" fill="#666481"/>
<path d="M19.3378 1.4503V1.45418C19.3371 1.65207 19.2579 1.84159 19.1176 1.98119C18.9774 2.12079 18.7875 2.19908 18.5896 2.19889H7.34982C7.25203 2.19893 7.15519 2.1797 7.06483 2.14229C6.97448 2.10487 6.89239 2.05002 6.82326 1.98085C6.75412 1.91168 6.6993 1.82957 6.66193 1.7392C6.62456 1.64883 6.60538 1.55197 6.60547 1.45418V1.45065C6.60547 1.03948 6.93865 0.706299 7.34982 0.706299H18.5889C19.0004 0.706299 19.3371 1.03948 19.3371 1.45065L19.3378 1.4503Z" fill="#666481"/>
<path opacity="0.3" d="M12.5153 10.0644C11.7752 9.38955 9.35085 7.10602 8.58709 5.02543C8.57756 4.99932 8.56767 4.97637 8.56097 4.95343C8.42332 4.57014 8.34814 4.19673 8.34814 3.83955C8.34814 3.52508 8.37109 3.23355 8.43356 2.9519H10.0253C9.03638 5.86755 12.5157 10.0644 12.5157 10.0644H12.5153ZM14.8077 21.7863L14.8416 21.8014H17.6107C17.6743 21.481 17.7039 21.1527 17.7039 20.7913C17.7039 20.3067 17.5772 19.796 17.3686 19.2701C17.3612 19.2518 17.3538 19.237 17.346 19.2183C16.8392 17.9957 15.8665 16.7286 14.9421 15.6994C16.9585 19.6023 14.808 21.7863 14.808 21.7863H14.8077Z" fill="white"/>
<path d="M12.9715 13.3902C13.3923 13.3902 13.7335 13.0491 13.7335 12.6282C13.7335 12.2074 13.3923 11.8662 12.9715 11.8662C12.5506 11.8662 12.2095 12.2074 12.2095 12.6282C12.2095 13.0491 12.5506 13.3902 12.9715 13.3902Z" fill="url(#paint7_linear_2374_5487)"/>
<path d="M12.9718 13.2939C13.3394 13.2939 13.6374 12.9959 13.6374 12.6283C13.6374 12.2607 13.3394 11.9626 12.9718 11.9626C12.6042 11.9626 12.3062 12.2607 12.3062 12.6283C12.3062 12.9959 12.6042 13.2939 12.9718 13.2939Z" fill="url(#paint8_linear_2374_5487)"/>
<path d="M12.9319 12.9938C12.9299 12.9919 12.9283 12.9897 12.9273 12.9872C12.9262 12.9847 12.9258 12.982 12.9259 12.9793V12.9214C12.8904 12.9188 12.8558 12.9091 12.8242 12.8928C12.7984 12.8797 12.7763 12.8603 12.76 12.8364C12.7457 12.8151 12.7375 12.7903 12.7363 12.7647C12.7363 12.7605 12.7381 12.7566 12.7416 12.7531C12.7433 12.7513 12.7453 12.7498 12.7476 12.7489C12.7498 12.7479 12.7522 12.7474 12.7547 12.7474H12.8288C12.8352 12.7474 12.8404 12.7488 12.844 12.751C12.8475 12.7538 12.851 12.758 12.8546 12.7633C12.8613 12.783 12.8748 12.7996 12.8927 12.8103C12.9171 12.8242 12.9451 12.8308 12.9732 12.8293C13.0031 12.8312 13.033 12.8245 13.0593 12.8099C13.0684 12.8044 13.0758 12.7966 13.081 12.7873C13.0861 12.778 13.0887 12.7676 13.0886 12.757C13.0888 12.75 13.0876 12.7431 13.085 12.7367C13.0825 12.7303 13.0786 12.7244 13.0737 12.7195C13.0607 12.7078 13.0453 12.6989 13.0286 12.6934C12.9995 12.6834 12.9701 12.6745 12.9403 12.667C12.875 12.6514 12.8274 12.631 12.7974 12.6059C12.767 12.5805 12.7519 12.5441 12.7519 12.4968C12.7516 12.4764 12.7556 12.4562 12.7637 12.4375C12.7718 12.4187 12.7838 12.4019 12.7988 12.3881C12.8341 12.3566 12.8787 12.3375 12.9259 12.3338V12.277C12.9259 12.2706 12.928 12.266 12.9319 12.2625C12.9337 12.2607 12.9359 12.2592 12.9384 12.2582C12.9408 12.2573 12.9434 12.2568 12.946 12.2568H12.9968C13.0028 12.2568 13.0077 12.259 13.0113 12.2625C13.0148 12.266 13.0166 12.2706 13.0166 12.2766V12.3352C13.0491 12.3391 13.0804 12.3499 13.1083 12.367C13.1341 12.3832 13.1539 12.4022 13.1673 12.4234C13.1807 12.445 13.1877 12.4658 13.1892 12.4862C13.1893 12.4886 13.1889 12.4909 13.188 12.4931C13.1872 12.4953 13.1859 12.4973 13.1842 12.499C13.1825 12.5006 13.1806 12.5019 13.1784 12.5028C13.1762 12.5036 13.1738 12.504 13.1715 12.5039H13.0935C13.0819 12.5035 13.0737 12.4986 13.0695 12.4887C13.066 12.4711 13.0554 12.4562 13.037 12.4446C13.0187 12.433 12.9954 12.427 12.9682 12.427C12.9431 12.4255 12.9182 12.4316 12.8966 12.4442C12.8883 12.4496 12.8815 12.4571 12.877 12.4659C12.8725 12.4747 12.8703 12.4845 12.8708 12.4944C12.8708 12.5092 12.875 12.5215 12.8835 12.5314C12.895 12.5433 12.9092 12.5524 12.9248 12.5579C12.9439 12.5657 12.9707 12.5738 13.006 12.5826C13.055 12.5935 13.0939 12.6059 13.1224 12.6197C13.1483 12.6308 13.1705 12.6489 13.1867 12.6719C13.2001 12.6927 13.2072 12.7192 13.2072 12.7517C13.2079 12.7737 13.2037 12.7956 13.1947 12.8158C13.1858 12.836 13.1724 12.8539 13.1556 12.8681C13.1159 12.8999 13.0673 12.9185 13.0166 12.9214V12.9793C13.0166 12.9853 13.0148 12.9899 13.0113 12.9934C13.0094 12.9953 13.0072 12.9967 13.0048 12.9977C13.0024 12.9987 12.9998 12.9991 12.9972 12.9991H12.9456C12.9404 12.9992 12.9353 12.9973 12.9315 12.9938H12.9319Z" fill="white"/>
<path d="M12.1488 16.4907C12.8375 16.4907 13.3957 15.9324 13.3957 15.2438C13.3957 14.5551 12.8375 13.9968 12.1488 13.9968C11.4601 13.9968 10.9019 14.5551 10.9019 15.2438C10.9019 15.9324 11.4601 16.4907 12.1488 16.4907Z" fill="url(#paint9_linear_2374_5487)"/>
<path d="M12.1486 16.3334C12.7503 16.3334 13.2381 15.8456 13.2381 15.2438C13.2381 14.6421 12.7503 14.1543 12.1486 14.1543C11.5469 14.1543 11.0591 14.6421 11.0591 15.2438C11.0591 15.8456 11.5469 16.3334 12.1486 16.3334Z" fill="url(#paint10_linear_2374_5487)"/>
<path d="M12.0829 15.8424C12.0798 15.8393 12.0774 15.8357 12.0758 15.8316C12.0742 15.8275 12.0735 15.8231 12.0738 15.8188V15.7242C12.0155 15.7198 11.9587 15.7037 11.9068 15.6769C11.8646 15.6554 11.8285 15.6238 11.8017 15.5848C11.7784 15.5501 11.7651 15.5097 11.7632 15.4679C11.7632 15.4609 11.766 15.4542 11.772 15.4482C11.7748 15.4454 11.7781 15.4432 11.7817 15.4417C11.7854 15.4403 11.7893 15.4396 11.7932 15.4397H11.9146C11.9252 15.4397 11.9337 15.4415 11.9393 15.4457C11.9453 15.4496 11.9509 15.4563 11.9562 15.4651C11.9661 15.4958 11.9869 15.5216 12.0191 15.5421C12.0508 15.5629 12.0949 15.5731 12.1504 15.5731C12.2125 15.5731 12.2598 15.5625 12.2915 15.5413C12.3065 15.5324 12.3188 15.5196 12.3272 15.5044C12.3357 15.4891 12.3399 15.4719 12.3395 15.4545C12.3398 15.4433 12.3378 15.4321 12.3337 15.4216C12.3295 15.4112 12.3232 15.4017 12.3152 15.3938C12.2939 15.3747 12.2689 15.3603 12.2418 15.3515C12.1941 15.3347 12.1457 15.32 12.0967 15.3073C11.9905 15.2823 11.9125 15.2488 11.8631 15.2075C11.8137 15.1662 11.7889 15.1069 11.7889 15.0292C11.7889 14.9593 11.8144 14.8997 11.8652 14.8513C11.916 14.8026 11.9852 14.773 12.0734 14.7621V14.6692C12.0734 14.6593 12.0769 14.6516 12.0829 14.6456C12.0891 14.6397 12.0974 14.6365 12.1059 14.6368H12.1895C12.1939 14.6365 12.1982 14.6372 12.2023 14.6387C12.2063 14.6402 12.2101 14.6426 12.2132 14.6456C12.2162 14.6487 12.2185 14.6524 12.22 14.6565C12.2216 14.6606 12.2222 14.6649 12.222 14.6692V14.7649C12.2806 14.773 12.3307 14.7903 12.3724 14.8168C12.4109 14.84 12.4437 14.8716 12.4684 14.9092C12.4902 14.9445 12.5022 14.9784 12.504 15.0116C12.5041 15.0153 12.5034 15.019 12.5021 15.0225C12.5007 15.026 12.4986 15.0291 12.496 15.0318C12.4933 15.0344 12.4902 15.0365 12.4867 15.0379C12.4832 15.0393 12.4795 15.0399 12.4758 15.0398H12.3477C12.3286 15.0402 12.3159 15.0321 12.3085 15.0158C12.3052 15.0007 12.2987 14.9865 12.2895 14.9741C12.2803 14.9617 12.2686 14.9514 12.2552 14.9438C12.2212 14.9233 12.1819 14.9131 12.1422 14.9145C12.1015 14.9123 12.061 14.9221 12.0258 14.9428C12.0121 14.9516 12.001 14.9639 11.9935 14.9784C11.9861 14.9929 11.9826 15.0091 11.9834 15.0253C11.9834 15.0497 11.9905 15.0698 12.0042 15.0861C12.0184 15.1023 12.0406 15.1168 12.0713 15.1291C12.1027 15.1418 12.1468 15.1552 12.2044 15.1697C12.2845 15.1877 12.348 15.2078 12.3953 15.2304C12.4374 15.2485 12.4736 15.2778 12.5001 15.3151C12.5224 15.3497 12.5337 15.3931 12.5337 15.4464C12.5337 15.5244 12.5054 15.5879 12.4493 15.6366C12.3928 15.685 12.3173 15.7143 12.222 15.7242V15.8188C12.2222 15.8231 12.2216 15.8274 12.22 15.8315C12.2185 15.8356 12.2162 15.8393 12.2132 15.8424C12.2101 15.8454 12.2063 15.8478 12.2023 15.8493C12.1982 15.8508 12.1939 15.8515 12.1895 15.8512H12.1059C12.0974 15.8514 12.0891 15.8483 12.0829 15.8424Z" fill="white"/>
<path d="M13.7338 6.40721C14.4224 6.40721 14.9807 5.84894 14.9807 5.16027C14.9807 4.4716 14.4224 3.91333 13.7338 3.91333C13.0451 3.91333 12.4868 4.4716 12.4868 5.16027C12.4868 5.84894 13.0451 6.40721 13.7338 6.40721Z" fill="url(#paint11_linear_2374_5487)"/>
<path d="M13.7336 6.24986C14.3353 6.24986 14.8231 5.76206 14.8231 5.16033C14.8231 4.5586 14.3353 4.0708 13.7336 4.0708C13.1318 4.0708 12.644 4.5586 12.644 5.16033C12.644 5.76206 13.1318 6.24986 13.7336 6.24986Z" fill="url(#paint12_linear_2374_5487)"/>
<path d="M13.6679 5.75891C13.6647 5.75588 13.6622 5.7522 13.6606 5.74812C13.6589 5.74404 13.6582 5.73966 13.6584 5.73526V5.64068C13.6002 5.63625 13.5436 5.62017 13.4918 5.59338C13.4496 5.57193 13.4134 5.54026 13.3866 5.50126C13.3633 5.46657 13.35 5.42617 13.3481 5.38444C13.3481 5.37738 13.351 5.37068 13.357 5.36468C13.3597 5.36189 13.363 5.3597 13.3667 5.35824C13.3703 5.35678 13.3742 5.35609 13.3781 5.35621H13.4996C13.5101 5.35621 13.5186 5.35797 13.5243 5.36221C13.5303 5.36609 13.5359 5.37279 13.5412 5.38162C13.5511 5.41232 13.5719 5.43809 13.604 5.45856C13.6358 5.47938 13.6796 5.48962 13.7353 5.48962C13.7974 5.48962 13.8447 5.47903 13.8765 5.45785C13.8914 5.4489 13.9038 5.43615 13.9122 5.4209C13.9206 5.40565 13.9249 5.38845 13.9245 5.37103C13.9248 5.35976 13.9227 5.34855 13.9185 5.33811C13.9142 5.32767 13.9079 5.31821 13.8998 5.31032C13.8785 5.29123 13.8535 5.2768 13.8264 5.26797C13.7788 5.25124 13.7305 5.23652 13.6817 5.22385C13.5754 5.19879 13.4974 5.16526 13.448 5.12397C13.3986 5.08268 13.3739 5.02338 13.3739 4.94574C13.3739 4.87585 13.3993 4.81656 13.4501 4.76785C13.501 4.71915 13.5701 4.6895 13.6584 4.67891V4.58574C13.6584 4.57585 13.6619 4.56809 13.6679 4.56209C13.6741 4.55622 13.6823 4.55305 13.6909 4.55326H13.7745C13.7788 4.55304 13.7832 4.55371 13.7872 4.55523C13.7913 4.55674 13.795 4.55908 13.7981 4.56209C13.8012 4.56522 13.8035 4.56893 13.805 4.573C13.8065 4.57706 13.8072 4.5814 13.807 4.58574V4.68138C13.8656 4.6895 13.9157 4.70679 13.9573 4.73326C13.9959 4.75649 14.0287 4.7881 14.0533 4.82574C14.0752 4.86103 14.0872 4.89491 14.089 4.92809C14.0891 4.93182 14.0884 4.93554 14.087 4.93901C14.0856 4.94248 14.0836 4.94563 14.0809 4.94827C14.0783 4.95091 14.0751 4.95299 14.0717 4.95437C14.0682 4.95576 14.0645 4.95642 14.0607 4.95632H13.9326C13.9136 4.95668 13.9009 4.94856 13.8934 4.93232C13.8901 4.91725 13.8837 4.90305 13.8745 4.89064C13.8653 4.87823 13.8536 4.8679 13.8401 4.86032C13.8061 4.83993 13.7669 4.82988 13.7272 4.83138C13.6865 4.82918 13.646 4.839 13.6107 4.85962C13.5971 4.86843 13.586 4.88065 13.5786 4.89508C13.5712 4.90951 13.5676 4.92564 13.5684 4.94185C13.5684 4.96621 13.5754 4.98632 13.5889 5.00256C13.603 5.01879 13.6256 5.03326 13.6566 5.04562C13.6877 5.05832 13.7318 5.07174 13.7893 5.08621C13.8694 5.10421 13.933 5.12432 13.9803 5.14691C14.0223 5.165 14.0586 5.1943 14.0851 5.23162C14.1073 5.26621 14.1186 5.30962 14.1186 5.36291C14.1186 5.44091 14.0904 5.50444 14.0343 5.55315C13.9778 5.6015 13.9023 5.63079 13.807 5.64068V5.73526C13.8072 5.7396 13.8065 5.74393 13.805 5.748C13.8035 5.75207 13.8012 5.75578 13.7981 5.75891C13.795 5.76192 13.7913 5.76426 13.7872 5.76577C13.7832 5.76729 13.7788 5.76796 13.7745 5.76773H13.6909C13.6823 5.76795 13.6741 5.76478 13.6679 5.75891Z" fill="white"/>
<path d="M10.5285 21.9741V23.0407C10.5285 23.1791 10.3944 23.2941 10.2331 23.2941H2.98082C2.81635 23.2941 2.68506 23.1791 2.68506 23.0407V21.9741C2.68506 21.8354 2.81635 21.7207 2.98082 21.7207H10.2331C10.3944 21.7207 10.5285 21.8354 10.5285 21.9741Z" fill="#6AC163"/>
<path d="M10.5281 22.9126V23.0421C10.5281 23.178 10.3954 23.2941 10.2331 23.2941H2.98012C2.81424 23.2941 2.68506 23.1777 2.68506 23.0421V22.9126C2.68506 23.0485 2.81424 23.1646 2.98012 23.1646H10.2331C10.3954 23.1646 10.5281 23.0485 10.5281 22.9126Z" fill="#58AD4E"/>
<path d="M7.49345 21.78V23.2337C7.4935 23.2417 7.49195 23.2495 7.4889 23.2568C7.48585 23.2641 7.48136 23.2707 7.47569 23.2763C7.47002 23.2818 7.4633 23.2862 7.45592 23.289C7.44854 23.2919 7.44066 23.2933 7.43274 23.293H5.78239C5.77447 23.2933 5.76659 23.2919 5.75921 23.289C5.75183 23.2862 5.7451 23.2818 5.73944 23.2763C5.73377 23.2707 5.72928 23.2641 5.72623 23.2568C5.72318 23.2495 5.72163 23.2417 5.72168 23.2337V21.78C5.72168 21.7468 5.74709 21.72 5.78239 21.72H7.43274C7.46803 21.72 7.49345 21.7468 7.49345 21.78Z" fill="url(#paint13_linear_2374_5487)"/>
<path d="M7.24319 21.7207V23.2931H7.30142V21.7207H7.24319ZM5.9126 23.2931H5.97119V21.7207H5.9126V23.2931Z" fill="url(#paint14_linear_2374_5487)"/>
<path d="M10.5285 20.4002V21.4672C10.5285 21.6055 10.3944 21.7206 10.2331 21.7206H2.98082C2.81635 21.7206 2.68506 21.6055 2.68506 21.4672V20.3999C2.68506 20.2615 2.81635 20.1465 2.98082 20.1465H10.2331C10.3944 20.1465 10.5285 20.2615 10.5285 20.3999V20.4002Z" fill="#6AC163"/>
<path d="M10.5281 21.3389V21.4684C10.5281 21.6046 10.3954 21.7207 10.2331 21.7207H2.98012C2.81424 21.7207 2.68506 21.6043 2.68506 21.4684V21.3392C2.68506 21.4751 2.81424 21.5912 2.98012 21.5912H10.2331C10.3954 21.5912 10.5281 21.4747 10.5281 21.3392V21.3389Z" fill="#58AD4E"/>
<path d="M7.49345 20.2065V21.6599C7.4936 21.6679 7.49213 21.6758 7.48912 21.6832C7.48611 21.6906 7.48163 21.6973 7.47596 21.7029C7.47028 21.7085 7.46352 21.7129 7.4561 21.7159C7.44867 21.7188 7.44073 21.7202 7.43275 21.7199H5.7824C5.77442 21.7202 5.76648 21.7188 5.75905 21.7159C5.75162 21.7129 5.74486 21.7085 5.73919 21.7029C5.73351 21.6973 5.72903 21.6906 5.72603 21.6832C5.72302 21.6758 5.72154 21.6679 5.72169 21.6599V20.2065C5.72169 20.1737 5.7471 20.1472 5.7824 20.1472H7.43275C7.46804 20.1472 7.49345 20.1737 7.49345 20.2065Z" fill="url(#paint15_linear_2374_5487)"/>
<path d="M7.24319 20.1472V21.7196H7.30142V20.1472H7.24319ZM5.9126 21.7196H5.97119V20.1472H5.9126V21.7196Z" fill="url(#paint16_linear_2374_5487)"/>
<path d="M10.1647 18.8269V19.8938C10.1647 20.0322 10.0306 20.1469 9.86894 20.1469H2.61705C2.45223 20.1469 2.32129 20.0322 2.32129 19.8938V18.8269C2.32129 18.6885 2.45223 18.5735 2.61705 18.5735H9.86894C10.0306 18.5735 10.1647 18.6885 10.1647 18.8269Z" fill="#6AC163"/>
<path d="M10.1647 19.7654V19.8949C10.1647 20.0308 10.032 20.1469 9.86929 20.1469H2.61635C2.45047 20.1469 2.32129 20.0308 2.32129 19.8949V19.7654C2.32129 19.9013 2.45082 20.0177 2.6167 20.0177H9.86964C10.032 20.0177 10.1647 19.9013 10.1647 19.7654Z" fill="#58AD4E"/>
<path d="M7.1292 18.6331V20.0865C7.12929 20.0945 7.12779 20.1023 7.12479 20.1096C7.12178 20.117 7.11732 20.1236 7.11169 20.1292C7.10606 20.1348 7.09936 20.1391 7.092 20.1421C7.08464 20.145 7.07676 20.1464 7.06884 20.1462H5.41814C5.41016 20.1464 5.40222 20.1451 5.39479 20.1421C5.38736 20.1392 5.38061 20.1348 5.37493 20.1292C5.36925 20.1236 5.36478 20.1169 5.36177 20.1095C5.35876 20.1021 5.35728 20.0942 5.35743 20.0862V18.6331C5.35743 18.6 5.38284 18.5735 5.41814 18.5735H7.06884C7.10414 18.5735 7.12955 18.6 7.12955 18.6335L7.1292 18.6331Z" fill="url(#paint17_linear_2374_5487)"/>
<path d="M6.87942 18.5735V20.1462H6.938V18.5735H6.87942ZM5.54883 20.1462H5.60742V18.5735H5.54918V20.1462H5.54883Z" fill="url(#paint18_linear_2374_5487)"/>
<path d="M0.691895 22.7175V23.2398C0.691895 23.2698 0.721542 23.2931 0.758247 23.2931H3.54048C3.57719 23.2931 3.60684 23.2698 3.60684 23.2402V22.7178C3.60684 22.6875 3.57719 22.6646 3.54048 22.6646H0.758247C0.721542 22.6646 0.691895 22.6875 0.691895 22.7175Z" fill="url(#paint19_linear_2374_5487)"/>
<path d="M3.05406 22.8296V23.1286C3.05406 23.1529 3.07983 23.1723 3.11053 23.1723H3.20195C3.23371 23.1723 3.25842 23.1529 3.25842 23.1286V22.8296C3.25842 22.8056 3.23371 22.7852 3.20195 22.7852H3.11018C3.07983 22.7852 3.05371 22.8056 3.05371 22.8296H3.05406Z" fill="url(#paint20_linear_2374_5487)"/>
<path d="M2.65137 22.8296V23.1286C2.65137 23.1529 2.67713 23.1723 2.70784 23.1723H2.79925C2.83101 23.1723 2.85572 23.1529 2.85572 23.1286V22.8296C2.85572 22.8056 2.83101 22.7852 2.79925 22.7852H2.70784C2.67713 22.7852 2.65137 22.8056 2.65137 22.8296Z" fill="url(#paint21_linear_2374_5487)"/>
<path d="M2.24854 22.8296V23.1286C2.24854 23.1529 2.2743 23.1723 2.30501 23.1723H2.39677C2.42854 23.1723 2.45324 23.1529 2.45324 23.1286V22.8296C2.45324 22.8056 2.42854 22.7852 2.39677 22.7852H2.30501C2.2743 22.7852 2.24854 22.8056 2.24854 22.8296Z" fill="url(#paint22_linear_2374_5487)"/>
<path d="M1.8457 22.8296V23.1286C1.8457 23.1529 1.87182 23.1723 1.90217 23.1723H1.99394C2.0257 23.1723 2.05041 23.1529 2.05041 23.1286V22.8296C2.05041 22.8056 2.0257 22.7852 1.99394 22.7852H1.90217C1.87182 22.7852 1.8457 22.8056 1.8457 22.8296Z" fill="url(#paint23_linear_2374_5487)"/>
<path d="M1.44336 22.8296V23.1286C1.44336 23.1529 1.46912 23.1723 1.49983 23.1723H1.59124C1.62301 23.1723 1.64771 23.1529 1.64771 23.1286V22.8296C1.64771 22.8056 1.62301 22.7852 1.59124 22.7852H1.49948C1.46912 22.7852 1.44336 22.8056 1.44336 22.8296Z" fill="url(#paint24_linear_2374_5487)"/>
<path d="M1.04102 22.8296V23.1286C1.04102 23.1529 1.06643 23.1723 1.09749 23.1723H1.18855C1.22031 23.1723 1.24502 23.1529 1.24502 23.1286V22.8296C1.24502 22.8056 1.22031 22.7852 1.18855 22.7852H1.09749C1.06678 22.7852 1.04102 22.8056 1.04102 22.8296Z" fill="url(#paint25_linear_2374_5487)"/>
<path d="M0.995117 22.0889V22.6113C0.995117 22.6413 1.02476 22.6642 1.06182 22.6642H3.84406C3.88076 22.6642 3.91006 22.6413 3.91006 22.6113V22.0889C3.91006 22.0589 3.88076 22.0356 3.84406 22.0356H1.06182C1.02476 22.0356 0.99547 22.0589 0.99547 22.0886L0.995117 22.0889Z" fill="url(#paint26_linear_2374_5487)"/>
<path d="M3.35693 22.201V22.4999C3.35693 22.5239 3.3827 22.5433 3.4134 22.5433H3.50517C3.53693 22.5433 3.56164 22.5239 3.56164 22.4999V22.201C3.56164 22.1766 3.53693 22.1565 3.50517 22.1565H3.4134C3.3827 22.1565 3.35693 22.1766 3.35693 22.201Z" fill="url(#paint27_linear_2374_5487)"/>
<path d="M2.95494 22.201V22.4999C2.95494 22.5239 2.98071 22.5433 3.01141 22.5433H3.10283C3.13459 22.5433 3.1593 22.5239 3.1593 22.4999V22.201C3.1593 22.1766 3.13459 22.1565 3.10283 22.1565H3.01106C2.98071 22.1565 2.95459 22.1766 2.95459 22.201H2.95494Z" fill="url(#paint28_linear_2374_5487)"/>
<path d="M2.55225 22.201V22.4999C2.55225 22.5239 2.57801 22.5433 2.60872 22.5433H2.70013C2.73189 22.5433 2.7566 22.5239 2.7566 22.4999V22.201C2.7566 22.1766 2.73189 22.1565 2.70013 22.1565H2.60872C2.57801 22.1565 2.55225 22.1766 2.55225 22.201Z" fill="url(#paint29_linear_2374_5487)"/>
<path d="M2.14941 22.201V22.4999C2.14941 22.5239 2.17518 22.5433 2.20588 22.5433H2.29765C2.32941 22.5433 2.35412 22.5239 2.35412 22.4999V22.201C2.35412 22.1766 2.32941 22.1565 2.29765 22.1565H2.20588C2.17518 22.1565 2.14941 22.1766 2.14941 22.201Z" fill="url(#paint30_linear_2374_5487)"/>
<path d="M1.74693 22.201V22.4999C1.74693 22.5239 1.7727 22.5433 1.80341 22.5433H1.89482C1.92658 22.5433 1.95129 22.5239 1.95129 22.4999V22.201C1.95129 22.1766 1.92658 22.1565 1.89482 22.1565H1.80305C1.7727 22.1565 1.74658 22.1766 1.74658 22.201H1.74693Z" fill="url(#paint31_linear_2374_5487)"/>
<path d="M1.34424 22.201V22.4999C1.34424 22.5239 1.37 22.5433 1.40071 22.5433H1.49212C1.52389 22.5433 1.54859 22.5239 1.54859 22.4999V22.201C1.54859 22.1766 1.52389 22.1565 1.49212 22.1565H1.40036C1.37 22.1565 1.34424 22.1766 1.34424 22.201Z" fill="url(#paint32_linear_2374_5487)"/>
<path d="M1.44629 21.4599V21.9823C1.44629 22.0123 1.47594 22.0352 1.51264 22.0352H4.29488C4.33194 22.0352 4.36123 22.0123 4.36123 21.9823V21.4599C4.36123 21.4299 4.33194 21.407 4.29488 21.407H1.51264C1.47594 21.407 1.44629 21.4299 1.44629 21.4599Z" fill="url(#paint33_linear_2374_5487)"/>
<path d="M3.80811 21.5721V21.871C3.80811 21.895 3.83387 21.9144 3.86458 21.9144H3.95599C3.98775 21.9144 4.01246 21.895 4.01246 21.871V21.5721C4.01246 21.5477 3.98775 21.5276 3.95599 21.5276H3.86458C3.83387 21.5276 3.80811 21.5477 3.80811 21.5721Z" fill="url(#paint34_linear_2374_5487)"/>
<path d="M3.40576 21.5721V21.871C3.40576 21.895 3.43117 21.9144 3.46223 21.9144H3.55329C3.58506 21.9144 3.60976 21.895 3.60976 21.871V21.5721C3.60976 21.5477 3.58506 21.5276 3.55329 21.5276H3.46223C3.43153 21.5276 3.40576 21.5477 3.40576 21.5721Z" fill="url(#paint35_linear_2374_5487)"/>
<path d="M3.00328 21.5721V21.871C3.00328 21.895 3.02905 21.9144 3.05975 21.9144H3.15117C3.18293 21.9144 3.20764 21.895 3.20764 21.871V21.5721C3.20764 21.5477 3.18293 21.5276 3.15117 21.5276H3.0594C3.02905 21.5276 3.00293 21.5477 3.00293 21.5721H3.00328Z" fill="url(#paint36_linear_2374_5487)"/>
<path d="M2.60059 21.5721V21.871C2.60059 21.895 2.62635 21.9144 2.65706 21.9144H2.74847C2.78023 21.9144 2.80494 21.895 2.80494 21.871V21.5721C2.80494 21.5477 2.78023 21.5276 2.74847 21.5276H2.6567C2.62635 21.5276 2.60059 21.5477 2.60059 21.5721Z" fill="url(#paint37_linear_2374_5487)"/>
<path d="M2.19775 21.5721V21.871C2.19775 21.895 2.22352 21.9144 2.25422 21.9144H2.34599C2.37775 21.9144 2.40246 21.895 2.40246 21.871V21.5721C2.40246 21.5477 2.37775 21.5276 2.34599 21.5276H2.25422C2.22352 21.5276 2.19775 21.5477 2.19775 21.5721Z" fill="url(#paint38_linear_2374_5487)"/>
<path d="M1.79527 21.5721V21.871C1.79527 21.895 1.82104 21.9144 1.85175 21.9144H1.94316C1.97492 21.9144 1.99963 21.895 1.99963 21.871V21.5721C1.99963 21.5477 1.97492 21.5276 1.94316 21.5276H1.85139C1.82104 21.5276 1.79492 21.5477 1.79492 21.5721H1.79527Z" fill="url(#paint39_linear_2374_5487)"/>
<path d="M2.5523 21.4066C3.11271 21.4066 3.56701 20.9523 3.56701 20.3919C3.56701 19.8315 3.11271 19.3772 2.5523 19.3772C1.9919 19.3772 1.5376 19.8315 1.5376 20.3919C1.5376 20.9523 1.9919 21.4066 2.5523 21.4066Z" fill="url(#paint40_linear_2374_5487)"/>
<path d="M2.55198 21.2788C3.04182 21.2788 3.43892 20.8817 3.43892 20.3918C3.43892 19.902 3.04182 19.5049 2.55198 19.5049C2.06214 19.5049 1.66504 19.902 1.66504 20.3918C1.66504 20.8817 2.06214 21.2788 2.55198 21.2788Z" fill="url(#paint41_linear_2374_5487)"/>
<path d="M2.49875 20.8789C2.49616 20.8765 2.49413 20.8735 2.49279 20.8702C2.49145 20.8669 2.49084 20.8634 2.49099 20.8598V20.7829C2.44369 20.7793 2.3976 20.7662 2.35546 20.7444C2.32116 20.7269 2.2918 20.701 2.27005 20.6692C2.25092 20.641 2.23993 20.608 2.23828 20.574C2.23828 20.5683 2.24075 20.5634 2.24569 20.5584C2.24789 20.5562 2.25053 20.5544 2.25344 20.5532C2.25635 20.5519 2.25948 20.5513 2.26263 20.5514H2.36146C2.37028 20.5514 2.37699 20.5528 2.38193 20.556C2.38652 20.5595 2.3911 20.5648 2.39569 20.5718C2.40381 20.5969 2.4204 20.6177 2.44687 20.6347C2.47938 20.6531 2.5165 20.6618 2.55381 20.6597C2.59373 20.6623 2.63355 20.6534 2.66852 20.634C2.68062 20.6266 2.69058 20.6163 2.6974 20.6039C2.70421 20.5915 2.70764 20.5775 2.70734 20.5634C2.70764 20.5542 2.70607 20.5452 2.70273 20.5367C2.69939 20.5282 2.69436 20.5204 2.68793 20.514C2.67058 20.4983 2.65013 20.4866 2.62793 20.4794C2.58904 20.4657 2.5496 20.4537 2.50969 20.4434C2.42358 20.4229 2.36005 20.3961 2.31981 20.3622C2.27958 20.3287 2.25946 20.2803 2.25946 20.2175C2.25946 20.1603 2.28028 20.1116 2.32158 20.0724C2.36855 20.0303 2.42808 20.0047 2.49099 19.9997V19.9242C2.49078 19.9206 2.49137 19.917 2.49271 19.9136C2.49406 19.9103 2.49612 19.9072 2.49875 19.9048C2.50125 19.9024 2.50419 19.9006 2.5074 19.8994C2.51061 19.8982 2.51403 19.8976 2.51746 19.8977H2.58558C2.59369 19.8977 2.60005 19.9002 2.60463 19.9048C2.60958 19.9097 2.61169 19.9161 2.61169 19.9242V20.0018C2.65521 20.0069 2.69711 20.0214 2.73452 20.0442C2.76574 20.0632 2.79228 20.089 2.81216 20.1197C2.83016 20.148 2.84005 20.1762 2.84146 20.203C2.84156 20.2061 2.84103 20.2091 2.83991 20.2119C2.83879 20.2147 2.83711 20.2173 2.83496 20.2195C2.83281 20.2216 2.83024 20.2233 2.82741 20.2244C2.82458 20.2255 2.82156 20.2261 2.81852 20.226H2.71405C2.69887 20.226 2.68828 20.2196 2.68228 20.2062C2.67957 20.1939 2.67431 20.1824 2.66683 20.1723C2.65935 20.1622 2.64982 20.1538 2.63887 20.1476C2.61122 20.131 2.57934 20.1228 2.5471 20.124C2.51389 20.1221 2.48087 20.1301 2.45216 20.1469C2.44103 20.1541 2.43197 20.164 2.4259 20.1758C2.41982 20.1876 2.41696 20.2007 2.41758 20.214C2.41758 20.2337 2.42322 20.2503 2.43452 20.2634C2.44581 20.2764 2.46416 20.2881 2.48958 20.2987C2.51463 20.3089 2.55099 20.3198 2.59758 20.3315C2.66287 20.3463 2.71475 20.3625 2.75287 20.3809C2.79169 20.3992 2.81993 20.4222 2.83828 20.4501C2.85762 20.4822 2.86707 20.5192 2.86546 20.5567C2.86546 20.6202 2.84287 20.6721 2.79699 20.7116C2.74419 20.7539 2.67958 20.7788 2.61205 20.7829V20.8598C2.61205 20.868 2.60958 20.874 2.60499 20.8789C2.60241 20.8813 2.59936 20.8832 2.59602 20.8845C2.59268 20.8857 2.58912 20.8862 2.58558 20.886H2.51746C2.51403 20.8861 2.51061 20.8855 2.5074 20.8843C2.50419 20.8831 2.50125 20.8812 2.49875 20.8789Z" fill="white"/>
<path d="M19.6834 15.3324C21.6851 15.3324 23.3078 13.7098 23.3078 11.7081C23.3078 9.70642 21.6851 8.08374 19.6834 8.08374C17.6818 8.08374 16.0591 9.70642 16.0591 11.7081C16.0591 13.7098 17.6818 15.3324 19.6834 15.3324Z" fill="#666481"/>
<path d="M19.6834 14.8181C21.401 14.8181 22.7935 13.4257 22.7935 11.708C22.7935 9.99035 21.401 8.5979 19.6834 8.5979C17.9657 8.5979 16.5732 9.99035 16.5732 11.708C16.5732 13.4257 17.9657 14.8181 19.6834 14.8181Z" fill="#F0F4FF"/>
<path d="M19.623 8.85107H19.7434V9.07025H19.623V8.85107Z" fill="#5D82F1"/>
<path d="M20.3081 9.14446C20.3452 9.15364 20.385 9.16282 20.4221 9.17835L20.4807 8.96235L20.3635 8.93164L20.3081 9.14446Z" fill="#5D82F1"/>
<path d="M20.9502 9.39417C20.9873 9.41288 21.0208 9.43441 21.055 9.45276L21.163 9.26465L21.0614 9.20288L20.9502 9.39417Z" fill="#5D82F1"/>
<path d="M21.5024 9.80194C21.5331 9.82665 21.561 9.85735 21.5889 9.88841L21.7463 9.73065L21.6599 9.64453L21.5024 9.80194Z" fill="#5D82F1"/>
<path d="M21.9346 10.3386C21.9561 10.3725 21.978 10.4067 21.9963 10.4434L22.1876 10.3326L22.129 10.2278L21.9349 10.3386H21.9346Z" fill="#5D82F1"/>
<path d="M22.2153 10.9683C22.2245 11.0053 22.2369 11.0456 22.2464 11.0826L22.4592 11.0268L22.4282 10.9097L22.2153 10.9683Z" fill="#5D82F1"/>
<path d="M22.3203 11.6475H22.5395V11.7678H22.3203V11.6475Z" fill="#5D82F1"/>
<path d="M22.2153 12.4469L22.4282 12.5055L22.4592 12.3883L22.2464 12.3325C22.2369 12.3696 22.2277 12.4098 22.2153 12.4469Z" fill="#5D82F1"/>
<path d="M21.938 13.0764L22.1293 13.1875L22.1879 13.0855L21.9966 12.9744L21.938 13.0764Z" fill="#5D82F1"/>
<path d="M21.5059 13.6133L21.6601 13.7711L21.7466 13.6846L21.5892 13.53C21.5646 13.5608 21.5366 13.5887 21.5059 13.6133Z" fill="#5D82F1"/>
<path d="M20.9502 14.021L21.0614 14.2123L21.163 14.1537L21.0518 13.9624C21.019 13.9838 20.9851 14.0033 20.9502 14.021Z" fill="#5D82F1"/>
<path d="M20.3081 14.2709L20.3635 14.4841L20.4807 14.4531L20.4221 14.2402C20.385 14.2526 20.3452 14.2618 20.3081 14.2709Z" fill="#5D82F1"/>
<path d="M19.623 14.345H19.7434V14.5641H19.623V14.345Z" fill="#5D82F1"/>
<path d="M18.8853 14.4531L19.0028 14.4841L19.0582 14.2709C19.0211 14.2618 18.9809 14.2494 18.9438 14.2402L18.8853 14.4531Z" fill="#5D82F1"/>
<path d="M18.2031 14.1537L18.3079 14.2123L18.4191 14.021C18.3831 14.0023 18.3481 13.9816 18.3143 13.9592L18.2031 14.1533V14.1537Z" fill="#5D82F1"/>
<path d="M17.6201 13.6845L17.7066 13.771L17.864 13.6132C17.8329 13.5869 17.804 13.5581 17.7775 13.5271L17.6201 13.6845Z" fill="#5D82F1"/>
<path d="M17.1782 13.0855L17.24 13.1875L17.4285 13.0795C17.4098 13.0457 17.3882 13.0114 17.3699 12.9744L17.1782 13.0855Z" fill="#5D82F1"/>
<path d="M16.9067 12.3883L16.9406 12.5055L17.1534 12.4469C17.1383 12.4098 17.1287 12.3696 17.1196 12.3325L16.9067 12.3883Z" fill="#5D82F1"/>
<path d="M16.8267 11.6475H17.0458V11.7678H16.8267V11.6475Z" fill="#5D82F1"/>
<path d="M16.9067 11.0268L17.1196 11.0826C17.1294 11.0441 17.1407 11.0059 17.1534 10.9683L16.941 10.9097L16.9071 11.0268H16.9067Z" fill="#5D82F1"/>
<path d="M17.1782 10.3326L17.3699 10.4434C17.3882 10.4067 17.4098 10.3728 17.4313 10.3386L17.24 10.2278L17.1782 10.3326Z" fill="#5D82F1"/>
<path d="M17.6201 9.73065L17.7775 9.88841C17.8048 9.85805 17.8336 9.82919 17.864 9.80194L17.7066 9.64453L17.6201 9.73065Z" fill="#5D82F1"/>
<path d="M18.2031 9.26465L18.3143 9.45594C18.3482 9.43441 18.3821 9.41288 18.4191 9.39417L18.3079 9.20288L18.2031 9.26465Z" fill="#5D82F1"/>
<path d="M18.8853 8.96235L18.9438 9.17835C18.9809 9.16599 19.0211 9.15364 19.0582 9.14446L19.0028 8.93164L18.8853 8.96235Z" fill="#5D82F1"/>
<path d="M19.2056 11.7085C19.2056 11.8353 19.2559 11.9568 19.3455 12.0464C19.4352 12.1361 19.5567 12.1864 19.6834 12.1864C19.8102 12.1864 19.9317 12.1361 20.0214 12.0464C20.111 11.9568 20.1613 11.8353 20.1613 11.7085C20.1613 11.7029 20.1613 11.6944 20.1585 11.6888L21.0691 10.3359L19.7244 11.2324C19.7131 11.2292 19.699 11.2292 19.6849 11.2292C19.4184 11.2292 19.2056 11.4445 19.2056 11.7085Z" fill="#5D82F1"/>
<path d="M19.6835 11.9859C19.8369 11.9859 19.9613 11.8616 19.9613 11.7082C19.9613 11.5548 19.8369 11.4304 19.6835 11.4304C19.5301 11.4304 19.4058 11.5548 19.4058 11.7082C19.4058 11.8616 19.5301 11.9859 19.6835 11.9859Z" fill="white"/>
</g>
<defs>
<linearGradient id="paint0_linear_2374_5487" x1="14.4754" y1="15.5913" x2="14.4754" y2="18.2634" gradientUnits="userSpaceOnUse">
<stop stop-color="#FFE05F"/>
<stop offset="0.175" stop-color="#FFD24E"/>
<stop offset="0.464" stop-color="#FFC038"/>
<stop offset="0.743" stop-color="#FFB52B"/>
<stop offset="1" stop-color="#FFB127"/>
</linearGradient>
<linearGradient id="paint1_linear_2374_5487" x1="14.4755" y1="18.2985" x2="14.4755" y2="15.9818" gradientUnits="userSpaceOnUse">
<stop stop-color="#FFE05F"/>
<stop offset="0.152" stop-color="#FFDB59"/>
<stop offset="0.358" stop-color="#FFCC47"/>
<stop offset="0.595" stop-color="#FFB42B"/>
<stop offset="0.624" stop-color="#FFB127"/>
</linearGradient>
<linearGradient id="paint2_linear_2374_5487" x1="13.0434" y1="4.17033" x2="13.0434" y2="5.96927" gradientUnits="userSpaceOnUse">
<stop stop-color="#FFE05F"/>
<stop offset="0.175" stop-color="#FFD24E"/>
<stop offset="0.464" stop-color="#FFC038"/>
<stop offset="0.743" stop-color="#FFB52B"/>
<stop offset="1" stop-color="#FFB127"/>
</linearGradient>
<linearGradient id="paint3_linear_2374_5487" x1="15.5009" y1="19.6094" x2="16.0147" y2="18.3758" gradientUnits="userSpaceOnUse">
<stop stop-color="#FFE05F"/>
<stop offset="0.175" stop-color="#FFD24E"/>
<stop offset="0.464" stop-color="#FFC038"/>
<stop offset="0.743" stop-color="#FFB52B"/>
<stop offset="1" stop-color="#FFB127"/>
</linearGradient>
<linearGradient id="paint4_linear_2374_5487" x1="13.2002" y1="7.46482" x2="13.4229" y2="10.7031" gradientUnits="userSpaceOnUse">
<stop stop-color="#FFE05F"/>
<stop offset="0.175" stop-color="#FFD24E"/>
<stop offset="0.464" stop-color="#FFC038"/>
<stop offset="0.743" stop-color="#FFB52B"/>
<stop offset="1" stop-color="#FFB127"/>
</linearGradient>
<linearGradient id="paint5_linear_2374_5487" x1="10.274" y1="18.7182" x2="10.5504" y2="17.5874" gradientUnits="userSpaceOnUse">
<stop stop-color="#FFE05F"/>
<stop offset="0.175" stop-color="#FFD24E"/>
<stop offset="0.464" stop-color="#FFC038"/>
<stop offset="0.743" stop-color="#FFB52B"/>
<stop offset="1" stop-color="#FFB127"/>
</linearGradient>
<linearGradient id="paint6_linear_2374_5487" x1="12.1269" y1="8.46356" x2="12.3355" y2="11.4978" gradientUnits="userSpaceOnUse">
<stop stop-color="#FFE05F"/>
<stop offset="0.175" stop-color="#FFD24E"/>
<stop offset="0.464" stop-color="#FFC038"/>
<stop offset="0.743" stop-color="#FFB52B"/>
<stop offset="1" stop-color="#FFB127"/>
</linearGradient>
<linearGradient id="paint7_linear_2374_5487" x1="12.9715" y1="11.6135" x2="12.9715" y2="13.3817" gradientUnits="userSpaceOnUse">
<stop stop-color="#FFE05F"/>
<stop offset="0.175" stop-color="#FFD24E"/>
<stop offset="0.464" stop-color="#FFC038"/>
<stop offset="0.743" stop-color="#FFB52B"/>
<stop offset="1" stop-color="#FFB127"/>
</linearGradient>
<linearGradient id="paint8_linear_2374_5487" x1="12.9718" y1="13.4051" x2="12.9718" y2="11.8719" gradientUnits="userSpaceOnUse">
<stop stop-color="#FFE05F"/>
<stop offset="0.152" stop-color="#FFDB59"/>
<stop offset="0.358" stop-color="#FFCC47"/>
<stop offset="0.595" stop-color="#FFB42B"/>
<stop offset="0.624" stop-color="#FFB127"/>
</linearGradient>
<linearGradient id="paint9_linear_2374_5487" x1="12.1488" y1="13.5832" x2="12.1488" y2="16.4773" gradientUnits="userSpaceOnUse">
<stop stop-color="#FFE05F"/>
<stop offset="0.175" stop-color="#FFD24E"/>
<stop offset="0.464" stop-color="#FFC038"/>
<stop offset="0.743" stop-color="#FFB52B"/>
<stop offset="1" stop-color="#FFB127"/>
</linearGradient>
<linearGradient id="paint10_linear_2374_5487" x1="12.1486" y1="16.5155" x2="12.1486" y2="14.0064" gradientUnits="userSpaceOnUse">
<stop stop-color="#FFE05F"/>
<stop offset="0.152" stop-color="#FFDB59"/>
<stop offset="0.358" stop-color="#FFCC47"/>
<stop offset="0.595" stop-color="#FFB42B"/>
<stop offset="0.624" stop-color="#FFB127"/>
</linearGradient>
<linearGradient id="paint11_linear_2374_5487" x1="13.7338" y1="3.49968" x2="13.7338" y2="6.3938" gradientUnits="userSpaceOnUse">
<stop stop-color="#FFE05F"/>
<stop offset="0.175" stop-color="#FFD24E"/>
<stop offset="0.464" stop-color="#FFC038"/>
<stop offset="0.743" stop-color="#FFB52B"/>
<stop offset="1" stop-color="#FFB127"/>
</linearGradient>
<linearGradient id="paint12_linear_2374_5487" x1="13.7336" y1="6.43198" x2="13.7336" y2="3.92292" gradientUnits="userSpaceOnUse">
<stop stop-color="#FFE05F"/>
<stop offset="0.152" stop-color="#FFDB59"/>
<stop offset="0.358" stop-color="#FFCC47"/>
<stop offset="0.595" stop-color="#FFB42B"/>
<stop offset="0.624" stop-color="#FFB127"/>
</linearGradient>
<linearGradient id="paint13_linear_2374_5487" x1="6.70074" y1="21.6413" x2="6.51403" y2="23.3724" gradientUnits="userSpaceOnUse">
<stop stop-color="#EFEFEF"/>
<stop offset="0.48" stop-color="#E4E4E4"/>
<stop offset="1" stop-color="#E0E0E0"/>
</linearGradient>
<linearGradient id="paint14_linear_2374_5487" x1="5.9126" y1="22.5071" x2="7.30142" y2="22.5071" gradientUnits="userSpaceOnUse">
<stop stop-color="#476870"/>
<stop offset="1" stop-color="#76949B"/>
</linearGradient>
<linearGradient id="paint15_linear_2374_5487" x1="6.70075" y1="20.0678" x2="6.51404" y2="21.799" gradientUnits="userSpaceOnUse">
<stop stop-color="#EFEFEF"/>
<stop offset="0.48" stop-color="#E4E4E4"/>
<stop offset="1" stop-color="#E0E0E0"/>
</linearGradient>
<linearGradient id="paint16_linear_2374_5487" x1="5.9126" y1="20.9332" x2="7.30142" y2="20.9332" gradientUnits="userSpaceOnUse">
<stop stop-color="#476870"/>
<stop offset="1" stop-color="#76949B"/>
</linearGradient>
<linearGradient id="paint17_linear_2374_5487" x1="6.33684" y1="18.4941" x2="6.15014" y2="20.2256" gradientUnits="userSpaceOnUse">
<stop stop-color="#EFEFEF"/>
<stop offset="0.48" stop-color="#E4E4E4"/>
<stop offset="1" stop-color="#E0E0E0"/>
</linearGradient>
<linearGradient id="paint18_linear_2374_5487" x1="5.54918" y1="19.3598" x2="6.938" y2="19.3598" gradientUnits="userSpaceOnUse">
<stop stop-color="#476870"/>
<stop offset="1" stop-color="#76949B"/>
</linearGradient>
<linearGradient id="paint19_linear_2374_5487" x1="2.14037" y1="22.7524" x2="2.17778" y2="23.6831" gradientUnits="userSpaceOnUse">
<stop stop-color="#FFE05F"/>
<stop offset="0.149" stop-color="#FFD450"/>
<stop offset="0.443" stop-color="#FFC13A"/>
<stop offset="0.72" stop-color="#FFB52C"/>
<stop offset="0.962" stop-color="#FFB127"/>
<stop offset="1" stop-color="#FFB127"/>
</linearGradient>
<linearGradient id="paint20_linear_2374_5487" x1="3.15606" y1="23.1279" x2="3.15606" y2="22.8254" gradientUnits="userSpaceOnUse">
<stop stop-color="#FFE05F"/>
<stop offset="0.175" stop-color="#FFD24E"/>
<stop offset="0.464" stop-color="#FFC038"/>
<stop offset="0.743" stop-color="#FFB52B"/>
<stop offset="1" stop-color="#FFB127"/>
</linearGradient>
<linearGradient id="paint21_linear_2374_5487" x1="2.75372" y1="23.1279" x2="2.75372" y2="22.8254" gradientUnits="userSpaceOnUse">
<stop stop-color="#FFE05F"/>
<stop offset="0.175" stop-color="#FFD24E"/>
<stop offset="0.464" stop-color="#FFC038"/>
<stop offset="0.743" stop-color="#FFB52B"/>
<stop offset="1" stop-color="#FFB127"/>
</linearGradient>
<linearGradient id="paint22_linear_2374_5487" x1="2.35089" y1="23.1279" x2="2.35089" y2="22.8254" gradientUnits="userSpaceOnUse">
<stop stop-color="#FFE05F"/>
<stop offset="0.175" stop-color="#FFD24E"/>
<stop offset="0.464" stop-color="#FFC038"/>
<stop offset="0.743" stop-color="#FFB52B"/>
<stop offset="1" stop-color="#FFB127"/>
</linearGradient>
<linearGradient id="paint23_linear_2374_5487" x1="1.94806" y1="23.1279" x2="1.94806" y2="22.8254" gradientUnits="userSpaceOnUse">
<stop stop-color="#FFE05F"/>
<stop offset="0.175" stop-color="#FFD24E"/>
<stop offset="0.464" stop-color="#FFC038"/>
<stop offset="0.743" stop-color="#FFB52B"/>
<stop offset="1" stop-color="#FFB127"/>
</linearGradient>
<linearGradient id="paint24_linear_2374_5487" x1="1.54571" y1="23.1279" x2="1.54571" y2="22.8254" gradientUnits="userSpaceOnUse">
<stop stop-color="#FFE05F"/>
<stop offset="0.175" stop-color="#FFD24E"/>
<stop offset="0.464" stop-color="#FFC038"/>
<stop offset="0.743" stop-color="#FFB52B"/>
<stop offset="1" stop-color="#FFB127"/>
</linearGradient>
<linearGradient id="paint25_linear_2374_5487" x1="1.14302" y1="23.1279" x2="1.14302" y2="22.8254" gradientUnits="userSpaceOnUse">
<stop stop-color="#FFE05F"/>
<stop offset="0.175" stop-color="#FFD24E"/>
<stop offset="0.464" stop-color="#FFC038"/>
<stop offset="0.743" stop-color="#FFB52B"/>
<stop offset="1" stop-color="#FFB127"/>
</linearGradient>
<linearGradient id="paint26_linear_2374_5487" x1="2.44394" y1="22.1239" x2="2.48135" y2="23.0546" gradientUnits="userSpaceOnUse">
<stop stop-color="#FFE05F"/>
<stop offset="0.149" stop-color="#FFD450"/>
<stop offset="0.443" stop-color="#FFC13A"/>
<stop offset="0.72" stop-color="#FFB52C"/>
<stop offset="0.962" stop-color="#FFB127"/>
<stop offset="1" stop-color="#FFB127"/>
</linearGradient>
<linearGradient id="paint27_linear_2374_5487" x1="3.45929" y1="22.4988" x2="3.45929" y2="22.1967" gradientUnits="userSpaceOnUse">
<stop stop-color="#FFE05F"/>
<stop offset="0.175" stop-color="#FFD24E"/>
<stop offset="0.464" stop-color="#FFC038"/>
<stop offset="0.743" stop-color="#FFB52B"/>
<stop offset="1" stop-color="#FFB127"/>
</linearGradient>
<linearGradient id="paint28_linear_2374_5487" x1="3.0573" y1="22.4988" x2="3.0573" y2="22.1967" gradientUnits="userSpaceOnUse">
<stop stop-color="#FFE05F"/>
<stop offset="0.175" stop-color="#FFD24E"/>
<stop offset="0.464" stop-color="#FFC038"/>
<stop offset="0.743" stop-color="#FFB52B"/>
<stop offset="1" stop-color="#FFB127"/>
</linearGradient>
<linearGradient id="paint29_linear_2374_5487" x1="2.6546" y1="22.4988" x2="2.6546" y2="22.1967" gradientUnits="userSpaceOnUse">
<stop stop-color="#FFE05F"/>
<stop offset="0.175" stop-color="#FFD24E"/>
<stop offset="0.464" stop-color="#FFC038"/>
<stop offset="0.743" stop-color="#FFB52B"/>
<stop offset="1" stop-color="#FFB127"/>
</linearGradient>
<linearGradient id="paint30_linear_2374_5487" x1="2.25177" y1="22.4988" x2="2.25177" y2="22.1967" gradientUnits="userSpaceOnUse">
<stop stop-color="#FFE05F"/>
<stop offset="0.175" stop-color="#FFD24E"/>
<stop offset="0.464" stop-color="#FFC038"/>
<stop offset="0.743" stop-color="#FFB52B"/>
<stop offset="1" stop-color="#FFB127"/>
</linearGradient>
<linearGradient id="paint31_linear_2374_5487" x1="1.84893" y1="22.4988" x2="1.84893" y2="22.1967" gradientUnits="userSpaceOnUse">
<stop stop-color="#FFE05F"/>
<stop offset="0.175" stop-color="#FFD24E"/>
<stop offset="0.464" stop-color="#FFC038"/>
<stop offset="0.743" stop-color="#FFB52B"/>
<stop offset="1" stop-color="#FFB127"/>
</linearGradient>
<linearGradient id="paint32_linear_2374_5487" x1="1.44659" y1="22.4988" x2="1.44659" y2="22.1967" gradientUnits="userSpaceOnUse">
<stop stop-color="#FFE05F"/>
<stop offset="0.175" stop-color="#FFD24E"/>
<stop offset="0.464" stop-color="#FFC038"/>
<stop offset="0.743" stop-color="#FFB52B"/>
<stop offset="1" stop-color="#FFB127"/>
</linearGradient>
<linearGradient id="paint33_linear_2374_5487" x1="2.89476" y1="21.4949" x2="2.93217" y2="22.4256" gradientUnits="userSpaceOnUse">
<stop stop-color="#FFE05F"/>
<stop offset="0.149" stop-color="#FFD450"/>
<stop offset="0.443" stop-color="#FFC13A"/>
<stop offset="0.72" stop-color="#FFB52C"/>
<stop offset="0.962" stop-color="#FFB127"/>
<stop offset="1" stop-color="#FFB127"/>
</linearGradient>
<linearGradient id="paint34_linear_2374_5487" x1="3.91011" y1="21.8703" x2="3.91011" y2="21.5678" gradientUnits="userSpaceOnUse">
<stop stop-color="#FFE05F"/>
<stop offset="0.175" stop-color="#FFD24E"/>
<stop offset="0.464" stop-color="#FFC038"/>
<stop offset="0.743" stop-color="#FFB52B"/>
<stop offset="1" stop-color="#FFB127"/>
</linearGradient>
<linearGradient id="paint35_linear_2374_5487" x1="3.50776" y1="21.8703" x2="3.50776" y2="21.5678" gradientUnits="userSpaceOnUse">
<stop stop-color="#FFE05F"/>
<stop offset="0.175" stop-color="#FFD24E"/>
<stop offset="0.464" stop-color="#FFC038"/>
<stop offset="0.743" stop-color="#FFB52B"/>
<stop offset="1" stop-color="#FFB127"/>
</linearGradient>
<linearGradient id="paint36_linear_2374_5487" x1="3.10528" y1="21.8703" x2="3.10528" y2="21.5678" gradientUnits="userSpaceOnUse">
<stop stop-color="#FFE05F"/>
<stop offset="0.175" stop-color="#FFD24E"/>
<stop offset="0.464" stop-color="#FFC038"/>
<stop offset="0.743" stop-color="#FFB52B"/>
<stop offset="1" stop-color="#FFB127"/>
</linearGradient>
<linearGradient id="paint37_linear_2374_5487" x1="2.70294" y1="21.8703" x2="2.70294" y2="21.5678" gradientUnits="userSpaceOnUse">
<stop stop-color="#FFE05F"/>
<stop offset="0.175" stop-color="#FFD24E"/>
<stop offset="0.464" stop-color="#FFC038"/>
<stop offset="0.743" stop-color="#FFB52B"/>
<stop offset="1" stop-color="#FFB127"/>
</linearGradient>
<linearGradient id="paint38_linear_2374_5487" x1="2.30011" y1="21.8703" x2="2.30011" y2="21.5678" gradientUnits="userSpaceOnUse">
<stop stop-color="#FFE05F"/>
<stop offset="0.175" stop-color="#FFD24E"/>
<stop offset="0.464" stop-color="#FFC038"/>
<stop offset="0.743" stop-color="#FFB52B"/>
<stop offset="1" stop-color="#FFB127"/>
</linearGradient>
<linearGradient id="paint39_linear_2374_5487" x1="1.89727" y1="21.8703" x2="1.89727" y2="21.5678" gradientUnits="userSpaceOnUse">
<stop stop-color="#FFE05F"/>
<stop offset="0.175" stop-color="#FFD24E"/>
<stop offset="0.464" stop-color="#FFC038"/>
<stop offset="0.743" stop-color="#FFB52B"/>
<stop offset="1" stop-color="#FFB127"/>
</linearGradient>
<linearGradient id="paint40_linear_2374_5487" x1="2.5523" y1="19.0405" x2="2.5523" y2="21.3957" gradientUnits="userSpaceOnUse">
<stop stop-color="#FFE05F"/>
<stop offset="0.175" stop-color="#FFD24E"/>
<stop offset="0.464" stop-color="#FFC038"/>
<stop offset="0.743" stop-color="#FFB52B"/>
<stop offset="1" stop-color="#FFB127"/>
</linearGradient>
<linearGradient id="paint41_linear_2374_5487" x1="2.55198" y1="21.4266" x2="2.55198" y2="19.3845" gradientUnits="userSpaceOnUse">
<stop stop-color="#FFE05F"/>
<stop offset="0.152" stop-color="#FFDB59"/>
<stop offset="0.358" stop-color="#FFCC47"/>
<stop offset="0.595" stop-color="#FFB42B"/>
<stop offset="0.624" stop-color="#FFB127"/>
</linearGradient>
<clipPath id="clip0_2374_5487">
<rect width="24" height="24" fill="white"/>
</clipPath>
</defs>
</svg>
