<svg width="57" height="56" viewBox="0 0 57 56" fill="none" xmlns="http://www.w3.org/2000/svg">
<g clip-path="url(#clip0_2271_6045)">
<g style="mix-blend-mode:multiply">
<path d="M56.4836 0H0.516406C0.507345 0 0.5 0.00734533 0.5 0.0164063V55.9836C0.5 55.9927 0.507345 56 0.516406 56H56.4836C56.4927 56 56.5 55.9927 56.5 55.9836V0.0164063C56.5 0.00734533 56.4927 0 56.4836 0Z" fill="white"/>
</g>
<g style="mix-blend-mode:multiply">
<path d="M26.4221 23.5156C23.8381 23.1498 21.2041 23.5828 18.8731 24.7565C16.5422 25.9302 14.6259 27.7885 13.3811 30.0822C12.1363 32.376 11.6225 34.9955 11.9087 37.5895C12.1949 40.1835 13.2674 42.628 14.9823 44.5952C16.6972 46.5624 18.9726 47.9582 21.5033 48.5955C24.034 49.2329 26.6991 49.0812 29.1412 48.1609C31.5833 47.2406 33.6856 45.5956 35.1663 43.4466C36.6469 41.2975 37.4351 38.7472 37.4252 36.1375V22.1375C40.2317 24.1451 43.5997 25.2167 47.0502 25.2V18.3093C44.4975 18.3093 42.0493 17.2953 40.2443 15.4902C38.4393 13.6852 37.4252 11.237 37.4252 8.68433H30.469V36.2031C30.4665 37.4381 30.0733 38.6407 29.3456 39.6387C28.618 40.6367 27.5932 41.3788 26.4181 41.7589C25.243 42.1389 23.9777 42.1374 22.8035 41.7546C21.6293 41.3717 20.6063 40.6272 19.881 39.6275C19.1558 38.6278 18.7654 37.4242 18.7658 36.1892C18.7663 34.9541 19.1575 33.7509 19.8835 32.7517C20.6095 31.7525 21.633 31.0087 22.8075 30.6267C23.982 30.2446 25.2472 30.244 26.4221 30.625V23.5156Z" fill="#FF004F"/>
</g>
<g style="mix-blend-mode:multiply">
<path d="M24.4533 21.875C21.8694 21.5092 19.2353 21.9422 16.9044 23.1159C14.5735 24.2896 12.6571 26.1479 11.4123 28.4416C10.1675 30.7353 9.65379 33.3548 9.93998 35.9488C10.2262 38.5428 11.2986 40.9873 13.0135 42.9545C14.7284 44.9217 17.0038 46.3176 19.5345 46.9549C22.0652 47.5922 24.7303 47.4406 27.1724 46.5203C29.6145 45.6 31.7168 43.955 33.1975 41.806C34.6782 39.6569 35.4664 37.1065 35.4565 34.4968V20.4968C38.2629 22.5044 41.6309 23.5761 45.0815 23.5593V16.6687C42.5288 16.6687 40.0806 15.6546 38.2756 13.8496C36.4705 12.0446 35.4565 9.59641 35.4565 7.0437H28.5002V34.5625C28.4977 35.7975 28.1045 37.0001 27.3769 37.9981C26.6492 38.996 25.6245 39.7382 24.4494 40.1183C23.2742 40.4983 22.009 40.4968 20.8347 40.114C19.6605 39.7311 18.6375 38.9865 17.9123 37.9868C17.187 36.9872 16.7967 35.7836 16.7971 34.5486C16.7975 33.3135 17.1888 32.1102 17.9147 31.1111C18.6407 30.1119 19.6642 29.3681 20.8387 28.986C22.0132 28.604 23.2785 28.6034 24.4533 28.9843V21.875Z" fill="#00F2EA"/>
</g>
</g>
<defs>
<clipPath id="clip0_2271_6045">
<rect width="56" height="56" fill="white" transform="translate(0.5)"/>
</clipPath>
</defs>
</svg>
