<svg width="48" height="48" viewBox="0 0 48 48" fill="none" xmlns="http://www.w3.org/2000/svg">
<g clip-path="url(#clip0_1586_6133)">
<g style="mix-blend-mode:multiply">
<path d="M47.9859 0H0.0140625C0.006296 0 0 0.006296 0 0.0140625V47.9859C0 47.9937 0.006296 48 0.0140625 48H47.9859C47.9937 48 48 47.9937 48 47.9859V0.0140625C48 0.006296 47.9937 0 47.9859 0Z" fill="white"/>
</g>
<g style="mix-blend-mode:multiply">
<path d="M22.2191 20.1559C20.0042 19.8423 17.7465 20.2135 15.7485 21.2195C13.7506 22.2255 12.108 23.8184 11.0411 25.7844C9.9741 27.7505 9.53375 29.9958 9.77905 32.2192C10.0244 34.4426 10.9436 36.5379 12.4135 38.2241C13.8834 39.9102 15.8338 41.1067 18.0029 41.653C20.1721 42.1992 22.4565 42.0693 24.5497 41.2804C26.6429 40.4916 28.4449 39.0816 29.7141 37.2396C30.9832 35.3975 31.6588 33.2115 31.6503 30.9746V18.9746C34.0558 20.6954 36.9427 21.614 39.9003 21.5996V15.6934C37.7123 15.6934 35.6139 14.8242 34.0667 13.277C32.5195 11.7298 31.6503 9.6314 31.6503 7.44336H25.6878V31.0309C25.6857 32.0895 25.3486 33.1203 24.725 33.9757C24.1013 34.8311 23.2229 35.4672 22.2157 35.793C21.2084 36.1187 20.1239 36.1175 19.1174 35.7893C18.1109 35.4611 17.2341 34.8229 16.6124 33.9661C15.9908 33.1092 15.6562 32.0776 15.6566 31.019C15.657 29.9603 15.9923 28.929 16.6146 28.0725C17.2368 27.2161 18.1141 26.5785 19.1208 26.2511C20.1275 25.9236 21.212 25.9231 22.2191 26.2496V20.1559Z" fill="#FF004F"/>
</g>
<g style="mix-blend-mode:multiply">
<path d="M20.5316 18.7496C18.3167 18.4361 16.059 18.8072 14.061 19.8132C12.0631 20.8193 10.4205 22.4121 9.35358 24.3782C8.2866 26.3442 7.84625 28.5895 8.09155 30.8129C8.33686 33.0364 9.25611 35.1317 10.726 36.8178C12.1959 38.504 14.1463 39.7004 16.3154 40.2467C18.4846 40.793 20.769 40.663 22.8622 39.8742C24.9554 39.0853 26.7574 37.6754 28.0266 35.8333C29.2957 33.9913 29.9713 31.8053 29.9628 29.5684V17.5684C32.3683 19.2892 35.2552 20.2077 38.2128 20.1934V14.2871C36.0248 14.2871 33.9264 13.4179 32.3792 11.8707C30.832 10.3236 29.9628 8.22515 29.9628 6.03711H24.0003V29.6246C23.9982 30.6832 23.6611 31.714 23.0375 32.5694C22.4138 33.4248 21.5354 34.061 20.5282 34.3867C19.5209 34.7125 18.4364 34.7112 17.4299 34.383C16.4234 34.0549 15.5466 33.4167 14.9249 32.5598C14.3033 31.7029 13.9687 30.6713 13.9691 29.6127C13.9695 28.5541 14.3048 27.5227 14.9271 26.6663C15.5493 25.8098 16.4266 25.1723 17.4333 24.8448C18.44 24.5174 19.5245 24.5169 20.5316 24.8434V18.7496Z" fill="#00F2EA"/>
</g>
</g>
<defs>
<clipPath id="clip0_1586_6133">
<rect width="48" height="48" fill="white"/>
</clipPath>
</defs>
</svg>
