<svg width="32" height="32" viewBox="0 0 32 32" fill="none" xmlns="http://www.w3.org/2000/svg">
<path opacity="0.1" fill-rule="evenodd" clip-rule="evenodd" d="M0 16C0 7.16344 7.16344 0 16 0C24.8366 0 32 7.16344 32 16C32 24.8366 24.8366 32 16 32C7.16344 32 0 24.8366 0 16Z" fill="white"/>
<g clip-path="url(#clip0_3169_4431)">
<g style="mix-blend-mode:multiply">
<path d="M24.9947 7H7.00527C7.00236 7 7 7.00236 7 7.00527V24.9947C7 24.9976 7.00236 25 7.00527 25H24.9947C24.9976 25 25 24.9976 25 24.9947V7.00527C25 7.00236 24.9976 7 24.9947 7Z" fill="white"/>
</g>
<path d="M15.3319 14.5587C14.5013 14.4411 13.6547 14.5803 12.9055 14.9576C12.1562 15.3348 11.5403 15.9321 11.1402 16.6694C10.74 17.4067 10.5749 18.2487 10.6669 19.0824C10.7589 19.9162 11.1036 20.702 11.6548 21.3343C12.206 21.9666 12.9374 22.4152 13.7509 22.6201C14.5643 22.825 15.4209 22.7762 16.2059 22.4804C16.9909 22.1846 17.6666 21.6558 18.1425 20.9651C18.6185 20.2743 18.8718 19.4546 18.8686 18.6157V14.1157C19.7707 14.761 20.8533 15.1055 21.9624 15.1001V12.8853C21.1419 12.8853 20.355 12.5593 19.7748 11.9791C19.1946 11.3989 18.8686 10.612 18.8686 9.7915H16.6327V18.6368C16.6319 19.0338 16.5055 19.4204 16.2716 19.7411C16.0377 20.0619 15.7084 20.3004 15.3306 20.4226C14.9529 20.5448 14.5462 20.5443 14.1688 20.4212C13.7914 20.2982 13.4625 20.0588 13.2294 19.7375C12.9963 19.4162 12.8708 19.0293 12.871 18.6323C12.8711 18.2354 12.9969 17.8486 13.2302 17.5274C13.4636 17.2063 13.7925 16.9672 14.1701 16.8444C14.5476 16.7216 14.9543 16.7214 15.3319 16.8438V14.5587Z" fill="#FBFBFD"/>
</g>
<defs>
<clipPath id="clip0_3169_4431">
<rect width="18" height="18" fill="white" transform="translate(7 7)"/>
</clipPath>
</defs>
</svg>
