<svg width="42" height="42" viewBox="0 0 42 42" fill="none" xmlns="http://www.w3.org/2000/svg">
<g clip-path="url(#clip0_1586_6181)">
<g style="mix-blend-mode:multiply">
<path d="M41.9877 0H0.0123047C0.005509 0 0 0.005509 0 0.0123047V41.9877C0 41.9945 0.005509 42 0.0123047 42H41.9877C41.9945 42 42 41.9945 42 41.9877V0.0123047C42 0.005509 41.9945 0 41.9877 0Z" fill="white"/>
</g>
<g style="mix-blend-mode:multiply">
<path d="M19.441 17.6371C17.503 17.3628 15.5274 17.6875 13.7792 18.5678C12.0311 19.4481 10.5938 20.8418 9.66021 22.5621C8.72661 24.2824 8.3413 26.247 8.55594 28.1925C8.77058 30.138 9.57492 31.9714 10.8611 33.4468C12.1473 34.9222 13.8538 35.9691 15.7518 36.4471C17.6499 36.9251 19.6487 36.8113 21.4803 36.1211C23.3118 35.4309 24.8886 34.1971 25.9991 32.5854C27.1096 30.9736 27.7007 29.0608 27.6933 27.1035V16.6035C29.7981 18.1092 32.3241 18.9129 34.912 18.9004V13.7324C32.9975 13.7324 31.1614 12.9719 29.8076 11.6181C28.4538 10.2643 27.6933 8.4282 27.6933 6.51367H22.4761V27.1527C22.4742 28.079 22.1793 28.981 21.6336 29.7295C21.0879 30.4779 20.3193 31.0345 19.438 31.3196C18.5566 31.6046 17.6077 31.6035 16.727 31.3164C15.8463 31.0292 15.0791 30.4708 14.5352 29.721C13.9912 28.9713 13.6984 28.0686 13.6988 27.1423C13.6991 26.216 13.9925 25.3136 14.537 24.5642C15.0815 23.8148 15.8491 23.2569 16.73 22.9704C17.6109 22.6839 18.5598 22.6835 19.441 22.9691V17.6371Z" fill="#FF004F"/>
</g>
<g style="mix-blend-mode:multiply">
<path d="M17.9644 16.4066C16.0264 16.1323 14.0509 16.457 12.3027 17.3373C10.5545 18.2176 9.11725 19.6113 8.18365 21.3316C7.25005 23.0519 6.86473 25.0166 7.07938 26.9621C7.29402 28.9076 8.09836 30.7409 9.38454 32.2163C10.6707 33.6917 12.3772 34.7386 14.2753 35.2166C16.1733 35.6946 18.1721 35.5809 20.0037 34.8906C21.8353 34.2004 23.412 32.9667 24.5225 31.3549C25.633 29.7431 26.2242 27.8303 26.2167 25.873V15.373C28.3216 16.8788 30.8476 17.6825 33.4355 17.6699V12.502C31.521 12.502 29.6848 11.7414 28.3311 10.3876C26.9773 9.03385 26.2167 7.19773 26.2167 5.2832H20.9995V25.9223C20.9977 26.8486 20.7028 27.7505 20.157 28.499C19.6113 29.2475 18.8428 29.8041 17.9614 30.0891C17.0801 30.3742 16.1311 30.373 15.2505 30.0859C14.3698 29.7988 13.6025 29.2403 13.0586 28.4906C12.5147 27.7408 12.2219 26.8381 12.2222 25.9118C12.2225 24.9855 12.516 24.0831 13.0604 23.3337C13.6049 22.5844 14.3726 22.0265 15.2534 21.74C16.1343 21.4534 17.0832 21.453 17.9644 21.7387V16.4066Z" fill="#00F2EA"/>
</g>
</g>
<defs>
<clipPath id="clip0_1586_6181">
<rect width="42" height="42" fill="white"/>
</clipPath>
</defs>
</svg>
