<svg width="12" height="14" viewBox="0 0 12 14" fill="none" xmlns="http://www.w3.org/2000/svg">
<path d="M5.33191 5.55869C4.50134 5.44112 3.65468 5.58029 2.90546 5.95755C2.15624 6.33482 1.54027 6.93213 1.14016 7.6694C0.740045 8.40668 0.574911 9.24866 0.666901 10.0824C0.758892 10.9162 1.10361 11.702 1.65483 12.3343C2.20605 12.9666 2.93741 13.4152 3.75086 13.6201C4.56431 13.825 5.42094 13.7762 6.2059 13.4804C6.99085 13.1846 7.6666 12.6558 8.14253 11.9651C8.61846 11.2743 8.87182 10.4546 8.86863 9.61572V5.11572C9.7707 5.76102 10.8533 6.10548 11.9624 6.1001V3.88525C11.1419 3.88525 10.355 3.55931 9.77476 2.97912C9.19457 2.39892 8.86863 1.61202 8.86863 0.791504H6.63269V9.63682C6.63189 10.0338 6.5055 10.4204 6.27162 10.7411C6.03773 11.0619 5.70835 11.3004 5.33063 11.4226C4.95291 11.5448 4.54622 11.5443 4.16879 11.4212C3.79136 11.2982 3.46255 11.0588 3.22942 10.7375C2.9963 10.4162 2.87083 10.0293 2.87097 9.63235C2.87112 9.23537 2.99686 8.8486 3.23021 8.52744C3.46356 8.20628 3.79255 7.96719 4.17007 7.8444C4.54758 7.72161 4.95427 7.72141 5.33191 7.84385V5.55869Z" fill="#FBFBFD"/>
</svg>
